<svg id="visual" viewBox="0 0 900 600" width="900" height="600" xmlns="http://www.w3.org/2000/svg" xmlns:xlink="http://www.w3.org/1999/xlink" version="1.1"><g transform="translate(478.4051468895918 287.77019815464496)"><path d="M81.1 -126.1C115.3 -120.7 160.3 -119.6 183.7 -99.3C207.2 -79 209.1 -39.5 215.4 3.7C221.8 46.8 232.6 93.7 212.5 119.8C192.4 145.9 141.5 151.3 100.9 179.8C60.3 208.2 30.2 259.6 -11.4 279.4C-53 299.1 -106 287.3 -127.5 247.8C-149 208.4 -139 141.5 -146.7 95.6C-154.4 49.7 -179.7 24.8 -212.3 -18.8C-244.9 -62.5 -284.8 -125 -280.6 -176.8C-276.3 -228.6 -227.9 -269.8 -173.8 -263.7C-119.7 -257.6 -59.8 -204.3 -18.2 -172.8C23.4 -141.3 46.9 -131.5 81.1 -126.1" fill="#d2c38d"></path></g></svg>