<svg xmlns="http://www.w3.org/2000/svg" width="264.3363mm" height="352.97729mm" viewBox="0 0 264.3363 352.97729">
    <path fill="#fff" d="m 3441.5032,646.40665 c -0.4413,7.49959 3.9703,8.82306 17.6461,11.46998 13.6758,2.64692 42.3505,1.76461 42.3505,1.76461 l 4.8528,-45.43875 33.9687,1.32345 0.8824,44.55644 c 0,0 55.144,-2.64692 57.3498,-7.49959 2.2058,-4.8527 0.8824,-22.05765 0.8824,-22.05765 l -1.3235,-144.69816 c 0,0 -106.2004,-1.51738 -115.9259,-2.13711 -0.9182,-0.0585 -12.4227,-22.55543 -17.5447,-21.45442 -4.5815,0.98482 -20.6376,17.13518 -23.1091,18.67987 -3.5293,2.20581 -0.9119,27.85161 -0.9119,27.85161 z" transform="translate(93.397807,-275.43126) translate(-3435.491,-35.02009)"/>
    <path fill="#60676f" d="m 3522.6753,424.06533 -37.3073,24.34476 -28.4246,-2.28668 -0.7669,21.85913 c 3.8603,-2.72665 7.1446,-4.86519 7.9886,-4.87412 0.018,-1.9e-4 0.034,3.2e-4 0.05,0.002 2.0098,0.22328 11.3886,13.50923 14.8497,17.86351 1.5105,1.90036 2.3404,3.16263 2.759,4.09329 44.2682,-0.25011 108.9277,0.14924 113.2003,0.75964 6.1762,0.8823 -72.349,-61.7616 -72.349,-61.7616 z m -58.0058,47.83997 c -0.3674,-0.0142 -0.7193,0.0602 -1.0123,0.24856 -1.5632,1.00483 -5.9175,2.90297 -5.5826,3.79615 0.335,0.89318 1.5633,2.12146 3.0148,3.68453 0,0 4.0192,-2.90278 5.6937,-4.57749 1.3607,-1.36072 -0.5215,-3.0901 -2.1136,-3.15175 z m -13.2855,8.59999 c -0.5889,0.0237 -1.3304,0.4795 -2.5761,1.25057 -1.818,1.12552 -3.3678,1.8481 -2.5662,3.83388 2.1585,-0.082 4.8847,-0.15476 8.0765,-0.2186 -0.3393,-1.09377 -0.6788,-2.70215 -1.4903,-3.83852 -0.5234,-0.73268 -0.9242,-1.04822 -1.4439,-1.02733 z m 18.018,0.18965 c -1.0625,-0.0418 -1.9209,1.42342 -3.8468,2.512 -1.4559,0.82286 -1.5481,1.32258 -1.1921,2.00814 2.9739,-0.0359 6.1564,-0.0667 9.5043,-0.0935 -1.0403,-1.21954 -2.1641,-2.75925 -3.2877,-3.81269 -0.4466,-0.41868 -0.8235,-0.59997 -1.1777,-0.61392 z m -26.634,4.36615 -0.8237,0.76584 c 0.3425,-0.0311 0.7504,-0.0612 1.2201,-0.0904 -0.133,-0.2236 -0.2656,-0.44932 -0.3964,-0.67541 z" transform="translate(93.397807,-275.43126) translate(-3435.491,-35.02009)"/>
    <path fill="#393a3b" d="m 3502.8233,657.43546 3.9706,-45.43875 32.204,0.88231 v 48.08566 z" transform="translate(93.397807,-275.43126) translate(-3435.491,-35.02009)"/>
    <path d="m 3482.8793,310.45141 c -0.1235,-0.001 -0.2201,0.0103 -0.2882,0.0345 -3.0095,1.06751 -10.3649,17.19714 -26.2641,57.59808 -7.9352,20.16413 -16.4539,41.39472 -18.9302,47.17921 -2.4766,5.78447 -4.157,11.10984 -3.7345,11.83428 0.8937,1.53226 6.4136,4.62011 12.2193,7.21407 -3.1364,6.06384 -5.7878,11.12656 -7.724,14.71444 -3.565,-4.67745 -8.4393,-11.07033 -14.013,-18.374 1.259,-1.0924 2.3511,-2.09817 3.1414,-2.91426 l 3.3244,-3.43219 -3.5395,-7.29503 c -1.9467,-4.01207 -7.1475,-13.12518 -11.5577,-20.25126 -4.41,-7.12597 -7.85,-13.48644 -7.6484,-14.1347 0.2035,-0.64801 -0.3939,-1.21028 -1.3282,-1.24617 -0.9339,-0.0373 -8.1392,-9.66977 -16.0115,-21.40576 -13.5314,-20.17162 -14.4803,-21.25433 -17.3537,-19.79881 -1.6454,0.83345 -6.7012,4.61079 -12.2699,8.9936 -1.8592,-0.79648 -3.8616,0.54946 -3.1711,2.51701 -7.811,6.24974 -15.5628,12.81775 -15.6356,13.55786 -0.1006,1.02337 4.4629,6.5151 30.1502,36.28333 4.6582,5.39845 14.717,16.55344 22.353,24.78945 7.6361,8.23581 14.3465,14.98628 14.9124,15.00075 0.8566,0.0219 5.7929,-3.48679 10.4335,-7.18373 5.4759,7.00847 10.0892,12.87314 13.1221,16.68514 -9.6816,-0.12318 -12.26,0.33041 -13.9964,1.98016 -1.8783,1.78456 -2.0513,2.64705 -0.7963,3.96777 0.9558,1.00592 7.1651,2.0825 13.9249,2.75882 -1.4882,2.71125 -3.3786,6.23255 -5.5681,10.35755 -4.4122,-2.16859 -8.3795,-3.86333 -9.6125,-3.89486 -1.6576,-0.0424 -3.6001,1.54225 -4.9929,4.07447 -1.2533,2.2794 -7.2098,11.46 -13.2366,20.40085 -23.3564,34.65051 -45.5176,71.42915 -45.5512,75.59865 -0.015,1.82807 7.4122,7.43328 16.1893,13.01737 -3.5583,6.19274 2.0884,5.37634 4.8304,2.98837 8.6104,5.1799 17.4501,9.72441 21.2999,10.37937 6.5357,1.11195 5.136,3.3252 13.8809,-21.93879 5.9115,-17.07875 22.3943,-59.89901 25.9185,-67.33354 1.0558,-2.22724 1.7054,-2.66898 1.9328,-1.31062 0.1874,1.12676 0.1595,34.70355 -0.062,74.61464 -0.2234,40.39269 0.1463,73.65579 0.8346,75.02474 1.8429,3.66631 11.5498,8.13906 21.4904,9.90297 v 5.9e-4 c 12.5721,2.23093 78.6024,2.77369 101.293,0.83284 10.4945,-0.8977 23.3953,-2.82089 28.6678,-4.27388 5.2732,-1.45316 10.432,-2.87459 11.4647,-3.15888 1.5381,-0.42362 1.8176,-4.50504 1.5488,-22.60362 -0.1801,-12.14778 -0.4329,-40.44848 -0.5617,-62.89051 -0.2119,-36.92238 -1.3475,-65.62229 -2.9215,-73.85092 -0.3849,-2.01349 0.052,-3.05891 1.2659,-3.02786 1.0197,0.0261 3.0017,-1.15729 4.4048,-2.6302 2.4869,-2.61058 2.4534,-2.7857 -1.3116,-6.94701 -8.1742,-9.03363 -63.6267,-51.25883 -76.4442,-58.20918 -3.9037,-2.11679 -5.0473,-2.22227 -8.14,-0.75096 -3.6491,1.73608 -27.0749,16.5468 -33.2235,21.00526 -2.2989,1.66708 -3.7836,1.98205 -4.7172,0.99956 -0.7493,-0.78861 -6.7032,-1.57076 -13.2315,-1.73771 l -11.8692,-0.30354 -0.526,3.72657 -0.5254,3.72605 -11.9612,-0.28624 c 2.1955,-4.33165 4.7718,-9.35814 7.5984,-14.83707 2.8722,1.11661 5.5296,1.96963 7.4054,2.29227 3.7252,0.64085 7.3877,1.06827 8.1386,0.94993 1.9515,-0.30781 40.6503,-55.01102 56.1282,-79.34008 7.1841,-11.29263 14.1475,-21.08033 15.4733,-21.75075 4.6932,-2.37299 2.4227,-4.89045 -8.5958,-9.53186 -4.1163,-1.73397 -11.128,-4.72334 -18.0612,-7.69637 0.1704,-0.60062 0.2931,-1.18471 0.359,-1.7484 0.624,-5.34583 -3.3763,-5.1963 -6.0131,-0.68 -1.3825,-0.59485 -2.726,-1.17417 -4.0045,-1.7261 -8.5699,-3.69955 -16.4634,-6.4901 -18.3156,-6.50566 z m 2.668,3.61543 c 0.3711,0.009 8.3975,4.00631 17.4289,8.59413 -0.9791,1.81998 -2.2592,4.25472 -3.7839,7.18941 -2.9206,-1.35651 -5.676,-2.54332 -7.8464,-3.35758 l -10.3377,-3.87824 1.8774,-4.28389 c 1.0325,-2.35608 2.2299,-4.27487 2.6617,-4.26383 z m 23.3715,11.62439 c 9.962,5.09769 19.4084,10.02449 19.7698,10.40485 0.2579,0.27149 -0.305,2.08256 -1.2506,4.02492 -0.946,1.94235 -2.0789,3.48797 -2.5184,3.43472 -0.4397,-0.0535 -5.8476,-3.04169 -12.0174,-6.6408 -2.3285,-1.35818 -5.1601,-2.87205 -8.0885,-4.3449 1.4049,-2.25019 2.905,-4.60177 4.1051,-6.87879 z m -30.0821,0.51166 6.4791,2.51153 c 2.7108,1.05077 6.9822,3.06995 11.6545,5.43068 -1.5838,3.07116 -3.3505,6.51522 -5.2571,10.24454 -2.942,-1.46659 -5.6541,-2.79143 -7.6391,-3.72549 -4.804,-2.26066 -8.9188,-4.27165 -9.145,-4.4686 -0.2259,-0.19694 0.561,-2.52576 1.7483,-5.17527 z m 23.4184,10.6672 c 9.5421,5.01311 18.9776,10.45708 19.2584,11.43494 0.2166,0.75349 -1.0211,2.96923 -2.7503,4.92376 l -3.1429,3.55367 -11.4061,-6.00433 c -2.1746,-1.1447 -4.6847,-2.43941 -7.2361,-3.73689 2.5806,-4.92622 4.2586,-8.14931 4.6536,-8.96248 0.1909,-0.39285 0.3999,-0.7964 0.6234,-1.20867 z m -28.228,2.74104 c 0.315,0.008 7.6402,3.84179 15.9109,8.25447 -1.677,3.28602 -3.4446,6.75595 -5.277,10.35775 -7.9624,-4.46481 -14.3567,-7.98525 -14.9064,-8.19879 -1.2879,-0.50049 2.7947,-10.45122 4.2725,-10.41343 z m -97.686,5.82393 c 0.7677,-0.0134 1.1499,0.5294 1.5849,1.3949 1.2072,2.40085 0.9196,3.20089 -1.7943,4.9906 -1.194,0.7875 -4.2757,3.16024 -7.84,6.01355 -1.4163,-1.8188 -2.633,-3.37209 -3.6127,-4.61142 7.3261,-5.7087 10.1965,-7.76202 11.6621,-7.78763 z m 118.7566,5.19265 c 8.4245,4.52481 16.5482,8.96181 18.2614,10.04008 0.3025,0.1901 -0.6596,2.46033 -2.1378,5.04488 -1.4781,2.58446 -3.3117,4.6296 -4.0744,4.54407 -0.7277,-0.0815 -8.4706,-4.17054 -17.5065,-9.23505 2.0169,-3.83984 3.8561,-7.34148 5.4573,-10.39398 z m -26.8068,2.43569 c 0.2808,0.007 7.1327,3.8255 14.8281,8.19213 -1.6796,3.30344 -3.4063,6.70196 -5.1608,10.15655 -7.2891,-3.82101 -13.7,-7.28082 -14.1062,-7.71361 -0.8819,-0.93945 3.1784,-10.6673 4.4389,-10.63507 z m -86.6506,0.43125 2.2663,3.6584 c 2.2338,3.60718 2.2084,3.69805 -1.8078,6.45007 -1.1706,0.80232 -3.362,2.45055 -5.9102,4.43095 -1.8908,-2.45161 -3.6474,-4.72448 -5.2355,-6.77338 z m -20.9334,2.83661 c 0.9079,1.31864 2.0715,2.95405 3.4499,4.85384 -0.4247,0.34846 -0.8494,0.69779 -1.2709,1.04634 -5.508,4.55378 -10.5764,8.26512 -11.2641,8.24754 -0.6873,-0.0176 -1.9097,-0.87042 -2.717,-1.89529 -1.1143,-1.41511 1.3952,-4.05557 11.8021,-12.25243 z m 127.3375,7.72847 c 8.1042,4.62862 15.8155,9.10669 16.7005,9.76962 0.2379,0.17804 -0.5947,2.19047 -1.8492,4.47175 -1.2545,2.28127 -2.7227,4.0812 -3.2624,4.00137 -0.6605,-0.0983 -8.5708,-4.08259 -16.7881,-8.34306 1.8133,-3.45336 3.5558,-6.77094 5.1992,-9.89968 z m -99.8465,0.72393 2.6609,3.56665 c 3.1043,4.16152 3.2673,5.39378 0.8278,6.259 -0.6576,0.23325 -3.3998,2.06957 -6.9068,4.59002 -2.0843,-2.71371 -4.0901,-5.32181 -5.9886,-7.78723 z m -21.6446,-0.32194 c 1.5715,2.13399 3.3297,4.49737 5.2359,7.04064 -1.0028,0.8012 -2.0046,1.60908 -2.9732,2.39853 l -9.2089,7.5066 -2.8042,-3.14178 c -1.5421,-1.72789 -2.7945,-3.49525 -2.7835,-3.92751 0.01,-0.40765 5.54,-4.7575 12.5339,-9.87648 z m 96.1045,3.4001 c 0.464,0.004 6.3022,2.82986 13.7381,6.6269 -1.586,3.12351 -3.1901,6.28301 -4.799,9.45139 -2.8764,-1.26656 -5.562,-2.37626 -7.4038,-3.04074 -3.8078,-1.3738 -6.9183,-2.67973 -6.9126,-2.90205 0.041,-1.59168 4.5769,-10.14397 5.3773,-10.1355 z m 18.5964,9.12852 16.5158,8.56096 -2.3725,3.79151 c -1.3047,2.08523 -3.0045,3.75326 -3.7769,3.7065 -0.7725,-0.0467 -5.702,-2.23741 -10.9545,-4.86845 -1.3016,-0.65199 -2.736,-1.34347 -4.2152,-2.03595 1.6341,-3.11617 3.241,-6.1784 4.8033,-9.15457 z m -107.0854,-2.32088 c 1.8925,2.51255 3.9015,5.16568 5.994,7.91867 -0.3043,0.22764 -0.6102,0.45694 -0.9166,0.68785 -5.863,4.41956 -10.8232,7.99843 -11.0186,7.95142 -0.1974,-0.0465 -1.6847,-1.85808 -3.3058,-4.02513 l -2.9465,-3.93995 z m 21.5258,2.4192 c 0.6,0.0389 2.1212,1.5671 3.3812,3.39641 2.245,3.26006 2.2087,3.3814 -1.8409,6.11166 -1.008,0.67959 -2.5742,1.82235 -4.352,3.16503 -1.951,-2.54583 -3.8692,-5.04726 -5.7358,-7.47939 4.4146,-2.90369 8.1409,-5.22071 8.5475,-5.19371 z m 60.9926,5.83743 c 0.5376,0.0256 1.1892,0.13873 1.9922,0.32079 1.2493,0.28325 5.8288,2.10643 11.0771,4.31795 -1.5364,3.02522 -3.0724,6.0488 -4.5963,9.04664 -4.1428,-1.96645 -7.7277,-3.52331 -9.0045,-3.87879 -3.4691,-0.9656 -3.7911,-1.99288 -2.2566,-7.19035 0.5862,-1.98464 1.175,-2.6932 2.7881,-2.61624 z m -74.3254,2.5521 c 1.9365,2.54134 3.9325,5.1525 5.9639,7.80365 -0.839,0.66172 -1.6642,1.32048 -2.4455,1.9535 -3.9727,3.21939 -7.6122,5.8431 -8.0872,5.83095 -2.0167,-0.0516 -7.0268,-7.08651 -5.8035,-8.14899 1.4799,-1.28542 5.809,-4.34707 10.3723,-7.43911 z m 20.8997,1.18944 2.297,3.16395 c 2.2335,3.07701 2.1926,3.23663 -1.4677,5.78779 -0.9521,0.66361 -2.5156,1.80404 -4.3157,3.14166 -1.6021,-2.09327 -3.1973,-4.17703 -4.7761,-6.23798 z m 71.3563,2.97398 c 7.0903,3.06804 13.9503,6.20567 14.5892,6.81976 0.2363,0.22712 -0.597,2.27932 -1.8519,4.56058 -1.2546,2.28138 -3.0285,4.0884 -3.9425,4.01501 -0.9141,-0.0733 -6.6757,-2.66457 -12.805,-5.75838 -0.2729,-0.13779 -0.5466,-0.27529 -0.8207,-0.4123 1.6198,-3.09525 3.2351,-6.17984 4.8309,-9.22467 z m -22.9358,5.15502 c 0.5756,0.0147 5.6242,2.2625 11.7506,5.21137 -1.7423,3.4255 -3.4627,6.80493 -5.1434,10.10167 -5.9307,-3.4038 -11.1783,-6.68588 -11.1637,-7.2553 0.058,-2.27676 3.3446,-8.08873 4.5565,-8.05774 z m -61.3839,1.05777 c 1.6156,2.10538 3.2489,4.22972 4.8879,6.35817 -0.7233,0.55017 -1.4375,1.09609 -2.1233,1.62419 -3.9949,3.07658 -7.4823,5.58848 -7.752,5.58159 -0.2682,-0.007 -1.5762,-1.27887 -2.9062,-2.82648 -2.633,-3.06325 -3.0794,-2.9556 7.8936,-10.73747 z m 19.1908,1.44865 c 0.876,0.0568 1.9207,1.01011 3.0191,2.78387 2.0194,3.26379 2.0379,3.80368 0.1628,4.79097 -0.7184,0.37824 -2.7838,1.84616 -5.335,3.76744 -1.6493,-2.15725 -3.3078,-4.32546 -4.9646,-6.49092 1.8466,-1.3509 3.9379,-2.87702 6.3019,-4.60652 0.2503,-0.18311 0.5238,-0.26378 0.8158,-0.24484 z m 58.5344,4.93402 c 6.4529,3.10673 12.0207,5.52431 12.8187,5.54472 0.9708,0.0248 0.3279,2.13435 -1.6415,5.38736 -1.7806,2.94054 -3.8483,5.29855 -4.5946,5.23845 -1.1123,-0.0884 -6.3577,-2.74914 -11.9724,-5.85132 1.7807,-3.4141 3.5845,-6.86691 5.3898,-10.31921 z m -70.2666,3.31085 c 1.6961,2.19912 3.3919,4.39492 5.0751,6.57078 -0.1923,0.15165 -0.3845,0.30377 -0.5766,0.45618 v 5e-5 c -4.5662,3.62135 -8.5165,6.55895 -8.7817,6.52916 -0.2637,-0.0303 -1.5038,-1.54307 -2.7557,-3.36127 -1.9419,-2.82044 -3.0817,-2.68668 7.0368,-10.1949 z m 47.9711,1.34362 11.1703,5.94609 c -1.4288,2.8005 -2.8243,5.53185 -4.1753,8.17087 -6.1286,-3.00572 -10.9122,-5.38203 -11.1206,-5.52713 -0.2378,-0.16623 0.5932,-2.16676 1.8465,-4.44597 z m -29.4327,0.6089 c 0.7696,0.0483 1.2255,0.63914 1.8555,1.58947 1.4799,2.23237 1.2393,3.11782 -4.3297,8.04132 -1.4604,-1.91173 -2.9404,-3.84857 -4.4312,-5.79908 3.9859,-2.81492 5.7806,-3.90232 6.9054,-3.83171 z m 44.9777,7.66619 c 6.7106,3.57834 12.0317,6.45224 12.1701,6.57646 0.1515,0.13542 -0.809,1.80576 -2.1348,3.71179 l -2.4107,3.4659 -11.7834,-5.76275 c 0,-1.4e-4 -1e-4,-3.8e-4 0,-5.2e-4 1.361,-2.61922 2.7511,-5.28958 4.1588,-7.99088 z m -56.4919,-0.53025 c 1.6172,2.08827 3.218,4.1521 4.7906,6.17735 -4.0639,3.47096 -7.4631,6.22595 -7.9097,6.39483 -1.0047,0.37994 -5.3675,-4.26029 -5.3314,-5.67063 0.011,-0.43073 3.689,-3.42237 8.4505,-6.90155 z m 17.1322,1.23576 2.9402,3.29466 2.9404,3.29465 -6.2755,4.74986 c -1.6759,-2.19549 -3.4025,-4.45703 -5.1654,-6.76538 z m 18.3953,1.91062 11.0439,5.89993 -1e-4,5.2e-4 c -1.167,2.27614 -2.2963,4.4737 -3.3794,6.57634 -11.2621,-4.68439 -11.3202,-4.96839 -9.3656,-8.98292 z m -28.2616,6.21656 c 1.7443,2.24328 3.4447,4.42689 5.0845,6.52966 -4.9637,3.73059 -9.1564,6.66741 -9.5215,6.65807 -1.279,-0.0327 -3.5184,-5.56204 -2.7365,-6.75755 0.3663,-0.56016 3.4387,-3.30551 7.1735,-6.43018 z m 43.5969,1.99009 c 6.2895,3.44364 11.1231,6.47783 11.1095,7.01097 -0.015,0.5911 -0.7803,1.79014 -1.7001,2.66421 -1.9873,1.88802 -4.7541,2.00238 -5.7823,0.23932 -0.3219,-0.55156 -3.1702,-2.09047 -6.8277,-3.73732 1.0413,-2.01314 2.1101,-4.0759 3.2006,-6.17718 z m 66.4414,2.44767 8.3749,7.07284 8.3739,7.07282 -14.7576,0.55514 c -8.117,0.30509 -17.678,1.05269 -21.2467,1.66085 -3.5682,0.60828 -6.4829,0.91417 -6.4769,0.67955 0.01,-0.23452 5.7982,-4.16444 12.8716,-8.7337 z m 25.1961,19.80034 7.0016,5.40681 c 3.851,2.97342 6.9943,5.67338 6.9859,6.00087 -0.01,0.32739 -6.2735,0.0455 -13.923,-0.62642 -16.2944,-1.43143 -40.9308,0.0182 -59.4428,3.49771 -13.8173,2.59711 -20.9786,5.85798 -9.7769,4.452 23.6382,-2.96696 45.5551,-3.76843 63.9766,-2.33911 10.824,0.83969 21.7644,1.46402 24.3126,1.38734 3.6869,-0.11128 6.772,1.48448 15.1045,7.81357 5.7591,4.37436 10.2632,8.15036 10.0103,8.39098 -0.2533,0.2407 -5.5946,-0.37864 -11.8692,-1.37618 -6.2745,-0.99764 -24.8606,-2.23415 -41.3025,-2.74766 -30.7596,-0.96069 -46.9003,0.29404 -52.0014,4.04315 -2.462,1.80905 -2.4583,1.94611 0.1154,4.0769 1.8071,1.49669 4.1997,1.99819 7.4401,1.56169 9.4181,-1.27004 63.6236,-0.89002 81.9302,0.57237 17.611,1.40689 18.6995,1.65829 19.1942,4.42524 0.8628,4.82403 1.6575,67.94943 1.4361,114.02103 l -0.2075,43.06299 -5.3444,1.2699 c -5.3566,1.27268 -33.7406,3.34846 -42.9289,3.1405 l -4.8967,-0.11025 -0.5901,-11.52822 c -0.734,-14.33725 1.0689,-25.39995 -1.4727,-29.64701 -1.8862,-3.15145 -6.1008,-2.82741 -20.4142,-2.70359 -9.6039,0.0831 -15.4152,0.72321 -16.5787,1.82622 -1.2413,1.17696 -2.1672,8.24479 -3.0162,23.02152 l -1.2256,21.32368 -21.74,-0.73327 c -11.9573,-0.40312 -24.3209,-1.50747 -27.4758,-2.45454 l -5.7359,-1.7223 0.2467,-11.16048 c 0.8167,-36.78405 -0.1187,-107.51997 -1.6282,-123.12346 -1.3754,-14.21851 -1.389,-18.54199 -0.061,-20.06065 1.4094,-1.61269 1.0817,-1.95167 -1.964,-2.02956 -3.1586,-0.0808 -3.519,-0.50576 -2.6532,-3.12758 1.9493,-5.9019 3.0558,-4.95874 9.0089,7.67578 12.8195,27.20673 43.7415,88.62845 45.6075,90.5927 1.3616,1.43297 2.5483,1.67216 3.8679,0.7792 1.0474,-0.70845 8.6456,-6.2406 16.8852,-12.29353 1.0385,-0.76287 2.0846,-1.52793 3.1254,-2.28556 3.1435,2.79457 4.844,0.64832 3.679,-2.66427 5.7872,-4.16911 10.8535,-7.71385 12.6223,-8.80987 5.1767,-3.2074 6.741,-8.76192 3.7691,-13.38471 -1.0896,-1.69531 -9.7386,-12.39659 -19.2193,-23.78038 -15.2804,-18.34785 -17.2235,-21.25387 -17.1124,-25.59625 0.1056,-4.13065 -0.3816,-4.98345 -3.1104,-5.44066 -2.7126,-0.4546 -3.126,-0.0744 -2.557,2.35385 0.6308,2.69141 -12.8525,-11.59693 -19.4366,-20.59749 -1.484,-2.0281 -4.3425,-5.56488 -6.3527,-7.86012 -2.0102,-2.29534 -3.6494,-4.63241 -3.6351,-5.19303 0.051,-2.65295 -4.3349,-0.59364 -12.2168,5.70468 -3.1843,-4.79551 -5.728,-8.62439 -7.3541,-11.07107 1.2242,-0.047 2.2652,-0.14051 3.0515,-0.28743 4.038,-0.75431 4.4335,-0.53421 4.3579,2.42473 -0.051,1.98685 0.7109,3.27486 1.9552,3.30668 1.5903,0.0407 2.0859,-1.77923 2.2521,-8.27951 l 0.2131,-8.33217 5.0747,0.97238 c 2.7911,0.53493 6.5706,1.01414 8.3991,1.0729 3.3219,0.0999 3.3211,0.10266 -1.1343,4.47039 -4.4665,4.37834 -5.7814,7.60718 -3.1252,7.67511 0.7793,0.0199 4.6618,-2.22942 8.6272,-4.99885 3.9658,-2.76952 8.4504,-5.64792 9.9652,-6.39654 4.2005,-2.07559 25.3402,-3.83769 44.2923,-3.69182 z m -109.0085,11.77221 c 0.6245,0.037 1.2414,0.0697 1.8471,0.0969 2.3241,3.40559 5.6295,8.36649 9.5758,14.34423 -4.3626,3.34575 -7.4985,5.12059 -7.9157,4.40552 -0.5518,-0.94641 -4.6455,-3.44948 -9.3758,-5.99945 1.6085,-3.25417 2.6109,-5.42323 2.814,-6.15553 0.2038,-0.73462 1.2928,-3.09716 3.0546,-6.69164 z m 26.3487,10.77005 c 0.7635,0.0448 1.2367,0.57123 1.8459,1.41967 2.5121,3.49897 2.4956,3.54233 -2.6008,6.85212 -0.8976,0.58306 -2.081,1.42901 -3.3765,2.4032 -1.4279,-2.15202 -2.7931,-4.20921 -4.0821,-6.15096 4.8619,-3.33573 6.941,-4.5986 8.2135,-4.52403 z m -48.1889,1.55029 c 1.2176,-0.0402 3.3513,0.87704 7.2796,3.07014 -1.062,2.01465 -2.1725,4.12839 -3.3239,6.32394 -6.5681,-4.12306 -7.2083,-5.67579 -5.1304,-8.77588 0.2571,-0.38381 0.6212,-0.59994 1.1747,-0.6182 z m 35.7493,5.89231 c 1.3531,2.05521 2.7661,4.20475 4.2269,6.43071 -0.9962,0.81147 -1.9582,1.61928 -2.8158,2.36843 l -5.7887,5.05645 -1.8346,-4.14414 -1.8346,-4.14464 z m 17.5851,0.886 c 1.0335,0.042 2.5535,1.3532 4.2647,3.71985 l 3.3476,4.62945 -8.4093,6.78474 c -2.2959,-3.46403 -4.5164,-6.81345 -6.6223,-9.98799 3.4232,-2.52594 6.1679,-4.53757 6.7852,-4.96996 0.183,-0.12813 0.3957,-0.18577 0.6341,-0.17609 z m -40.3155,-0.38536 c 7.6919,4.56055 7.9328,5.31282 6.5261,8.71594 -1.0861,2.62746 -1.2189,2.82756 -9.8445,-2.26366 1.2008,-2.3192 2.3133,-4.4815 3.3184,-6.45228 z m -16.93,1.81157 c 1.3493,0.009 3.1994,1.18648 6.6403,3.52936 -1.2801,2.44446 -2.6038,4.97824 -3.9608,7.57879 -6.7978,-3.73951 -7.9346,-4.96253 -6.9218,-6.62575 1.8275,-3.0006 2.7133,-4.49231 4.2423,-4.4824 z m 45.6505,6.80771 c 2.1501,3.27957 4.3903,6.70188 6.6864,10.21293 -5.2761,4.22586 -9.5452,7.48871 -9.8042,7.48208 -0.2866,-0.007 -1.8022,-2.43601 -3.3683,-5.39711 l -2.8476,-5.38379 z m -33.3955,0.44811 c 3.0537,1.93383 5.7091,3.45131 6.7145,3.79903 1.6545,0.57248 2.346,1.67672 1.8295,2.92663 -0.4558,1.10391 -0.8441,2.56843 -0.8617,3.2548 -0.053,2.07409 -2.9092,1.3795 -11.3405,-2.97393 1.2781,-2.43895 2.5023,-4.78321 3.6582,-7.00653 z m 54.4523,2.40211 3.6194,4.67311 3.6191,4.67361 -9.4505,6.84909 c -2.1716,-3.27983 -4.3191,-6.52133 -6.4132,-9.68127 z m -73.4393,-0.0146 c 0.5065,0.013 3.8791,1.79226 7.9911,4.18838 -1.3569,2.60316 -2.7421,5.26369 -4.1446,7.96023 l -9.7201,-4.56084 2.3827,-3.80831 c 1.3103,-2.09438 2.8814,-3.79504 3.4909,-3.77946 z m 146.8391,7.17214 c -0.692,0.0124 -1.451,0.0869 -2.2771,0.22298 -3.0664,0.50537 -3.6873,1.31531 -3.7798,4.93103 -0.061,2.37952 0.63,5.10609 1.5354,6.05895 2.7475,2.89178 8.2545,1.54645 9.2853,-2.26864 1.6433,-6.08043 0.08,-9.03125 -4.7638,-8.94432 z m -30.6638,0.13957 c -0.5425,0.0255 -1.0791,0.0923 -1.5784,0.20414 -3.0067,0.67336 -3.6506,1.58049 -3.745,5.27258 -0.063,2.4524 0.6013,5.2114 1.4751,6.13134 2.1721,2.28598 7.1471,2.23679 9.1816,-0.0909 2.2173,-2.53724 1.5322,-8.94117 -1.1471,-10.71435 -0.8799,-0.58241 -2.5592,-0.87939 -4.1862,-0.80285 z m -102.4093,0.28568 c 3.8286,2.20917 6.9051,3.81063 7.407,3.82347 1.9473,0.0498 2.8321,2.67208 1.8543,5.49951 -1.1057,3.19764 -1.7694,3.34164 -13.1466,-1.94645 1.3304,-2.51999 2.6297,-4.98638 3.8853,-7.37653 z m 46.8396,2.13041 c 2.0649,3.15868 4.1684,6.37821 6.2865,9.62116 -6.1642,4.44199 -11.2105,7.91394 -11.5112,7.90625 -0.3221,-0.008 -1.5147,-1.93049 -2.6506,-4.2715 -2.2109,-4.55793 -1.996,-5.66827 7.8753,-13.25591 z m 21.9909,2.5841 6.9949,8.20169 6.9952,8.2017 -11.4466,8.53597 c -1.6475,-2.49538 -3.3171,-5.0225 -4.9956,-7.56177 5.0413,-3.57111 8.6827,-6.49958 8.6972,-7.06686 0.064,-2.48152 -3.136,-1.43296 -10.9343,3.6837 -1.5994,-2.41858 -3.2016,-4.84013 -4.7953,-7.24805 2.3623,-1.60035 4.4041,-3.01544 5.5249,-3.83856 z m -90.7171,-0.36492 9.8484,4.27671 v 5.2e-4 c -1.4533,2.79629 -2.9198,5.61947 -4.3872,8.44615 -5.3863,-2.64192 -9.8977,-5.07802 -10.0789,-5.6716 -0.2089,-0.68377 0.7449,-2.55005 2.1196,-4.14743 z m 15.9713,6.86857 c 4.8556,1.95467 9.0508,3.37596 10.1942,3.4052 2.4817,0.0635 2.537,0.41279 0.7999,5.0435 -1.0263,2.73655 -2.4309,5.08236 -3.1216,5.21304 -0.8283,0.15707 -6.4425,-2.19635 -12.4691,-4.98885 1.5516,-2.92225 3.0893,-5.82351 4.5966,-8.67289 z m 60.8019,3.22926 c 1.5859,2.42846 3.1762,4.86366 4.761,7.29059 -4.8824,3.32147 -9.3147,6.31608 -10.3004,6.95711 -1.4767,0.95996 -2.5164,0.59235 -3.9038,-1.37977 -1.0404,-1.47848 -1.871,-3.33594 -1.8118,-4.12648 0.044,-0.79083 3.9495,-3.9623 8.6797,-7.04818 0.8376,-0.54648 1.7042,-1.11647 2.5753,-1.69327 z m -83.8218,-0.34366 11.1397,5.60929 c -2.1658,4.17307 -4.3265,8.33878 -6.4455,12.42301 -5.9178,-2.95209 -10.9538,-5.56019 -11.3459,-5.9728 -0.5706,-0.60028 0.6931,-3.55941 2.8071,-6.57545 z m 16.9608,8.54081 13.198,6.64618 -2.4658,6.1634 c -1.3557,3.38985 -2.7903,6.1098 -3.1884,6.0436 -0.7558,-0.12503 -7.24,-3.18298 -14.1007,-6.54053 2.1707,-4.06948 4.3722,-8.2021 6.5569,-12.31265 z m 73.8716,2.53791 c 1.7052,2.61072 3.3987,5.20222 5.0676,7.7554 -5.59,4.15662 -10.446,7.73691 -11.5224,8.49113 -2.0219,1.41618 -2.6192,1.01371 -4.3921,-2.96321 l -2.0519,-4.60252 z m 23.5761,1.03664 c 0.623,0.0159 2.1474,1.20917 3.3873,2.65164 2.1525,2.50465 2.0379,2.74919 -2.5418,5.42018 -1.5809,0.9222 -4.7325,3.01117 -8.2814,5.46518 -1.3975,-2.12111 -2.8272,-4.28964 -4.2796,-6.49099 5.8903,-3.80835 11.1856,-7.05956 11.7155,-7.04601 z m -123.9426,3.55927 c 1.7261,0.0138 4.884,1.56463 12.502,5.68445 -1.6823,3.2419 -3.3311,6.41856 -4.9272,9.49102 -6.1395,-3.09285 -11.5496,-5.87723 -12.7245,-6.60201 -0.7392,-0.45625 1.1992,-5.01275 3.1812,-7.47828 0.5532,-0.68799 1.0645,-1.1024 1.9685,-1.09518 z m 132.1619,6.68666 c 0.6872,0.0182 1.26,0.34065 1.9207,0.91809 2.014,1.76057 2.7437,1.52216 -10.5788,13.00948 -1.3267,-2.02049 -2.7077,-4.1209 -4.1319,-6.28509 3.1965,-2.09191 5.9664,-3.93403 7.463,-4.97227 2.7185,-1.88575 4.1817,-2.70047 5.327,-2.67021 z m -24.5434,-0.18619 c 1.4796,2.26234 2.935,4.48623 4.3571,6.65735 -0.9343,0.66562 -1.8629,1.33353 -2.7664,1.99026 -5.9307,4.31119 -11.1714,7.82861 -11.6468,7.81645 -0.475,-0.0122 -1.4964,-1.50968 -2.2691,-3.32762 -1.1355,-2.67101 -0.9559,-3.66884 0.9349,-5.20281 1.8431,-1.49506 6.4487,-4.66498 11.3903,-7.93363 z m -89.5444,2.17168 c 6.2973,3.29926 11.563,5.75556 12.4825,5.77907 2.3981,0.0613 2.4481,1.03126 0.3438,6.60538 -0.8807,2.33295 -2.0478,4.23042 -2.5932,4.21647 -0.3568,-0.009 -7.5458,-3.51032 -15.1915,-7.3216 1.6107,-3.01156 3.271,-6.11836 4.9584,-9.27932 z m 121.6639,4.52519 2.2807,3.68358 c 2.2757,3.67448 2.2685,3.6939 -3.1237,8.19932 -1.6254,1.35804 -4.6183,3.89551 -8.0193,6.79522 -1.5927,-2.44315 -3.3603,-5.14483 -5.2644,-8.04887 4.6299,-3.57597 8.5982,-6.60403 10.0887,-7.68933 z m -147.0776,-2.57597 13.4133,7.44362 c -1.3057,2.51196 -2.5704,4.94297 -3.7827,7.27008 -7.7964,-3.63734 -14.693,-7.13394 -14.6573,-7.72046 0.029,-0.47292 1.1718,-2.23951 2.5399,-3.92629 z m 122.0635,6.7303 c 1.5689,2.39201 3.0869,4.70258 4.5397,6.91067 -1.0594,0.91025 -2.1847,1.87648 -3.3795,2.903 -6.1243,5.26205 -11.4811,9.56586 -11.9033,9.55507 -0.4223,-0.007 -1.7048,-2.11334 -2.8495,-4.68134 l -2.0816,-4.66893 11.3131,-7.21759 c 1.4147,-0.90253 2.891,-1.85088 4.3611,-2.80088 z m -103.2689,3.7039 c 11.2029,6.277 15.2762,9.22532 14.9392,10.75948 -0.2658,1.2127 -1.3967,2.30893 -2.5136,2.43612 -1.0355,0.11792 -8.3089,-2.89049 -16.0715,-6.38675 1.1709,-2.18579 2.3902,-4.46237 3.6459,-6.80885 z m 137.4463,4.63053 c 0.7818,-0.0108 1.3165,0.33704 1.9026,0.89539 2.1349,2.03385 1.8798,2.49803 -3.8351,6.97409 -1.9909,1.55934 -5.7373,4.55878 -9.8907,7.91202 -1.0496,-1.64769 -2.4014,-3.74411 -3.9999,-6.20676 10.2122,-7.178 13.8249,-9.54706 15.8231,-9.57474 z m -161.7251,-3.74044 c 0.1101,0.006 0.2154,0.0245 0.3153,0.0572 0.9042,0.29561 6.461,2.92977 13.266,6.27314 -1.3345,2.55813 -2.594,4.96784 -3.7618,7.19514 -6.4531,-3.71454 -12.3025,-6.91525 -14.2575,-7.66164 -1.962,-0.74904 2.1982,-5.97863 4.438,-5.86381 z m 134.0421,5.28476 c 1.9731,2.993 3.8033,5.7594 5.4518,8.2377 -1.5368,1.31514 -3.0783,2.63676 -4.5479,3.90027 -6.2522,5.37462 -11.6045,9.76585 -11.8972,9.75836 -0.2913,-0.007 -1.4893,-2.16635 -2.6625,-4.7975 l -2.133,-4.78346 13.1168,-10.23481 c 0.8867,-0.69193 1.7811,-1.38814 2.672,-2.08056 z m -115.0611,3.71765 c 8.6351,4.29541 16.1014,7.94338 16.7181,8.16655 0.6295,0.22787 -0.3325,4.94688 -2.1384,10.48662 -1.8058,5.53984 -3.6939,10.51007 -4.1956,11.04502 -0.8412,0.89671 -4.5991,-0.9558 -20.6421,-10.55691 1.011,-1.89185 2.444,-4.56508 4.1995,-7.83942 16.6178,9.40604 20.0625,10.42155 19.0241,7.01797 -0.1992,-0.65322 -8.3717,-5.73527 -16.9923,-10.80786 1.2378,-2.30858 2.5881,-4.82734 4.0267,-7.51197 z m -25.6095,0.5914 c 1.0196,0.0503 2.5091,0.87138 5.4648,2.59364 3.2793,1.91079 6.2577,3.63717 8.9592,5.19013 -1.6428,3.1182 -3.0359,5.74023 -4.1153,7.73715 -0.5574,-0.33578 -1.1273,-0.67917 -1.7089,-1.03002 -7.1223,-4.29598 -12.9295,-8.42216 -12.8714,-9.16872 0.043,-0.74686 0.9366,-2.43205 1.9863,-3.74505 0.8521,-1.06578 1.3857,-1.6215 2.2853,-1.57713 z m 148.075,6.85636 c 1.733,2.59039 3.1995,4.75753 4.3376,6.40458 -1.5708,1.27426 -3.1377,2.54844 -4.6335,3.76937 l -12.5199,10.21957 -2.1948,-3.54439 c -2.5547,-4.12512 -2.8317,-4.27983 15.0106,-16.84913 z m -1.822,50.76639 c 10.6532,-0.80943 20.0518,-0.64062 29.3327,0.63176 l -0.8852,19.57534 -0.4608,18.01988 -9.1954,0.63175 v -0.002 c -5.0577,0.34741 -11.4428,0.58356 -14.1896,0.51332 l -4.9942,-0.11583 0.047,-19.37758 c 0.026,-10.65783 0.1815,-19.60206 0.3466,-19.87653 z" transform="translate(93.397807,-275.43126) translate(-3435.491,-35.02009)"/>
</svg>
