<?xml version="1.0" ?><svg xmlns="http://www.w3.org/2000/svg" width="167.96858mm" height="551.11005mm" viewBox="0 0 167.96858 551.11005">
    <path d="m -3402.0614,-1700.9262 c -2.4723,0 -6.1487,1.1336 -9.2506,2.0433 -5.5144,1.6173 -11.9805,6.0093 -12.0685,10.2903 -0.088,4.281 2.52,8.4831 2.467,10.1162 l -9.7782,5.3433 -2.2376,12.621 10.0599,4.0591 -1.0568,25.7179 c 0,0 -0.3523,13.9845 0.9338,16.6641 1.2861,2.6795 3.8584,2.2832 7.9282,1.2526 4.0697,-1.0306 7.3814,-40.9867 7.3814,-40.9867 0,0 13.4076,-3.6632 14.3061,-3.6152 0.8984,0.048 -0.053,-16.1091 -0.053,-16.1091 l -10.2009,-3.5042 c 0,0 3.4708,-16.5693 4.3165,-21.1832 0.37,-2.0186 -0.8247,-2.708 -2.7476,-2.7094 z m 50.3091,129.0763 c -7.1372,0.1822 -17.0238,7.0079 -20.9171,9.523 -4.019,2.5962 -5.4246,13.1361 -5.6958,18.2841 -0.2712,5.148 4.9559,10.9397 4.7093,12.2045 -0.2465,1.2649 -4.7582,12.8479 -5.7691,15.1556 l -0.2729,2.1885 c -3.0884,-2.7053 -8.7368,-7.696 -10.7239,-10.1549 0,0 -4.7969,-2.0267 -7.9282,-2.0707 -3.1313,-0.044 -6.2875,3.9054 -9.8133,9.9188 -3.5258,6.0134 -3.7227,16.8861 -3.205,21.9676 0.5178,5.0814 8.309,26.1395 8.309,26.1395 0,0 -7.2736,15.8215 -7.5695,22.1899 -0.2959,6.3685 5.5968,5.7249 11.5636,6.9675 5.9668,1.2426 3.7479,8.033 3.5507,11.5388 -0.1973,3.506 -3.8668,10.8115 -4.5325,11.6769 -0.6657,0.8654 -15.2621,21.1468 -13.8814,28.314 1.3808,7.1673 11.0707,7.6109 11.0707,7.6109 0,0 1.8984,10.3629 0.1478,13.8023 -1.7506,3.4392 -3.9202,7.6331 -5.1284,11.2944 -1.2082,3.6611 -0.6501,8.267 -0.4775,16.2331 0.1726,7.9661 5.8927,8.432 5.8927,8.432 0,0 -0.8384,13.7797 -1.5534,16.9085 -0.7151,3.1287 -5.9915,32.8634 -8.4078,52.124 -2.4163,19.2607 2.418,40.4962 2.418,40.4962 l -10.0594,15.8213 -3.9207,2.6179 -0.2465,17.5302 -9.2211,2.5074 c 0,0 -3.2053,9.2528 0,20.1036 3.2053,10.8507 90.488,3.7502 106.0953,4.9263 15.6074,1.176 40.5101,-1.0652 40.9293,-4.549 0.4188,-3.4838 -0.099,-20.9026 -0.099,-20.9026 l -8.6785,-0.3328 0.2707,-18.0625 -4.364,-1.3312 -3.3156,-26.9017 c 0,0 -3.4113,-82.4951 -3.3373,-83.4936 0.074,-0.9986 -4.9804,-57.6711 -5.3009,-63.3739 -0.3205,-5.7027 4.3117,-3.0431 6.7034,-2.5993 2.3916,0.4438 13.2402,-18.0843 14.9412,-23.2767 1.7013,-5.1922 15.9686,-53.1285 15.9686,-53.1285 l -26.9984,-16.5979 -11.1202,24.2977 c 0,0 -12.6734,-19.7265 -13.6597,-22.0121 -6.5758,-13.9008 -5.6533,-26.2195 -7.1995,-43.3808 0,0 7.9891,-21.6348 9.6904,-24.8745 1.7013,-3.2397 -1.899,-19.0166 -2.9099,-21.4353 -1.0109,-2.4187 -18.0975,-12.0271 -25.2724,-12.2934 -0.2242,-0.01 -0.4514,-0.01 -0.6816,0 z m 9.7549,64.176 3.5445,12.8292 c -4.2122,-0.9932 -9.8267,-2.3227 -12.2235,-2.9327 -15.6537,-4.8249 -0.3578,-7.0889 8.679,-9.8965 z" fill="#FFFFFF" paint-order="fill markers stroke" transform="translate(78.9504,64.131261) translate(3359.3935,1643.3707)"/>
    <path d="m -3394.8961,-1707.4963 c -4.0983,-0.2452 -24.8241,7.5395 -28.0084,10.7299 -3.1861,3.1919 -4.9489,11.2146 -2.8339,12.8959 0.6844,0.5438 1.0692,2.4633 0.8557,4.2656 -0.3257,2.7352 -1.0443,3.2007 -4.3549,2.8083 -3.418,-0.405 -4.1527,0.1226 -5.3116,3.8261 -0.7396,2.3626 -1.473,7.0234 -1.6298,10.3574 -0.2798,5.9274 -0.161,6.1048 5.272,8.0026 4.6868,1.6375 5.4004,3.2539 5.4203,6.4312 -3.4325,2.0912 -4.5979,3.5023 -3.1907,6.3561 0.935,1.8771 1.0803,3.3391 0.3258,3.2498 -2.1032,-0.2491 -2.2044,4.6355 -0.1418,6.8064 1.3451,1.4149 1.3895,2.3419 0.1686,3.5012 -1.9698,1.8728 -0.5564,6.5712 2.4538,8.1554 1.1343,0.5967 1.4976,1.8533 0.8752,3.0359 -1.4302,2.7182 2.3484,7.7657 6.1512,8.2163 1.6877,0.1993 3.39,1.052 3.7804,1.8912 0.3906,0.8394 0.8493,10.7277 0.814,21.9741 -0.057,18.6976 -0.825,42.6598 2.9904,55.015 l 2.6615,8.6184 -3.0398,6.5945 c -4.5224,9.8155 -4.1699,26.3824 0.8178,38.465 l 3.6679,8.8877 -3.4142,7.3353 c -1.8782,4.035 -3.418,8.7345 -3.4279,10.4444 -0.038,6.588 6.6347,15.0991 12.1455,15.5141 4.9843,0.3756 2.7699,9.8742 -4.652,19.9564 -3.3425,4.5405 -7.1195,11.56 -8.3929,15.5992 -2.1477,6.8137 -2.1553,7.6764 -0.115,11.9555 1.4854,3.1156 3.7498,5.1731 6.9808,6.3411 4.6174,1.6698 4.757,1.9204 4.0257,7.2147 -0.4161,3.016 -2.2912,9.0425 -4.1664,13.3933 -2.9174,6.7696 -3.3394,9.4748 -2.9171,18.7738 0.4154,9.1452 0.9336,11.1571 3.2755,12.712 2.6814,1.7804 2.7239,2.2981 1.1465,14.3479 -0.8998,6.8754 -3.2251,20.5653 -5.1665,30.4223 -3.7281,18.9278 -4.7516,44.1271 -2.2339,54.9827 1.4762,6.3661 0.2376,9.1664 -8.6206,19.4751 -5.6874,6.6186 -6.1945,7.8002 -6.1945,14.443 0,6.1519 -0.4238,7.3682 -2.8281,8.1313 -3.7454,1.1887 -6.6364,8.4423 -6.6364,16.6506 0,7.013 2.3687,10.6092 6.0542,9.1952 1.6651,-0.6389 1.8782,-2.5884 1.1842,-10.7971 -1.0229,-12.1666 -3.2145,-9.8672 8.4642,-10.6148 5.1204,-0.3296 37.1161,-0.322 71.1032,0 l 51.1409,0.5012 c 13.4769,0.038 10.8181,-2.0162 9.8186,10.9392 -0.7231,9.3774 -0.5166,11.0682 1.5386,12.5713 5.8339,4.2656 8.1367,-1.0873 7.1276,-16.5676 -0.707,-10.8415 -2.487,-13.9559 -7.9772,-13.9559 -2.0889,0 -2.4457,-1.1895 -2.4457,-8.155 0,-5.7607 -0.5572,-8.3685 -1.9011,-8.884 -1.9476,-0.7473 -2.5508,-4.2971 -6.961,-41.041 -1.7885,-14.9025 -2.0165,-25.4319 -1.2593,-58.1337 0.8574,-37.0409 0.138,-53.741 -2.8182,-65.5244 -0.7293,-2.9057 -0.4073,-3.4778 1.9587,-3.4778 3.7307,0 8.649,-7.6373 12.3137,-19.124 2.1066,-6.6031 3.6146,-9.1829 5.6837,-9.724 2.2798,-0.596 2.6695,-1.4697 2.0457,-4.5883 -0.6152,-3.0762 -0.1764,-4.117 2.1824,-5.1667 2.0384,-0.9079 2.8405,-2.3154 2.5925,-4.5469 -0.1993,-1.7775 0.4247,-3.8914 1.9901,-4.57 1.4758,-0.6396 2.8324,-3.4505 0.053,-8.6747 0.4572,-2.061 1.5042,-5.0336 3.1459,-12.7023 2.192,-12.8526 6.3772,-10.9303 -2.4377,-18.7539 -6.1376,-5.4467 -18.2859,-11.9513 -23.3468,-12.5004 -2.9677,-0.3219 -4.0598,0.9347 -8.9513,10.3118 l -5.5687,10.6801 -3.5648,-6.0815 c -7.9047,-13.4887 -15.2163,-51.6931 -11.6465,-60.8567 3.2551,-8.3551 7.2165,-13.2094 10.805,-13.2389 9.8347,-0.081 12.1873,-3.8161 3.6717,-5.83 -4.616,-1.0918 -4.8608,-1.4157 -4.1113,-5.4341 1.0248,-5.4955 1.0555,-5.5196 10.2839,-8.3532 11.8841,-3.6495 11.2024,-4.9033 -2.0475,-4.4618 -8.7863,0.2912 -9.5968,3.3991 -13.9123,-3.858 -3.6494,-6.1369 -0.8664,-6.1051 3.6992,-10.987 12.7991,-13.6842 10.9093,-16.7128 -3.5842,-5.743 -8.8119,6.6699 -8.8651,6.6876 -13.5478,4.7313 -2.5856,-1.0804 -5.9373,-1.9649 -7.4479,-1.9649 -2.5313,0 -2.747,-0.8445 -2.747,-10.7352 0,-5.9047 -0.5672,-11.0863 -1.2593,-11.514 -0.2375,-0.1456 -0.4533,-0.249 -0.6538,-0.2951 -1.4018,-0.318 -2.031,2.207 -3.6835,12.7081 l -1.6808,10.2651 c -3.9446,0.7013 -7.5442,1.3819 -12.0847,3.6272 -0.3257,0 -3.17,-3.3467 -6.325,-7.4365 -6.4704,-8.3865 -9.972,-9.8661 -8.1275,-3.436 0.6304,2.1993 2.6779,6.5674 4.5508,9.7079 l 3.4061,5.7093 -3.2953,3.9154 c -1.8115,2.153 -3.2935,4.8516 -3.2935,5.9963 0,1.5321 -0.8032,1.8376 -3.0416,1.1566 -15.8058,-4.8087 -20.1722,-3.2525 -8.9433,3.1865 3.9886,2.2875 8.0139,4.1637 8.9433,4.1707 1.0151,0 1.6892,1.8317 1.6892,4.5687 0,4.2431 -0.4158,4.6722 -6.058,6.2519 -12.3344,3.4536 -10.8126,8.1907 1.5961,4.9689 3.866,-1.004 7.6607,-1.4355 8.4325,-0.9584 1.5145,0.9358 0.2529,6.852 -2.5921,12.1712 l -1.6241,3.034 -3.5943,-4.3013 c -2.1453,-2.5661 -5.4582,-4.6681 -8.2086,-5.2403 -5.7201,-1.1899 -5.5526,-5.5329 -6.4758,-10.1174 -3.59,-17.8223 -5.3449,-64.8209 -3.044,-84.237 1.0309,-8.6973 0.8995,-12.4005 -0.5364,-15.0727 -1.0475,-1.9487 -1.933,-6.4113 -1.9668,-9.9178 l -0.061,-6.3746 5.86,0.038 c 7.4639,0.042 10.1538,-1.741 10.7969,-7.1648 0.5227,-4.4113 -0.7695,-12.843 -2.3032,-15.0312 -0.4652,-0.6637 -2.7876,-1.4935 -5.1628,-1.8437 -5.461,-0.8051 -6.1607,-3.4264 -2.02,-7.5748 2.5665,-2.5715 3.4628,-5.1357 4.3213,-12.3794 0.5955,-5.0256 0.5469,-9.5644 -0.1073,-10.0841 -0.115,-0.092 -0.3143,-0.1418 -0.5879,-0.1609 z m -22.3129,13.7102 c 0.5288,0.057 0.4705,1.0252 0.039,3.3111 -0.4311,2.2652 -1.5386,4.0315 -2.4615,3.9231 -2.3173,-0.2722 -1.5569,-4.9279 1.0831,-6.6383 0.4576,-0.2951 0.8124,-0.4931 1.0795,-0.5664 0.099,-0.038 0.1877,-0.038 0.2645,-0.038 z m 6.2918,2.0319 c 0.088,0 0.1724,0 0.2529,0.038 0.4668,0.1802 0.7155,0.9946 0.5802,2.135 -0.1801,1.5203 -0.9331,2.6918 -1.6712,2.604 -0.7385,-0.088 -1.2391,-1.0293 -1.1129,-2.0931 0.1264,-1.0638 0.8768,-2.2353 1.6693,-2.604 0.099,-0.046 0.1955,-0.073 0.2835,-0.081 z m -3.0635,10.7119 c 0.6116,0 1.2534,0.042 1.8892,0.096 2.542,0.2184 4.9735,0.7787 4.8915,1.4712 -0.084,0.7009 -0.9347,1.4176 -1.8916,1.5923 -7.9959,1.4623 -10.3087,0.7875 -8.5531,-2.4933 0.2682,-0.5016 1.8287,-0.6944 3.664,-0.6672 z m -5.5672,8.1175 c 1.4544,0.1723 1.8361,1.7298 1.3767,5.6085 -0.6432,5.4252 -2.5616,6.9547 -3.5986,2.8672 -1.0561,-4.1625 0.1418,-8.7226 2.2219,-8.4757 z m 22.4359,0.2298 c 0.1112,-0.038 0.2185,-0.038 0.3257,0 0.8535,0.23 1.572,2.2277 1.4517,5.8043 -0.1264,3.7882 -0.668,4.9198 -2.2618,4.7313 -1.5558,-0.1839 -1.9299,-1.657 -1.4474,-5.7292 0.3641,-3.0604 1.1661,-4.6202 1.9329,-4.8083 z m -30.7928,0.138 c 1.6218,0.1916 1.9993,1.5908 1.521,5.6285 -0.3488,2.9534 -1.242,5.2957 -1.9805,5.208 -0.7385,-0.088 -1.1681,-1.6184 -0.9565,-3.4042 0.2107,-1.7854 0.1302,-4.2446 -0.1802,-5.4656 -0.3717,-1.457 0.1802,-2.1345 1.5962,-1.9667 z m 16.9538,0.053 c 1.7855,0.2262 1.7249,2.4025 -0.1303,7.046 -1.7145,4.2956 -3.249,3.3494 -3.2398,-2 0,-3.636 0.5619,-4.757 2.4895,-5.0245 0.3296,-0.046 0.6239,-0.053 0.8791,-0.038 z m 5.9312,0 c 0.1725,-0.038 0.3564,-0.038 0.5545,0 1.5954,0.1878 1.8625,1.0302 1.0041,3.1805 -0.6423,1.6087 -1.2643,3.6785 -1.3842,4.6005 -0.1189,0.9217 -0.8225,1.6043 -1.5606,1.5169 -0.7383,-0.088 -1.0925,-2.2733 -0.7863,-4.8578 0.3564,-3.0033 0.9642,-4.294 2.1725,-4.4439 z m -12.8507,18.9165 c 0.6654,0 1.5586,0.1034 2.747,0.2452 4.3683,0.5173 4.7213,0.8864 4.2933,4.4971 -0.3602,3.0578 -1.1497,3.9507 -3.5368,4.0063 -1.9449,0.046 -3.1045,0.9427 -3.1627,2.4438 -0.05,1.3041 -0.3488,2.3399 -0.6577,2.3031 -0.7588,-0.088 -1.1676,-2.5289 -1.4555,-8.6796 -0.1801,-3.8456 -0.2222,-4.8102 1.7724,-4.8144 z m 3.2161,17.3776 c 0.2989,-0.088 0.5955,0.1686 0.8596,0.8397 0.4356,1.1094 0,4.6822 -0.9328,7.9392 -1.8621,6.3953 -2.2672,6.2772 -1.9606,-0.5721 0.2031,-4.5566 1.1355,-7.9373 2.0338,-8.2068 z m -6.1271,18.9543 c 1.1513,0.1341 2.0243,0.8496 1.9369,1.5881 -0.088,0.7385 -0.7293,1.2766 -1.4241,1.1941 -0.6948,-0.081 -1.5639,-0.7978 -1.9326,-1.5903 -0.3678,-0.7922 0.2682,-1.3284 1.4198,-1.1919 z m 66.9364,50.2733 c 2.1031,0 3.3804,0.7661 3.3804,2.0281 0,2.0276 -4.1572,2.8274 -5.858,1.1266 -1.8379,-1.8379 -0.8048,-3.1547 2.4776,-3.1547 z m 11.9416,0 c 2.855,0 3.6207,1.5019 2.1587,4.2342 -1.9127,3.5736 -3.9606,3.1325 -3.9606,-0.8537 0,-1.9151 0.7807,-3.3805 1.8019,-3.3805 z m -20.8493,1.521 c 0.4085,-0.038 0.8128,0.073 1.1347,0.3963 0.4583,0.4583 0.184,1.4834 -0.614,2.2794 -0.9707,0.9707 -1.7263,0.9944 -2.2969,0.073 -0.7201,-1.1653 0.5514,-2.6308 1.7762,-2.747 z m -7.0322,5.6461 c 0.2989,0.066 0.3921,0.5169 0.3921,1.3766 0,2.5234 -2.2051,4.1733 -3.2716,2.4476 -0.415,-0.6714 0.1532,-1.9725 1.2596,-2.8914 0.8182,-0.6791 1.321,-0.9983 1.6199,-0.9328 z m 37.1261,1.1367 c 0.5399,0.1417 1.1041,0.6932 1.8455,1.6973 1.0413,1.4106 1.572,3.0849 1.1804,3.7191 -1.068,1.7284 -2.7228,1.3965 -4.6558,-0.9327 -1.365,-1.6452 -1.3819,-2.4293 -0.077,-3.7173 0.6481,-0.6392 1.1651,-0.9082 1.705,-0.7664 z m -25.3983,2.9964 c 0.8994,-0.077 1.8958,-0.065 3.0218,0.039 1.5014,0.1303 3.2324,0.4151 5.2677,0.8378 7.5619,1.5696 15.5264,6.8048 15.5264,10.2067 0,1.4529 -1.4052,1.2574 -6.4224,-0.8932 -3.5319,-1.5138 -7.3814,-3.6212 -8.5551,-4.6834 -3.1972,-2.893 -5.3851,-2.376 -11.9142,2.814 -3.2646,2.5952 -6.2212,4.717 -6.5687,4.717 -1.27,0 1.2837,-7.4996 3.3248,-9.7649 1.7996,-1.997 3.6211,-3.0397 6.3197,-3.2697 z m -15.6807,3.7924 c 0.1916,0.099 0.2491,0.6886 0.2491,1.808 0,1.4873 -0.5902,3.6157 -1.3111,4.7313 -1.0848,1.6789 -1.3109,1.5636 -1.3109,-0.6756 0,-1.4869 0.5904,-3.6177 1.3109,-4.7328 0.5427,-0.8397 0.8696,-1.2299 1.0616,-1.1309 z m 21.0175,4.8834 c 0.9358,-0.2606 1.5203,0.092 2.2143,0.9289 2.3254,2.8022 12.9641,8.8384 15.5773,8.8384 1.6801,0 2.1085,1.0557 1.7866,4.3944 -0.2453,2.5476 -0.492,3.5628 -1.1278,5.2091 -4.7746,-1.5681 -7.7611,3.0712 -3.0731,6.672 -0.5373,0.8768 -1.0301,1.8165 -4.6197,5.3659 -4.4053,4.3561 -6.7271,5.3965 -10.6108,5.3965 -7.9849,0 -13.5615,-7.4253 -15.9816,-21.2831 -0.6511,-3.7272 -0.2146,-4.7336 2.9171,-6.6953 2.0253,-1.27 5.8928,-4.007 8.5946,-6.0818 2.1001,-1.6126 3.3877,-2.4848 4.3231,-2.745 z m 25.1588,0.3028 c 0.7875,0 1.4316,0.6088 1.4316,1.3528 0,0.7434 -0.2682,1.3523 -0.5959,1.3523 -0.3296,0 -0.9726,-0.6089 -1.4317,-1.3523 -0.4594,-0.744 -0.1916,-1.3528 0.596,-1.3528 z m -31.385,8.462 c -0.299,0 -0.5887,0.084 -0.8516,0.2452 -1.6324,1.009 -1.9996,5.195 -0.5801,6.6144 1.6199,1.6199 4.5722,0.9493 5.4084,-1.2297 0.8569,-2.2339 -1.8717,-5.6756 -3.9767,-5.6304 z m 9.8382,1.1208 c -1.3927,1.6732 -1.5119,3.7408 -0.1342,5.335 0.7998,0.9262 1.9544,1.1948 3.0405,1.3074 2.2729,0.2339 2.7013,-4.0897 0.8753,-6.2579 -1.1348,-1.3479 -2.4595,-1.9714 -3.7805,-0.3845 z m -46.0273,13.4014 c 0.7121,0 2.9903,2.8884 5.0636,6.4202 6.6834,11.3844 4.4914,28.0133 -7.2598,55.0544 -3.2222,7.4143 -5.858,14.2211 -5.858,15.1278 0,2.0119 -2.0062,3.408 -3.1922,2.222 -2.4182,-2.4179 0.4802,-12.3629 6.0299,-20.6927 5.4311,-8.1512 12.2774,-38.4814 8.1038,-35.9024 -0.6742,0.417 -0.5948,-1.3034 0.18,-3.8218 1.6866,-5.4951 0.3105,-14.1997 -2.4081,-15.2428 -2.1836,-0.8382 -2.6669,-3.1647 -0.6572,-3.1647 z m 42.4965,2.7033 c -3.3635,0 -5.2229,1.9295 -3.9092,4.0556 1.1988,1.94 5.4916,1.6671 7.2583,-0.4614 1.8812,-2.2671 0.645,-3.5942 -3.3491,-3.5942 z m -23.1739,1.6157 c 0.2376,-0.092 0.6143,0.1456 1.1662,0.699 0.8274,0.8274 1.2692,2.2046 0.9841,3.06 -0.6718,2.0154 -2.489,0.1993 -2.489,-2.4894 0,-0.7611 0.099,-1.1796 0.3371,-1.2696 z m -31.0584,4.468 3.2973,7.4004 c 3.1298,7.0203 3.191,7.6289 1.1665,11.8742 -4.3822,9.1898 -1.6586,11.45 4.0618,3.3709 1.9739,-2.7888 3.134,-3.8537 2.5783,-2.3668 -0.5553,1.4873 -2.202,5.7465 -3.6594,9.4641 -3.3543,8.5555 -3.3927,8.5842 -5.1827,3.9054 -3.0268,-7.9098 -4.314,-17.9897 -3.2935,-25.7802 z m 72.5014,4.7446 c 0.4423,0 0.9286,3.6572 1.0792,8.1118 0.1494,4.4546 -0.038,8.0976 -0.394,8.0976 -0.3678,0 -1.7865,-2.5849 -3.1527,-5.745 -2.24,-5.1801 -2.2791,-5.9787 -0.4101,-8.1117 1.1405,-1.301 2.435,-2.3595 2.8776,-2.3527 z m -41.4016,0.1418 c 0.581,0.138 1.554,0.9505 2.909,2.4477 3.9169,4.3285 2.9739,17.1957 -2.6852,36.637 -2.7002,9.2757 -5.2387,20.0147 -5.64,23.8635 -0.6062,5.8104 -1.585,7.8346 -5.7747,11.9259 -4.8643,4.7493 -5.0747,4.8194 -5.8285,1.9365 -0.5411,-2.0702 1.5126,-7.2887 6.6739,-16.9539 10.7594,-20.1473 15.1477,-42.597 10.7417,-54.9433 -1.2458,-3.49 -1.3647,-5.141 -0.3962,-4.9134 z m 7.3077,6.0999 6.3926,3.7449 c 3.516,2.0602 8.9341,4.5112 12.0405,5.4437 3.6265,1.0887 5.4951,2.3771 5.2203,3.6023 -0.2338,1.0496 -3.8779,8.2297 -8.0937,15.9559 -4.7846,8.7682 -10.8239,17.4072 -16.0729,22.9842 -9.8615,10.4786 -10.3424,9.6394 -4.9942,-8.6999 4.7598,-16.3216 7.1618,-30.7017 6.2559,-37.4545 z m 24.8989,0.6258 c 0.8032,0.157 1.2661,0.773 1.7011,1.9068 0.8404,2.1898 0.5625,2.2385 -4.5447,0.816 -2.9711,-0.8274 -3.0818,-1.0566 -0.9051,-1.8932 1.8011,-0.6921 2.9458,-0.9883 3.7487,-0.8296 z m -36.3317,0.1801 c 0.207,-0.1379 0.5745,0.407 1.2378,1.5485 3.1548,5.43 -2.0698,29.7119 -10.1473,47.1567 -2.6684,5.7625 -5.1908,10.478 -5.6047,10.478 -2.6258,0 -1.6678,-5.6219 2.6853,-15.7558 5.1003,-11.872 11.4844,-34.4405 11.5596,-40.861 0,-1.6019 0.061,-2.4269 0.2682,-2.5664 z m 39.0092,11.5197 c 0.23,0.038 0.4243,0.2759 0.604,0.7289 1.3367,3.3673 -2.7649,12.5847 -14.2111,31.9272 -9.8243,16.6029 -23.689,35.3008 -38.1933,51.5096 -9.847,11.0043 -13.9912,18.9888 -11.8922,22.9107 2.2319,4.1698 -2.0097,3.6836 -4.7823,-0.5484 -4.8217,-7.3583 3.5813,-21.5687 25.614,-43.3166 8.286,-8.1791 17.2849,-17.6103 19.9977,-20.9563 6.0393,-7.4499 15.5104,-24.8046 19.5284,-35.7851 1.6805,-4.593 2.6512,-6.5451 3.3348,-6.47 z m 4.8103,4.9014 c 0.3994,0.077 0.4702,1.249 0.1112,3.6319 -1.6591,11.0081 -21.9588,46.8583 -48.949,86.447 -5.8295,8.5513 -10.9671,15.9839 -11.417,16.5163 -0.4496,0.5326 -1.4754,-1.1336 -2.2791,-3.7013 -1.7766,-5.6755 -0.566,-7.9059 11.7137,-21.574 18.4492,-20.535 39.2567,-53.1724 46.5607,-73.0322 2.0161,-5.482 3.5938,-8.4122 4.2595,-8.2877 z m 2.9903,6.9352 0.088,10.817 c 0.1304,15.8766 -10.2221,69.7683 -17.3995,90.5778 -7.4334,21.5526 -19.6265,46.1782 -29.4558,59.4864 -6.9073,9.3518 -23.3368,25.5358 -23.3368,22.9881 0,-0.4844 1.2676,-9.8098 2.8182,-20.7225 2.9658,-20.8753 5.615,-28.7572 21.0651,-62.6867 3.2815,-7.207 6.6252,-16.8431 7.4303,-21.4138 1.178,-6.6865 3.6863,-11.9175 12.8445,-26.7782 12.0985,-19.6307 19.238,-33.3911 23.3921,-45.0852 z m 34.0074,10.897 c 1.5095,0.4297 18.6541,11.5857 20.845,14.0061 2.3608,2.6086 2.3623,3.0471 0.054,11.5696 -2.2224,8.2102 -2.6539,8.8303 -5.9094,8.4996 -2.8906,-0.2952 -3.4915,0.1916 -3.3984,2.7427 0.081,2.1882 -0.4679,2.8776 -1.8613,2.343 -3.4904,-1.3398 -5.7105,1.7509 -4.1769,5.8143 1.0976,2.9071 1.0295,3.2827 -0.3448,1.923 -4.4922,-4.4466 -5.3743,1.9107 -1.2121,8.7372 l 2.648,4.343 -3.6679,9.0721 c -3.8954,9.6369 -4.5052,10.1895 -9.6603,8.7609 -2.8147,-0.7799 -4.0039,-3.1504 -8.2343,-16.4189 l -4.9447,-15.5083 2.594,-6.0837 c 4.6906,-11.0043 14.118,-36.1308 14.9825,-38.0967 0.5059,-1.1505 0.7148,-2.1507 2.2844,-1.7039 z m -28.9692,1.2705 0.9642,7.7193 c 0.5304,4.2453 0.5055,11.8492 -0.053,16.8987 -1.8686,16.8288 -0.8515,50.0091 2.1844,71.3111 2.9132,20.4439 3.5176,32.658 2.0437,41.2924 -0.6016,3.5234 -1.8939,5.2912 -5.0559,6.9196 -2.3358,1.2025 -10.4877,5.5429 -18.1166,9.6461 -7.6287,4.1031 -14.8771,8.2918 -16.1061,9.3058 -2.0644,1.7035 -2.169,0.6645 -1.3585,-13.5853 0.8503,-14.9492 1.0838,-15.8521 7.5173,-29.0657 11.8707,-24.3811 17.4854,-45.0208 22.6494,-83.2628 1.9579,-14.4993 3.9587,-28.7966 4.4461,-31.7708 z m 5.858,12.2405 c 0.6799,-0.42 2.5465,1.3539 4.1469,3.943 2.8818,4.6627 2.8857,4.7842 0.4909,12.8507 -1.3294,4.4791 -2.8118,8.145 -3.2931,8.145 -2.3073,0 -3.5777,-23.5587 -1.3447,-24.9387 z m -2.5706,41.8374 3.3271,12.1674 c 7.7488,28.3417 12.8196,61.5209 12.8645,84.1577 v 7.0977 h -8.1117 c -4.4615,0 -8.1117,-0.1916 -8.1117,-0.422 0,-0.2337 1.1496,-2.8171 2.553,-5.7449 1.4029,-2.9282 3.3248,-11.7251 4.2714,-19.5483 1.6352,-13.514 1.5448,-15.2347 -1.8299,-34.4741 -1.9533,-11.1377 -3.8717,-25.4212 -4.2637,-31.7413 z m -54.3076,16.6508 c 0.3526,0.3218 -1.2891,4.3404 -4.0441,9.7871 -3.1482,6.2248 -9.5189,20.7428 -14.1575,32.2602 -7.2736,18.0595 -8.5624,20.4293 -9.3672,17.2233 -1.6306,-6.4964 0.038,-18.2035 3.0597,-21.5169 1.5222,-1.667 4.0276,-5.9292 5.5667,-9.4721 2.9179,-6.7153 15.2692,-25.3684 18.665,-28.1866 0.1341,-0.1112 0.2261,-0.1418 0.2759,-0.096 z m 12.4702,70.0419 -0.8316,13.4347 c -0.4584,7.3889 -1.0604,14.1724 -1.3368,15.0745 -0.2758,0.9022 1.0302,2.8458 2.9034,4.3193 2.7703,2.1791 3.1443,3.1686 2.0061,5.2955 -2.5603,4.7833 -20.9305,20.8393 -32.2226,28.1627 -6.1278,3.9741 -11.7673,7.2246 -12.5318,7.2246 -0.7615,0 -1.1107,-1.3688 -0.7703,-3.042 0.341,-1.6732 0.9898,-7.3012 1.4455,-12.5062 1.5838,-18.0939 2.6677,-20.3913 13.3895,-28.3785 10.4272,-7.768 15.2842,-12.6116 22.9682,-22.9089 z m 40.0887,8.1094 c 0.7025,0.1801 0.3717,1.3275 -1.2435,2.9428 -0.8922,0.8925 -2.1086,1.6218 -2.7034,1.6218 -1.9919,0 -1.1094,-2.0349 1.6219,-3.7407 1.1102,-0.6932 1.9034,-0.9327 2.325,-0.8239 z m -8.8345,6.2638 c 1.8295,0.3372 2.0207,4.1599 1.3309,14.1992 -1.1833,17.2202 -1.1462,42.8702 0.099,70.9629 l 1.006,22.6455 h -3.9687 c -2.1821,0 -4.2504,-0.458 -4.5964,-1.0182 -0.3449,-0.56 -0.081,-9.8382 0.5883,-20.6175 0.6687,-10.7794 1.1569,-34.1395 1.0868,-51.9135 -0.1112,-28.3786 0.1379,-32.4645 2.0498,-33.5334 1.0021,-0.561 1.7924,-0.8373 2.4021,-0.725 z m -8.557,3.7016 c 0.322,-0.057 0.5358,-0.05 0.6159,0.038 0.6564,0.727 -1.2736,68.9831 -2.5508,90.2099 l -0.8339,13.8567 -3.5862,-0.2377 c -1.9733,-0.1302 -6.242,-0.4717 -9.4841,-0.7607 l -5.8936,-0.5245 0.8696,-20.5325 c 0.4782,-11.2925 1.5421,-28.4115 2.3645,-38.0411 1.3658,-15.9947 1.8367,-17.9787 5.4441,-22.9582 3.0883,-4.2634 3.8624,-6.6337 3.5528,-10.8821 -0.3679,-5.0291 -0.038,-5.6304 4.5703,-8.1037 2.0492,-1.1021 3.9664,-1.8916 4.9314,-2.0675 z m 12.4701,0.3143 3.4065,1.5367 c 3.1501,1.4217 3.3509,2.0483 2.6653,8.2979 -1.3822,12.6039 -2.2752,74.3207 -1.1623,80.3335 0.6086,3.2876 1.7441,6.1906 2.5232,6.4501 0.968,0.3219 1.2282,-8.0459 0.8235,-26.4675 -0.3257,-14.8169 -0.1456,-35.8522 0.3982,-46.7426 0.8679,-17.3644 1.2638,-19.7399 3.2122,-19.3107 1.2221,0.2682 2.0092,1.3665 1.7505,2.4377 -1.2903,5.3413 -1.8325,45.8853 -0.6139,45.8853 0.7899,0 1.715,-8.4846 2.2476,-20.6178 1.0497,-23.8787 1.5866,-26.7011 5.08,-26.7011 2.1822,0 2.5646,1.112 2.6834,7.7748 0.077,4.2757 0.2951,17.8111 0.4871,30.08 0.3334,21.2839 2.2518,47.0167 4.2082,56.4425 l 0.9132,4.3944 h -6.0661 -6.0638 l -0.8515,-7.0977 c -0.469,-3.9039 -0.8553,-12.4555 -0.8656,-19.0056 0,-7.5924 -0.5006,-11.6071 -1.3624,-11.0744 -0.793,0.4901 -1.3524,8.3501 -1.3524,19.0056 v 18.1721 h -5.4085 -5.4065 l -0.1456,-17.9126 c -0.081,-9.8524 -0.3602,-33.2065 -0.624,-51.8975 z m -27.0177,7.866 c 0.689,0.1226 1.2236,0.7737 1.2236,1.8893 0,1.0715 -0.5652,2.297 -1.2577,2.7251 -1.6072,0.9933 -3.2233,-1.5394 -2.1208,-3.3233 0.6216,-1.0056 1.4651,-1.4126 2.1549,-1.2911 z m -4.3929,20.8949 -1.8337,8.787 c -1.0087,4.8332 -2.6002,21.4119 -3.5368,36.8405 l -1.7031,28.052 h -3.2103 c -2.4157,0 -3.0381,-0.5836 -2.5227,-2.3645 0.3756,-1.3014 1.042,-6.6259 1.4793,-11.8308 0.4368,-5.2046 1.8118,-19.1509 3.0554,-30.9925 1.9296,-18.3727 2.701,-22.0428 5.2659,-25.0124 z m -9.5906,9.3829 c 0.1878,0.1725 -0.9205,6.3413 -2.4618,13.7141 -2.4707,11.819 -5.2288,36.245 -5.2916,46.8652 0,2.3044 -0.7538,3.7173 -1.9468,3.7173 -1.5846,0 -2.0035,-4.7128 -2.3702,-26.6992 l -0.4457,-26.7011 6.0898,-5.6028 c 3.3483,-3.0819 6.2393,-5.464 6.4263,-5.2935 z m -17.8789,15.7639 c 0.5208,0.345 0.5518,4.1646 0.5783,14.0586 0.038,8.9227 -0.345,20.3297 -0.8197,25.3489 l -0.8616,9.1252 h -5.7552 c -5.2402,0 -5.8887,-0.3794 -7.2399,-4.2557 -2.1322,-6.1162 -1.8813,-8.2044 1.7843,-14.8388 1.7976,-3.254 4.4753,-9.5657 5.9507,-14.0272 1.4758,-4.4611 3.6318,-10.2401 4.7907,-12.8426 0.7711,-1.7314 1.2601,-2.7756 1.5724,-2.5684 z m -9.1928,3.1011 c 0.1686,0.1687 -1.2214,5.2878 -3.0915,11.3772 -1.8698,6.0895 -3.9859,11.0725 -4.7014,11.0725 -0.7155,0 -1.301,-4.2871 -1.301,-9.5277 0,-9.4699 0.038,-9.5405 4.3944,-11.3772 2.4166,-1.0168 4.5305,-1.7127 4.6995,-1.5448 z m -11.0645,37.3199 c 0.3027,0 1.4922,1.8253 2.6458,4.0561 l 2.0974,4.0556 h -5.5334 -5.5349 l 2.8872,-4.0556 c 1.5885,-2.2308 3.1359,-4.0561 3.4379,-4.0561 z m -11.3453,14.2886 c 0.2605,-0.2223 18.7243,0.061 41.0311,0.6296 22.3067,0.5665 49.7429,0.6956 60.9698,0.2874 13.5301,-0.4901 20.7076,-0.2606 21.287,0.6772 0.4806,0.7779 0.5273,3.1485 0.1035,5.2697 l -0.7723,3.858 h -60.6724 -60.6744 l -0.8715,-5.161 c -0.4798,-2.8385 -0.66,-5.3421 -0.4001,-5.5628 z" transform="translate(78.9504,64.131261) translate(3359.3935,1643.3707)" fill="#000000"/>
</svg>