<?xml version="1.0" ?><svg xmlns="http://www.w3.org/2000/svg" width="161.146mm" height="199.72694mm" viewBox="0 0 161.146 199.72694">
    <path d="m 1380.5837,625.40485 12.6126,-0.22611 0.038,-9.16067 15.5009,0.69052 -0.6923,6.9108 62.1368,0.26469 35.4623,0.53549 2.8561,78.57348 1.0182,79.01316 2.4501,-5.62784 2.8061,5.24508 c 0,0 3.3806,-9.06907 4.8087,-10.46134 1.4279,-1.39225 2.2473,5.26715 2.2473,5.26715 0,0 2.7344,-7.0361 4.8764,-6.28642 2.1421,0.7497 2.0352,2.86352 1.4006,5.79084 -0.6348,2.92731 -0.013,6.92665 -0.7667,9.17572 3.604,-1.12968 0.022,9.45781 -0.9909,14.02103 -0.4363,2.14193 -5.1963,11.31659 -5.1963,11.31659 -13.673,-1.21463 -78.5456,-0.69516 -116.1436,-0.57354 l -24.4764,0.0381 c 0,0 -7.021,-7.42538 -7.6954,-9.38884 -0.6743,-1.96346 -0.7934,-3.24864 2.142,-3.10582 2.9353,0.1428 1.3903,-8.83531 1.2316,-10.29897 -0.1587,-1.46368 3.8337,-0.17893 3.8337,-0.17893 l -0.1465,-4.80125 z" fill="none" paint-order="fill markers stroke" transform="translate(269.34417,381.76177) translate(-1640.0804,-994.50479)"/>
    <path d="m 1400.6306,612.74463 c -0.5381,-0.004 -1.0785,0.0159 -1.6139,0.0588 -6.4989,0.52878 -7.6836,1.3875 -7.7752,5.64274 l -0.077,3.57718 -4.7402,-0.10333 c -2.6072,-0.0566 -6.6713,0.14372 -7.3193,0.37642 -0.4708,0.16897 -1.5377,1.46666 -1.4572,4.78326 0.1636,6.78127 -0.3839,22.58086 0.1568,47.40127 0.3306,15.21326 -0.3561,36.94377 -0.1193,48.18821 0.2371,11.2444 -0.5357,26.43816 -0.4484,40.61794 0.1135,18.43144 1.9225,20.18126 0.6389,20.55867 -1.7772,0.52251 -5.3592,1.99485 -2.5686,7.08879 1.0912,1.99184 0.7221,3.10018 -0.2364,2.80596 -2.0649,-0.63384 -3.2404,0.70312 -3.7003,1.838 -1.2252,3.02388 -0.8065,9.00042 2.416,12.56831 5.8902,6.53451 20.4447,3.72447 28.7082,3.71064 13.1066,-0.0227 34.1874,-0.0472 45.2108,-0.26144 11.0237,-0.21416 32.0514,-0.0547 47.0335,0.11393 14.9822,0.16873 22.9714,-0.10981 27.3083,-0.0663 2.2611,0.0227 4.1533,-2.14704 4.6941,-4.4124 1.1208,-4.69462 3.5243,-14.45181 4.5411,-18.51976 1.0513,-4.20686 0.7077,-6.94481 -0.9307,-7.41136 -1.5071,-0.42921 -1.5818,-0.86889 -0.9893,-5.7871 0.5287,-4.38931 0.4145,-5.5172 -0.6479,-6.43846 -1.1081,-0.96087 -2.1215,-1.71996 -3.4699,0.0881 -1.8446,2.20256 -1.2216,3.27552 -2.5778,0.60431 -1.3549,-2.66937 -3.9001,-2.19601 -5.3116,0.98701 -0.6716,1.51395 -1.1846,3.54354 -1.2593,4.50434 -0.1605,2.06488 -0.9259,4.34877 -1.6079,0.26641 -0.3054,-1.82792 -3.2226,-1.62203 -4.0284,-0.0868 -1.0823,2.06198 -2.4953,5.8266 -2.5792,9.35832 -0.029,1.21147 -0.4126,2.19483 -0.8532,2.18527 -0.4404,-0.009 -0.7935,-0.37741 -0.784,-0.81801 0.036,-1.67135 -3.2122,-0.77888 -4.6169,1.26868 -1.1659,1.69959 -1.5036,3.84251 -1.6465,10.43813 l -0.1794,8.29981 -4.8002,-0.39666 -3.6624,-0.34396 -0.5622,-16.40479 c -0.4625,-13.48376 -0.022,-26.63259 -0.2345,-34.7278 -0.045,-1.72264 1.547,-5.26285 1.8007,-7.13856 1.0608,-5.08012 -0.6071,-4.66168 -4.358,-7.94241 -2.6581,-2.32535 -3.2593,-3.51608 -4.1723,-5.64626 -0.8492,-1.98134 -1.1699,-3.2288 -8.705,-3.09367 -5.8501,-0.2688 -6.3465,-0.14058 -8.9237,3.34647 -1.1195,1.69105 -4.282,4.09168 -6.1106,5.4767 -3.044,2.30526 -3.3315,2.83608 -3.406,6.27766 -0.9271,4.07859 2.6761,5.85711 2.6298,8.15126 -0.148,3.9389 -0.2773,16.25049 -0.3339,23.82194 -0.102,13.65496 0.07,25.43748 0.3849,26.18452 0.5094,1.21202 0.8893,1.38105 -6.1415,1.45795 -4.3334,0.0475 -7.9586,0.0661 -8.0544,0.0411 -0.095,-0.025 1.8721,-2.64844 3.006,-5.24538 1.8807,-4.30736 2.9605,-5.18349 2.8334,-8.77404 -0.2339,-6.60569 -0.3435,-22.30841 -0.5942,-25.83978 -0.4236,-6.05728 -1.0703,-6.04316 0.1203,-7.51132 4.1988,-5.17587 5.0243,-8.27414 3.3968,-10.35275 -3.4072,-4.35165 -14.1488,-11.11961 -14.3457,-15.09819 0.025,-1.13518 -0.941,-2.44067 -3.8028,-2.93344 -3.911,-0.67334 -21.5136,-0.0962 -23.02,0.0796 -1.6829,0.19645 -1.8712,2.91751 -3.4112,4.86755 -4.5576,5.77021 -8.5054,9.28993 -11.7306,10.86475 -2.3349,1.13999 -3.0472,1.96667 -3.0819,3.57482 -0.059,2.69376 2.684,6.77865 6.3579,10.18459 1.8158,1.74933 1.8998,2.78722 1.8539,5.14751 l -0.2441,12.54544 c 0.093,12.45869 0.9358,15.86291 -0.3617,15.78154 -0.6838,-0.0429 -0.9909,-0.52049 -0.9577,-2.06087 0.061,-2.78876 -1.6517,-4.56563 -3.8869,-4.03256 -1.6071,0.38329 -0.4768,-1.99443 -2.2913,-6.19376 -2.9165,-6.74992 -6.0659,-7.05231 -10.8678,-3.43948 l 0.7376,-28.82377 c 0.3638,-16.79665 0.5198,-37.95245 0.346,-47.01267 l -0.3156,-15.91252 11.0894,0.0516 c 6.099,0.0282 22.0902,-0.0527 35.536,-0.17964 21.9316,-0.20689 73.6196,0.50039 73.7663,1.00932 0.032,0.11082 0.023,15.50704 -0.029,34.89926 -0.089,35.00245 1.2401,46.57169 1.1288,54.98825 0.2815,4.11936 1.9335,1.81597 2.96,-0.47969 0.886,-1.98129 3.2072,-9.44418 3.31,-40.76806 0.2249,-68.66536 -1.2454,-108.88009 -4.2132,-112.64333 -0.6959,-0.88247 -8.7875,-1.58933 -34.6408,-1.72501 -34.5255,-0.18123 -60.5552,0.26567 -62.7814,1.0762 -1.1735,0.42728 -1.4067,0.0577 -1.3686,-2.17469 0.025,-1.47909 -0.2088,-3.07644 -0.5232,-3.54903 -1.0733,-1.61747 -4.7271,-2.85983 -8.4923,-2.80962 z m -3.187,5.5712 5.1108,0.15466 c 3.7232,-0.12831 3.4468,0.90803 3.3665,3.5366 -0.059,1.9148 -0.1613,4.59068 -0.2885,7.51177 l -0.3215,7.38017 c 0.1135,3.1074 -0.2277,2.82693 -3.1178,2.79869 l -3.8191,-0.0372 c -2.9599,0.14897 -2.5513,-0.60317 -2.7584,-3.30241 -0.2113,-3.37679 -0.3498,-13.44461 -0.2957,-15.93461 -0.1886,-2.36441 -0.1068,-2.23632 2.1237,-2.10754 z m 14.1765,7.12587 c 1.7476,0.0379 1.7574,0.13921 1.8181,19.87283 0.034,10.90944 0.1589,22.81326 0.2793,26.45211 0.2135,6.4684 0.1794,6.61464 -1.6172,6.57576 -1.8322,-0.0398 -1.8376,-0.0792 -2.109,-15.87315 -0.1499,-8.70816 -0.2396,-20.61059 -0.1999,-26.44975 0.073,-10.44163 0.1,-10.61523 1.8285,-10.5778 z m 10.3492,0.15489 -0.5729,26.46737 -0.5273,24.32183 c 0.1908,2.54703 -0.382,2.13827 -2.6989,2.08804 -3.2865,0.246 -2.5716,-0.56518 -2.1126,-3.4516 0.7421,-4.67173 1.5993,-31.26846 1.3227,-41.04132 l -0.2276,-8.01932 2.4082,-0.18191 z m 3.0196,0.13376 c 1.9592,0.0425 2.0265,0.24248 2.4223,7.13911 0.6808,11.86305 2.3637,11.95853 3.3823,0.19123 0.5453,-6.29781 0.8074,-7.18716 2.1067,-7.15905 1.1986,0.0259 1.4846,0.68646 1.4893,3.43869 0,1.87331 0.2471,4.3127 0.541,5.42094 0.3884,1.46421 0.037,2.66156 -1.2827,4.37992 -2.7053,3.52157 -4.6491,7.45704 -4.1241,8.3491 0.2551,0.43335 1.3891,0.80758 2.521,0.8321 l 2.0585,0.0445 c -0.439,1.83672 -0.3105,3.7252 -0.3341,7.07645 -0.041,5.70204 -0.086,10.4609 -0.023,13.04503 0.038,1.51682 2.1244,1.00599 2.6308,1.30422 0.7838,0.46138 -0.1135,2.94866 -0.022,4.18141 0.2337,4.14952 -0.1045,4.06771 -2.6006,4.03606 -2.8857,0.0942 -2.9111,0.17465 -2.8516,-2.57707 l 0.1953,-8.98068 c 0.2423,-11.18668 -0.5635,-17.06841 -2.2075,-16.10083 -0.5232,0.30776 -0.7097,5.21856 -0.5271,13.89325 l 0.2368,11.23416 c 0.2113,2.15149 0.1091,2.16743 -1.8645,2.6497 -2.5752,0.75904 -2.7062,0.31254 -2.7621,-1.76234 -0.1,-3.95215 0.023,-12.73686 0.3409,-22.87418 0.6468,-20.37501 0.5957,-25.35206 -0.2734,-26.45095 -0.9485,-1.19909 -0.8408,-1.34961 0.9448,-1.31091 z m 68.3171,1.80243 0.1908,12.50395 c 0.1181,7.71576 0.5403,18.18255 0.94,23.25987 0.3997,5.0774 1.0013,10.5922 1.3367,12.25491 0.707,3.50339 0.2392,3.98434 -3.1499,3.22977 l -2.4751,-0.55159 0.1636,-8.51105 c 0.1657,-8.63291 -0.053,-18.21943 -0.7804,-34.17568 -0.1408,-3.09188 -0.2437,-5.85844 -0.2828,-7.48492 -0.2796,-1.86423 0.6607,-1.7442 2.0761,-1.87465 1.8293,-0.22688 1.9533,-0.4477 1.9808,1.34939 z m -52.9428,-1.4691 c 1.4809,0.0425 2.4941,-0.42683 2.5885,3.01391 -0.2858,4.86957 0.2553,5.06177 -2.5345,5.00186 l -2.6031,-0.0563 0.365,-3.99967 c 0.4306,-2.19498 -0.4658,-4.03563 2.1841,-3.9598 z m 43.1763,0.13377 c 2.2558,1.6e-4 2.6751,-0.41493 2.6944,1.80821 l 0.1453,16.88511 c 0.089,10.24949 0.4624,21.3475 0.8322,24.66117 0.3697,3.31369 0.8445,6.659 1.0551,7.43485 0.3186,1.1741 -0.1431,1.40032 -2.7521,1.3438 l -3.1359,-0.0681 -0.2782,-13.42968 c -0.1522,-7.38596 -0.5442,-16.1388 -0.8685,-19.4515 -0.3243,-3.3127 -0.5405,-8.99783 -0.4813,-12.63279 l 0.082,-4.97427 c -0.2434,-2.20565 0.8122,-1.61748 2.7073,-1.57683 z m -7.2741,-0.0304 c 1.1074,0.11832 1.1839,1.81023 1.4142,12.88631 0.1499,7.18719 0.5373,17.57148 0.8626,23.07562 0.325,5.50419 0.8673,11.37577 1.2052,13.04824 0.6125,3.03185 0.6068,3.04161 -1.9751,2.98568 l -2.5902,-0.0563 0.1181,-11.81829 c 0.064,-6.49978 -0.1817,-17.05348 -0.5483,-23.45234 -0.9625,-16.815 -1.5086,-16.37804 0.4508,-16.61472 0.3528,-0.0393 0.7087,-0.043 1.0634,-0.0541 z m 24.5683,0.009 c 1.695,0.0931 3.4276,0.37941 3.8166,0.7828 0.091,0.0943 0.1522,10.4329 0.134,22.97469 -0.023,12.54172 0.1136,24.16701 0.2864,25.83479 0.3523,3.379 -0.4769,4.07035 -4.2612,3.55372 l -2.2652,-0.30984 -0.332,-9.22226 c -0.1817,-5.07265 -0.6078,-16.67317 -0.9448,-25.77846 -0.337,-9.10535 -0.3484,-16.96249 -0.025,-17.45987 0.2391,-0.36892 1.8963,-0.46858 3.5912,-0.37557 z m -52.8337,0.053 c 1.9546,0.0422 2.3982,0.38803 2.3752,1.85431 -0.022,0.99135 0.1704,2.6189 0.4157,3.61591 0.4004,1.63523 0.1613,1.80646 -2.453,1.74985 l -2.8964,-0.0634 0.077,-3.60419 c 0.075,-3.47094 0.1657,-3.60264 2.4809,-3.55252 z m 7.0639,0.0316 c 1.5675,0.0649 0.8959,0.69668 1.203,1.95055 0.8814,3.59871 0.4713,5.41985 -1.2134,5.38337 -1.3647,-0.0295 -1.5912,-0.56888 -1.5246,-3.63938 0.053,-2.44951 -0.3895,-3.77427 1.535,-3.69454 z m 5.6091,0.10243 1.6298,-0.0422 c 1.7291,-0.004 1.5761,0.17056 1.6708,1.79918 l 0.2717,4.67189 c 0.1975,3.42015 0.6051,7.74758 0.7099,9.63185 0.1317,2.38648 0.1045,3.70954 0.2067,5.01252 0.052,0.66204 0.3756,7.76299 0.7228,15.77926 l 0.6314,14.57511 -2.6347,0.25 c -1.449,0.13672 -2.7169,0.16306 -2.8179,0.0574 -0.1,-0.1056 0.1771,-2.82348 0.6186,-6.03943 1.1444,-8.34348 1.3753,-14.81302 0.7018,-19.67331 -0.489,-3.52754 -0.387,-4.21642 0.6243,-4.19451 0.6338,0.0136 1.6204,-0.20167 1.5868,-0.89309 -0.159,-3.27077 -1.6452,-6.76123 -1.8696,-10.21986 -0.069,-1.32622 -0.7731,-2.42738 -1.8849,-2.94694 -1.4377,-0.67192 -1.7617,-1.47806 -1.7018,-4.24379 0.3486,-2.81991 -0.3057,-3.55491 1.5332,-3.52409 z m 7.7193,-0.009 c 2.1275,-0.009 2.8449,-0.0254 2.804,2.06301 l -0.1271,6.52703 c -0.089,4.51584 0.218,15.0703 0.682,23.45469 1.1301,20.43046 1.1757,19.659 -1.1444,19.60876 l -1.9166,-0.0411 -0.075,-15.02696 c -0.066,-13.40083 -1.0379,-25.82827 -1.6108,-33.79626 -0.1748,-2.42988 -0.054,-2.81519 1.3884,-2.78916 z m -83.6421,0.91339 c 2.5309,0.0368 2.7299,-0.29779 2.6813,2.15074 l -0.3927,19.73486 v 0.003 c -0.2398,12.08455 -0.093,23.71225 0.3286,26.05074 0.7473,4.14543 0.7268,4.22301 -1.1314,4.18274 -1.5991,-0.0348 -1.8864,-0.44481 -1.8495,-2.64415 0.048,-2.79691 -1.4367,-35.65002 -2.1061,-46.5487 0.1635,-2.84637 0.759,-2.94834 2.4698,-2.92923 z m 6.11,2.63948 c 0.05,-0.0577 0.1,0.0406 0.1521,0.29809 0.3536,1.77066 0.635,4.54141 0.6255,6.15796 -0.023,3.59394 0.602,5.48797 1.8155,5.51483 0.6602,0.0159 0.8047,5.14909 0.5175,18.40228 -0.3806,17.57139 -0.4676,18.39795 -1.9739,18.75671 -0.8667,0.20691 -1.7568,0.18715 -1.9776,-0.0434 -0.2202,-0.23047 -0.2322,-12.0268 -0.025,-26.21387 0.2089,-14.43342 0.5171,-22.46847 0.8662,-22.87259 z m 49.4033,7.25647 c 0.3155,0.0229 0.6715,0.0772 1.0797,0.16307 l 7.1988,0.56683 c 5.9092,0.46542 10.3466,0.37153 10.6828,0.91062 0.313,0.50207 0.4286,3.66133 0.4086,4.87295 0.022,1.08181 0.1885,1.24147 -0.874,1.21843 l -11.5483,-0.25017 -12.405,-0.26877 1.865,-3.63586 c 1.2246,-2.38773 1.3845,-3.73766 3.5924,-3.57717 z m -43.4965,5.05709 c 0,-0.0713 0.9228,0.0672 2.0467,0.30867 l 2.0433,0.43893 -0.1453,14.55753 c -0.079,8.00648 0.036,16.09361 0.2537,17.97157 0.3921,3.37589 0.3685,3.41491 -2.0552,3.3624 l -2.4505,-0.0541 0.1522,-18.22743 c 0.084,-10.02536 0.1521,-18.2865 0.1544,-18.35767 z m 8.1836,0.70654 c 1.3668,0.0307 1.6068,1.98054 1.853,15.05276 0.1181,6.27542 0.3943,13.58327 0.6139,16.2405 0.3968,4.80005 0.3861,4.83089 -1.6876,4.786 l -2.0878,-0.0445 0.1612,-18.0279 c 0.1226,-13.86414 0.3895,-18.02373 1.1478,-18.00678 z m 33.6897,5.53944 c 1.4817,0.032 1.4131,-1.35198 1.4485,5.89924 0,1.968 -0.2361,3.49812 -0.1839,5.83082 0.057,2.48181 -0.3284,2.31446 1.7333,2.3267 l 5.8594,0.0349 c 4.3427,0.0261 8.4361,0.13581 8.8545,-0.26504 0.4185,-0.40078 0.6545,-3.52079 0.7669,-6.42459 0.1136,-2.90378 0.5169,-5.74888 0.8989,-6.32344 0.399,-0.60013 0.6211,2.6191 0.521,7.5663 l -0.1249,6.17088 c -0.057,2.80174 -0.2655,2.59446 -3.1888,2.62655 -5.288,-0.0484 -16.5411,-0.33587 -17.0926,-0.30397 -0.7323,0.0427 -0.6122,-2.34457 -0.6421,-8.6352 0.2475,-7.94077 -0.7375,-8.51234 1.1503,-8.50312 z m 6.8717,0.14785 c 2.4564,0.0532 2.7981,0.30869 2.7602,2.06324 -0.089,3.89538 -0.095,2.93297 -3.1152,2.86697 -3.0276,-0.0663 -2.6281,0.31448 -2.5075,-2.24261 0.1499,-3.17413 0.2044,-2.74515 2.8625,-2.6876 z m 7.2093,0.15602 c 2.3446,0.0472 2.1891,0.0357 2.1092,1.85126 -0.15,3.38825 0.5803,2.96589 -2.8223,2.89075 -1.7372,-0.0384 -1.4034,-0.13354 -1.3336,-2.78208 0.05,-1.91695 -0.2746,-2.00669 2.0467,-1.95993 z m -7.7657,7.0452 c 2.0005,0.0434 2.8888,0.34123 2.7638,1.93253 -0.2448,3.11291 -1.6806,2.27277 -4.0357,2.22176 -0.7281,-0.0159 -1.2166,-0.26315 -1.1834,-1.80353 0.045,-2.13602 0.3193,-2.39702 2.4553,-2.35076 z m 7.4123,0.18078 c 2.3933,-0.0757 1.9845,-0.20463 1.9788,1.50432 0,2.02717 -0.085,2.30052 -1.9204,2.30592 -1.7803,0.004 -1.9479,0.0316 -1.9055,-1.92674 -0.028,-1.86842 -0.1181,-1.75975 1.8471,-1.8835 z m -11.7302,14.15015 c 1.3886,0.0302 1.5905,0.56863 1.5153,4.03958 -0.075,3.47101 -0.3004,4.00045 -1.6887,3.97035 -1.3886,-0.0302 -1.5905,-0.56859 -1.5154,-4.0396 0.075,-3.47095 0.3005,-4.00043 1.6888,-3.97033 z m 7.6098,0.16443 c 1.8725,0.0406 1.9965,0.30702 1.9143,4.10178 -0.086,3.95455 -0.1431,4.05024 -2.2852,3.75673 -1.2084,-0.16556 -2.1507,-0.75066 -2.0949,-1.30035 0.057,-0.54976 0.184,-2.25966 0.2831,-3.80018 0.1567,-2.42207 0.4512,-2.79548 2.1827,-2.75798 z m 8.0957,0.17601 c 1.7662,0.0381 1.9096,0.35639 1.8296,4.04663 -0.085,3.91606 -0.1408,4.00362 -2.4891,3.95274 -2.2014,-0.0477 -2.3981,-0.28269 -2.3437,-2.79088 0.086,-3.95856 0.8337,-5.25549 3.0032,-5.20849 z m -30.7993,17.08901 c -8.6689,-0.0779 -19.3535,0.39208 -19.9641,1.22995 -1.1976,1.64245 -0.7173,28.66912 -0.5204,32.09656 0.256,2.83128 0.992,2.951 3.6563,2.99669 l 13.5104,0.15988 c 8.3537,0.0988 14.3703,0.10152 14.9569,0.0368 1.4328,-0.15785 2.8706,0.37981 2.3615,-5.68919 -0.3371,-4.01373 -0.1272,-10.87056 -0.7704,-22.505 -0.2871,-6.28628 -0.4247,-6.71717 -2.4128,-7.55456 -1.1403,-0.48025 -5.616,-0.72432 -10.8174,-0.77106 z m 56.9561,0.52212 c -1.29,0.0454 -7.674,-0.21711 -9.389,-0.35303 -8.3521,-0.66248 -10.2681,-0.95983 -10.5566,1.59155 -0.5182,4.58257 0.5812,30.64351 -0.034,33.85897 -0.3232,1.6912 1.4376,3.29551 3.8713,3.19933 8.9928,-0.3554 18.4767,1.22297 19.9735,0.0345 1.1062,-0.87837 0.397,-3.75426 0.516,-18.93037 0.2044,-19.75002 -0.5977,-19.46764 -4.3814,-19.40087 z m -46.113,6.18978 c -0.315,2.75221 -0.2624,9.33885 0.118,14.63615 0.3798,5.29731 0.8851,10.41358 1.1231,11.36999 0.4313,1.73297 0.3836,1.73767 -13.6501,1.45411 -7.7458,-0.15649 -14.4268,-0.0827 -14.8463,0.16442 -1.2443,0.73227 -1.4778,-1.64284 -1.6958,-17.22515 l -0.1771,-12.66538 c -0.2158,-2.38291 0.032,-2.16353 2.2535,-2.13064 l 10.4956,0.15511 c 7.0285,0.10402 12.6884,0.0668 13.8362,-0.19486 1.5163,-0.0743 3.0039,0.41781 2.544,4.43636 z m 31.5608,-4.31661 6.6826,0.14445 6.8432,0.14785 c 2.841,-0.17579 2.5557,0.2003 2.5854,2.8361 l 0.1432,12.64975 c 0.098,8.48668 0.3872,16.24809 0.6467,17.24746 -0.2629,2.09382 -0.738,1.77083 -2.6766,1.70042 l -7.7862,-0.28269 -5.9271,-0.16171 c -3.9789,0.004 -3.5836,-0.29143 -3.736,-4.07773 -0.1793,-10.09824 -0.1976,-18.03942 0.05,-27.6688 0.2558,-2.79922 0.5537,-2.5917 3.1746,-2.53507 z m 6.1087,1.73466 c -3.849,-0.0833 -4.3543,0.10992 -5.0981,1.94586 -1.0041,2.47787 -0.7065,22.51625 -0.6148,25.33987 -0.1544,2.30254 -0.4633,2.85273 2.5568,2.93742 3.1884,0.0895 8.0701,0.3994 9.0392,-0.17078 0.6256,-0.36819 0.2484,-3.38803 0.7185,-8.81808 1.0917,-12.60758 0.8106,-18.73964 -0.9177,-20.06178 -0.7765,-0.59404 -3.3342,-1.12155 -5.6839,-1.17245 z m -62.1079,3.77204 0.073,7.90659 c 0.1453,15.64603 -0.2317,15.12897 10.9827,15.08918 l 6.434,-0.0227 c 2.7882,0.25904 2.5897,-0.25596 3.0969,-2.80216 0.9429,-4.73603 1.1868,-20.02517 0.346,-21.68138 -0.7217,-1.4221 -1.7294,-1.588 -10.8805,-1.78623 l -7.2738,-0.15739 c -3.3565,-0.39693 -2.8069,0.40139 -2.7785,3.45419 z m 62.2065,-0.40026 c 3.3358,0.0561 3.2004,0.30392 3.3689,3.42473 l 0.059,4.44013 c 0.3039,3.03167 -0.4247,2.52306 -3.1699,2.23677 -2.9747,-0.11764 -2.8655,-0.10333 -2.9579,-2.91846 l -0.1567,-4.736 c 0.1362,-2.84813 0.1794,-2.75649 2.8561,-2.44717 z m -57.7171,0.18896 c 1.0376,0.0227 2.4518,0.27139 3.1429,0.55394 0.8715,0.35622 1.2351,1.55072 1.1842,3.89875 -0.086,4.03787 -0.3227,4.33572 -2.9718,3.76963 -2.2112,-0.47259 -2.3594,-0.7416 -2.888,-5.25074 -0.3224,-2.74751 -0.1885,-3.00885 1.5327,-2.97158 z m 10.4475,1.1736 c 3.3429,0.35286 3.3923,0.44544 2.8565,5.32821 -0.3556,3.24093 0.8721,3.10037 -2.5186,2.8378 -3.7836,0.25486 -2.9625,-0.94675 -3.3778,-4.66154 -0.3611,-3.20345 -1.0599,-3.93711 3.0399,-3.50447 z m -0.2794,11.06721 c 2.7886,0.0604 2.8028,0.0797 2.725,3.66518 -0.077,3.58529 -0.093,3.60355 -2.881,3.54314 -2.7887,-0.0604 -2.8028,-0.0798 -2.7254,-3.66519 0.077,-3.58529 0.093,-3.60355 2.8814,-3.54313 z m -8.4196,0.21824 c 1.7839,0.0386 2.0222,0.41582 2.176,3.45982 0.1816,3.58963 -1.0153,4.86341 -3.5818,3.81426 -0.9112,-0.37255 -1.1528,-1.40355 -0.9166,-3.91167 0.2855,-3.03448 0.5384,-3.40104 2.3224,-3.36241 z m 58.4436,1.43826 c 1.2518,0.15557 1.0711,1.28927 0.6185,6.55464 -0.3233,3.76107 0.2677,3.83223 -2.5017,3.77227 -3.315,0.21235 -3.3732,-0.39567 -2.9079,-3.36875 l 0.1817,-6.72812 2.8377,-0.17715 c 0.7785,-0.0486 1.355,-0.1047 1.7722,-0.0529 z m -56.1421,24.19585 c 1.3697,0.027 3.034,0.14649 5.043,0.17715 l 7.3655,0.11287 c 2.6068,-0.23717 2.4762,0.0693 3.7378,2.16144 0.9244,1.53319 2.964,5.15432 5.1752,6.91762 2.2111,1.7633 5.1497,3.0379 5.1479,3.12053 -0.023,0.67962 -3.6219,1.04436 -9.1411,0.92481 -6.5657,-0.14217 -24.4171,-0.51656 -31.35,-0.69795 -4.3167,-0.11287 -5.1886,0.54647 -1.5496,-2.03541 2.7779,-1.97083 9.9631,-7.99705 10.006,-9.98276 0.023,-0.56816 1.4564,-0.77942 5.5653,-0.6983 z m 51.6309,0.83092 c 0.6917,-0.0324 1.5672,-0.0204 2.6865,0.004 4.9774,0.10788 4.994,0.11537 5.9442,2.93285 0.5242,1.55397 1.293,2.37942 2.8832,3.13973 1.773,0.8478 1.6311,1.69089 -0.233,1.66277 -0.4406,-0.007 -1.6009,0.064 -3.4732,0.0237 -1.8722,-0.0374 -5.5891,0.12217 -9.1338,-0.0977 -4.4575,-0.27645 -7.8346,0.82305 -4.2517,-2.40748 1.3638,-1.73188 2.1732,-2.66219 2.6731,-3.57209 0.6778,-1.23411 1.8913,-1.63887 2.9047,-1.68658 z m 15.1067,10.77262 c 0.7913,0.0288 0.5935,0.85397 -0.3015,3.71919 -1.5802,2.39068 -1.4604,2.23754 -11.8747,2.34722 -9.7043,-0.21031 -11.2259,-0.42379 -12.3605,-1.73343 -0.7116,-0.82145 -1.0398,-2.53121 -1.0239,-3.2675 0.025,-1.18776 1.6836,-1.04886 11.8112,-0.8391 6.2781,0.12991 11.6212,0.20804 12.6182,-0.0364 0.4944,-0.12105 0.8675,-0.19963 1.1312,-0.19009 z m -40.7784,4.84586 c 1.8568,-0.0275 2.879,0.16192 2.8707,0.55159 -0.029,1.38911 -2.0064,2.06647 -14.6192,1.884 -7.7158,0.11924 -18.9297,-0.6145 -23.9366,-0.23791 -8.0848,0.60809 -9.2449,0.53681 -10.3747,-0.64315 -1.1738,-1.22579 -0.5933,-1.31746 7.51,-1.14192 8.12,0.17283 24.4023,0.56436 36.422,-0.31287 0.7969,-0.0581 1.5089,-0.0906 2.1278,-0.0997 z m 17.0597,3.44573 10.8935,0.40021 c 5.9913,0.22029 10.935,-0.12763 10.9398,0.0929 0,0.22052 0.2657,11.39342 0.6261,23.96277 0.3607,12.56939 0.8723,24.03046 1.1374,25.46864 0.4235,2.29941 0.2762,2.61086 -1.2207,2.57844 -1.4999,-0.0325 -1.6893,-0.48904 -1.5962,-3.84125 0.059,-2.09237 0.6124,-12.00822 0.036,-23.25552 l -0.8046,-15.73363 c -0.209,-4.07449 -0.5535,-3.3613 -4.4016,-3.97469 -2.0733,-0.33088 -7.9057,-0.45172 -10.3912,-0.19577 -3.1568,0.37039 -3.2283,1.16727 -3.2622,4.13607 l -0.2225,19.68349 c -0.2248,19.78198 -0.038,22.73209 -1.0851,22.70945 -1.0375,-0.0238 -1.1633,-3.57916 -0.9248,-26.02962 z m -16.9559,1.77844 c 0,0.38206 -0.8424,1.41507 -1.8532,2.29441 -1.6631,1.44702 -3.0758,1.71251 -16.4129,1.44716 -8.229,0.10265 -16.0949,-0.0877 -17.3488,0.11923 -2.1474,0.35409 -8.9385,-3.29846 -7.9761,-4.2202 0.2089,-0.20031 8.141,0.20553 16.6959,-0.0307 8.5552,-0.23619 17.8932,0.20441 21.0927,0.0238 1.9902,0.0334 4.1347,-0.35395 5.8024,0.36617 z m 24.4049,6.61408 c 0.9615,0.0204 3.5287,0.119 4.9866,0.28636 3.844,0.44143 4.4336,-0.13559 4.3424,1.68178 -0.034,1.55506 -11.572,1.7429 -12.125,0.19463 -0.5503,-1.54058 -0.089,-2.22446 2.796,-2.16289 z m -25.2116,0.76754 c 0.3756,0.009 0.8241,4.7962 0.9974,10.64 0.1726,5.84373 0.4911,12.34189 0.7054,14.44017 0.2689,2.63112 0.1,3.80817 -0.5398,3.79429 -0.5112,-0.0114 -1.0583,-0.4737 -1.2159,-1.02809 -0.6319,-2.22368 -0.5832,-27.86014 0.053,-27.84637 z m -25.7678,0.30621 c 6.1806,0.13376 5.9049,-1.09898 5.8867,7.52181 0,3.44025 0.2742,4.26854 -6.9113,3.88818 -4.8209,-0.25518 -4.6419,1.5553 -4.5397,-3.13708 0.041,-1.8956 -0.3734,-3.21603 -0.057,-6.06399 -0.134,-2.56153 -0.1136,-2.24914 5.6219,-2.20892 z m 13.8062,0.236 c 6.4824,-0.0204 4.8526,-0.37275 4.7168,5.92207 -0.159,6.29496 1.4097,5.52132 -4.7227,5.30708 -6.3454,-0.22165 -5.0105,0.11606 -4.9205,-6.50134 -0.2067,-6.20707 -1.012,-4.85589 4.9264,-4.72781 z m 9.3315,1.00344 c 0.4389,1.83183 0.9765,26.55063 0.5856,26.92508 -1.3749,1.3166 -1.6276,-1.43736 -1.2756,-13.91791 0.091,-3.2163 -0.4686,-9.7302 -0.3643,-11.96442 0.1499,-3.19699 0.9605,-1.43395 1.0543,-1.04275 z m -32.3977,0.64785 c 0.3202,-0.052 0.46,3.77756 0.4567,12.08471 0,11.33271 -0.2312,14.62013 -1.0071,14.6033 -1.1607,-0.0261 -0.9247,-20.56826 0.2992,-26.039 0.093,-0.41814 0.1771,-0.637 0.2512,-0.64901 z m -3.1476,0.94475 c 0.2467,-0.37042 0.2919,3.15814 0.1795,11.46505 -0.1295,9.56159 -0.4935,15.01572 -1.0034,15.00466 -0.9213,-0.0205 -0.5782,-16.73928 0.5094,-24.83251 0.1295,-0.9574 0.2324,-1.51372 0.3145,-1.6372 z m 60.5956,1.32549 c 3.9303,0.0807 8.7077,0.24323 12.5729,0.48892 0.1658,0.15897 0.2509,8.6271 0.4194,15.21944 0.2068,8.07627 0.7525,15.27515 0.75,16.01516 0,1.14332 -0.023,1.6335 -4.0582,1.58424 l -6.9289,-0.0845 c -3.8469,0.0747 -3.4675,0.81965 -3.3871,-2.86754 l 0.3039,-13.93144 z m 58.1813,5.29605 c 0.542,0.0114 -0.4456,6.94489 -1.7967,12.60931 -0.7812,3.27427 -0.7897,4.43439 -0.038,5.20851 0.7612,0.78381 1.2179,0.67017 2.1477,-0.534 1.1694,-1.51452 1.1803,-1.51482 1.1079,0.0236 -0.066,1.40797 -3.3232,10.99369 -5.0893,15.35006 -1.1704,3.95691 -6.8552,2.12952 -9.6642,1.87509 -9.5081,-0.8814 -9.5998,-0.98034 -9.3996,-10.23391 0.1136,-5.19642 0.9879,-7.09546 1.9871,-4.31304 0.2391,0.66632 0.979,1.22373 1.6454,1.23815 1.2667,0.0275 1.5074,-0.63147 2.9809,-8.18362 1.5281,-7.83097 2.5718,-8.17909 2.4399,-0.8133 -0.082,4.61407 0.2066,6.79267 0.9965,7.47709 1.3313,1.15464 1.3784,1.03466 3.5091,-9.08377 1.7405,-8.26525 2.9915,-10.42264 2.8729,-4.95382 -0.1386,6.42501 1.8612,5.74327 4.3989,-1.4999 0.3255,-0.60107 1.3724,-4.03722 1.9015,-4.16645 z m -106.6769,5.8669 2.9497,0.19282 c 2.5931,-0.0181 2.4529,0.13217 2.3996,2.56393 -0.029,1.32166 -0.1954,4.07194 -0.372,6.11101 -0.2967,3.42789 -0.5072,3.74023 -2.7944,4.14639 -1.3606,0.2416 -2.436,0.4028 -5.1781,0.38025 -2.7298,0.0522 -2.4312,-0.77293 -2.5549,-6.90322 l 0.086,-3.98513 c -0.3248,-2.97621 0.6634,-2.766 5.4633,-2.50612 z m 11.9679,0.0958 4.2237,0.0656 c 2.2834,-0.0972 2.2094,0.0477 2.419,2.18169 l 0.2393,7.10005 c 0.1227,3.64572 0.1795,3.19083 -2.3294,3.51057 -0.8635,0.10993 -1.9725,0.0681 -3.3674,0.0245 -3.7452,-0.15149 -3.6807,0.84348 -3.4327,-2.77482 l 0.054,-8.24321 c -0.1385,-2.16998 0.1909,-1.90753 2.1932,-1.86432 z m -42.7026,1.52382 c 0.6894,0.0434 1.2703,0.47575 1.6255,1.39309 0.3011,0.77783 0.7349,3.36334 0.9636,5.74602 0.4672,4.87091 2.57,7.3277 4.0934,4.78131 1.3922,-2.3266 2.4373,-1.51533 2.1207,1.64777 -0.2618,2.61945 -0.091,2.983 1.365,2.86949 1.2475,-0.0974 1.6415,0.31269 1.5679,1.63602 -0.082,1.46079 0.2834,1.73561 2.1091,1.58438 1.8383,-0.15216 2.1974,0.12355 2.1431,1.64892 -0.098,2.75834 -1.9954,4.62947 -5.0044,4.93506 -1.4825,0.15057 -6.6938,0.36955 -11.58,0.48703 -4.8061,-0.0117 -8.1249,1.89847 -10.1613,-2.61942 -1.6727,-3.71231 -1.5918,-4.60787 0.3545,-3.94333 2.3138,0.78987 3.1306,-0.10216 1.3838,-6.04646 -0.4333,-2.94883 -2.8215,-5.24117 0.7252,-4.28488 1.6593,0.45486 1.9395,0.1826 2.4059,-2.34371 0.7852,-4.25397 3.8204,-7.62135 5.888,-7.49119 z m 89.2887,2.14657 c -0.2914,0.0501 -0.5751,0.18123 -0.8111,0.40725 -1.1289,1.08108 0.3623,2.9701 1.7158,2.17354 0.4854,-0.28561 0.8894,-0.83669 0.8978,-1.22525 0.023,-0.9279 -0.9284,-1.50591 -1.8025,-1.35554 z m -69.9873,11.85 c 2.0682,0.0447 2.6317,0.67445 5.0851,5.67792 1.5178,3.09538 2.7553,5.82689 2.7498,6.06995 0,0.24306 -1.6311,0.40678 -3.6135,0.36381 l -3.6042,-0.0774 0.068,-3.096 c 0.041,-1.88309 -0.543,-3.90756 -1.4905,-5.16742 -2.1391,-2.84408 -1.9284,-3.83007 0.8062,-3.77081 z m 34.152,0.0963 c 0.5944,-0.0598 1.3352,-0.0534 2.0786,0.0329 3.6686,0.36074 2.8811,-0.0355 1.3007,3.0557 l -1.5272,2.98724 c -2.3966,4.68854 -3.2713,5.72577 -4.8165,5.70613 -1.4737,-0.0181 -1.7626,-0.32943 -1.3156,-1.4142 0.3149,-0.76455 1.0074,-3.1841 1.5386,-5.37635 0.5312,-2.1923 1.2243,-4.27497 1.5409,-4.62874 0.4164,-0.24677 0.8263,-0.32302 1.2005,-0.36268 z m -15.7193,0.3028 c 8.5259,0.18464 11.2591,0.48835 11.1929,1.24403 -0.048,0.54992 -0.9121,3.05629 -1.9189,5.56878 l -1.8309,4.56773 -6.4127,-0.14785 -6.4126,-0.14898 -2.6958,-5.05712 c -1.4824,-2.78164 -2.8096,-5.33026 -2.9492,-5.66385 -0.1409,-0.33358 4.8228,-0.49705 11.0272,-0.36265 z m 43.6914,8.37492 c 0.912,0.0548 2.1061,0.16215 3.6687,0.311 3.6287,0.34564 7.0451,0.77796 7.592,0.96 0.5471,0.18192 0.9863,0.70279 0.9766,1.15719 0,0.50957 -2.9341,0.76243 -7.6275,0.66075 -7.1046,-0.15398 -7.6072,-0.27185 -7.5745,-1.78507 0.025,-1.15141 0.228,-1.46832 2.9647,-1.30387 z" transform="translate(269.34417,381.76177) translate(-1640.0804,-994.50479)" fill="#000000"/>
</svg>