<?xml version="1.0" ?><svg xmlns="http://www.w3.org/2000/svg" width="397.23529mm" height="527.77661mm" viewBox="0 0 397.23529 527.77661">
    <path d="m -86.297892,-1690.5811 c -1.741294,-0.065 -3.463016,0.2154 -5.140254,1.0387 -6.708954,3.2934 -6.709353,9.7198 -9.008234,19.5998 -2.29886,9.8801 -1.80093,260.1133 -1.80093,260.1133 l -0.49867,240.066 388.27604,-3.6308 c 0,0 2.01733,-3e-4 1.54822,-5.2782 -0.46937,-5.2778 -4.78492,-312.1517 -4.26899,-318.3583 0.51621,-6.2068 -5.77075,-20.4357 -6.28695,-27.0645 -0.51594,-6.629 -2.10592,-151.5146 -2.76262,-155.188 -0.65696,-3.6733 -9.33661,-4.982 -12.47986,-4.6865 -3.14352,0.2956 -10.69704,2.66 -16.88993,1.9844 -6.19291,-0.6756 -89.89075,1.351 -93.26872,0.2532 -3.37796,-1.0978 -7.78787,-2.2799 -10.32134,-0.6754 -2.53345,1.6044 -6.47442,4.4755 -7.08432,9.88 -0.60989,5.4045 -1.78283,80.6876 -1.78283,80.6876 l -1.26659,78.7874 -87.169877,-2.449 0.141077,-28.669 c 0,0 -0.782592,-130.1098 -1.53324,-133.8254 -0.750649,-3.7156 -6.916029,-5.8837 -13.625008,-5.8415 -6.708954,0.042 -92.74188,-0.6549 -99.263192,-2.1327 -4.890983,-1.1084 -10.289899,-4.4158 -15.513782,-4.6111 z m 142.390276,194.323 c 0,0 39.050907,1.1136 43.410787,1.0656 4.359899,-0.048 10.818979,3.7057 10.818979,3.7057 0,0 11.5722,-2.3732 14.42496,-2.3492 2.85276,0.024 11.41119,5.5707 11.41119,5.5707 l 1.85725,37.8571 c 0,0 -0.18823,9.1068 -2.47582,10.1968 -2.28763,1.0899 -2.34146,5.6193 -2.34146,5.6193 l -98.071015,0.1452 2.206584,-56.0953 c 0,0 7.724089,-3.972 9.392708,-4.626 1.668593,-0.6539 9.365837,-1.0899 9.365837,-1.0899 z" fill="none" paint-order="fill markers stroke" transform="translate(104.23206,224.87556) translate(2.872034,1467.5769)"/>
    <path d="m -104.81132,-1167.2986 c -0.62132,-1.0138 -2.43861,-143.6666 -2.28341,-179.2538 0.12717,-29.1969 2.82212,-128.4712 3.51771,-129.5862 0.4447,-0.7129 0.69528,-29.2469 0.55698,-63.409 -0.25282,-62.4182 -1.83082,-121.4103 -0.61217,-133.7975 1.20193,-12.2173 6.509867,-22.9643 20.852832,-17.765 4.900274,1.7763 21.272816,2.4021 61.793661,4.1696 26.0343755,1.1356 45.927487,-0.735 49.284847,-1.433 7.74992,-1.6111 16.076628,-3.5475 18.556426,6.9642 1.09852,4.6565 0.961923,7.2869 -0.479967,15.1222 -1.104573,6.0034 -1.529342,29.9279 -1.395179,78.6085 l 0.182489,66.2831 c -0.567147,4.8109 1.45443,3.7197 5.677709,3.7906 l 37.985631,0.6383 43.652961,0.7335 -0.79861,-3.9883 c -0.69811,-3.4857 -0.34597,-4.0943 2.79343,-4.8296 l 3.59223,-0.841 -1.11561,-40.5885 c -0.61364,-22.324 -1.02574,-47.1012 -0.91534,-55.0606 0.11015,-7.9598 -0.25597,-14.4799 -0.80744,-14.4892 -1.10762,-0.035 -2.73986,52.3623 -2.7097,86.9459 0.013,14.7866 -0.47384,22.2176 -1.49548,22.8319 -2.24197,1.3481 -0.93201,-143.7521 1.356,-150.2226 2.32183,-6.5659 7.27773,-10.6499 12.81119,-10.5569 2.50785,0.043 4.90572,0.6412 5.32872,1.3314 0.4606,0.7519 20.34156,1.281 49.58135,1.3204 43.25831,0.057 49.5457,-0.2094 55.25814,-2.3335 3.54518,-1.3194 7.89223,-2.3744 9.66006,-2.3446 4.62548,0.078 11.27758,6.3002 12.18174,11.3948 0.42048,2.3694 1.00442,22.1878 1.29764,44.0406 1.10371,82.2451 2.20121,107.5145 5.2102,119.9309 2.61304,10.7841 2.73267,13.982 1.93994,51.8751 -0.93936,44.895 1.0613,183.7568 3.50267,243.1123 1.41914,34.5089 1.36009,38.9067 -0.58295,43.368 -1.18922,2.7307 -3.22363,5.491 -4.52065,6.1343 -2.2256,1.1036 -36.22863,2.5665 -84.52064,3.636 -11.85295,0.2626 -24.2784,0.622 -27.61187,0.7988 -3.33348,0.1767 -40.61071,0.09 -82.837902,-0.1927 -42.227399,-0.2828 -87.0811024,-0.3735 -99.674964,-0.2016 -12.593962,0.1718 -37.142657,-0.4558 -54.553052,-1.3946 -17.734808,-0.9564 -32.217222,-1.2058 -32.933621,-0.5665 -1.679734,1.4971 -5.766411,1.3908 -6.725901,-0.175 z m 16.191507,-6.5842 4.604361,0.077 -0.01949,-10.4361 c -0.0045,-5.7398 -0.415337,-18.1775 -0.906302,-27.6394 -0.85524,-16.4976 -0.991941,-17.1142 -3.330804,-15.0361 -1.34133,1.1919 -3.58181,1.8492 -4.978874,1.4609 -2.357198,-0.656 -2.601306,0.5145 -3.392,16.2694 -0.468743,9.337 -0.850689,21.4343 -0.84887,26.8829 0.0072,8.4818 0.309441,9.7943 2.132918,9.1252 1.171498,-0.43 4.201798,-0.7468 6.734351,-0.7042 z m 11.377094,-28.0865 c 1.914299,-20.7493 4.40635,-30.5554 11.503791,-45.2665 8.611552,-17.85 27.662345,-37.4796 34.552922,-35.6028 4.664757,1.2704 19.057157,16.0573 25.6578959,26.3606 6.25007641,9.7567 12.0111931,22.3554 15.3408777,33.5494 1.0735994,3.609 2.1344184,6.3537 2.3573204,6.0992 0.223001,-0.2545 0.08667,-8.3454 -0.303841,-17.9797 l -0.708662,-17.5171 -16.9911259,-15.2975 c -9.3451281,-8.4133 -19.0948831,-17.1449 -21.6659041,-19.4032 -3.766484,-3.6814 -4.020872,-4.5395 -8.200462,-1.7704 -4.601307,3.2918 -10.688857,6.6333 -14.271356,10.8543 -1.363716,1.6735 -8.687801,8.2646 -16.275772,14.6471 l -13.796159,11.6045 0.277049,39.3177 c 0.152277,21.6248 0.461241,36.2909 0.686449,32.5918 0.225303,-3.6994 1.051607,-13.6835 1.836077,-22.1874 z m 10.717502,4.9725 c -0.01085,-12.1764 0.501893,-22.4524 1.138919,-22.8356 0.63693,-0.3829 1.531368,-3.4298 1.987614,-6.7704 1.565427,-11.4649 14.016663,-31.4654 26.38516,-42.3832 3.733542,-3.2956 6.787882,-6.3537 6.787459,-6.7962 -0.0043,-4.6572 -15.027342,10.129 -24.754892,24.3644 -11.403987,16.6884 -15.602196,32.1423 -17.38762,64.0059 l -0.69742,12.4439 3.279973,0.055 3.279972,0.055 z m 8.078932,-4.32 c -0.02305,-26.4654 -0.0025,-26.6339 3.816979,-34.6097 4.44997,-9.2902 20.943357,-29.995 24.608104,-30.8917 1.373042,-0.3371 2.495682,-1.4492 2.494871,-2.4737 -0.0021,-2.6625 -0.878917,-2.3825 -6.57377,2.1004 -11.519117,9.0669 -25.210283,31.1418 -28.539451,46.0154 -2.186781,9.7704 -0.345552,46.3774 2.334945,46.4225 1.545742,0.025 1.876583,-4.7018 1.858322,-26.5632 z m 7.564386,4.8018 c -1.376204,-31.9443 1.586482,-42.0765 17.424969,-59.5908 7.600821,-8.4048 8.52528,-11.9427 1.051001,-4.0219 -8.295991,8.7912 -15.499099,18.9617 -19.945948,28.1626 -6.50236,9.5879 -3.923444,19.3217 -3.194297,30.3604 1.598289,24.1936 2.017679,26.9649 4.085294,26.9997 1.109518,0.018 1.267005,-5.9394 0.578981,-21.91 z m 7.661705,17.6722 c -1.382775,-6.8037 -1.158175,-31.8352 0.359433,-40.0541 1.838302,-9.9559 7.843501,-20.4607 15.621929,-27.3265 6.130143,-5.4112 6.358018,-5.8651 4.961377,-9.8838 -0.80505,-2.3165 -1.874975,-4.2186 -2.377219,-4.2267 -1.361219,-0.035 -14.309236,17.421 -17.409096,23.4534 -6.119764,11.9097 -7.255053,19.3038 -6.218587,40.498 0.533478,10.9051 1.233016,20.2863 1.554729,20.8471 0.321816,0.5609 1.443583,1.0342 2.492494,1.0518 1.436142,0.025 1.68689,-1.0527 1.01494,-4.3592 z m 10.020133,-13.9705 -0.253949,-13.8985 c -0.667269,-5.5297 0.813525,-4.6713 5.843009,-4.9466 7.15408,-0.3915 8.167484,0.8589 8.203321,10.1212 0.04592,11.7108 1.729938,27.5 2.936096,27.5203 0.632195,0.011 1.142837,-7.595 1.134824,-16.9013 -0.008,-9.3064 0.611744,-18.0824 1.377248,-19.502 1.587755,-2.9441 6.9832354,-3.3525 9.1628439,-0.6933 2.1021435,2.565 4.59269071,20.1491 4.06579984,28.7084 -0.24690264,4.0162 0.0972349,7.3106 0.76701876,7.321 0.70479446,0.011 0.83378722,-6.359 0.30675996,-15.1456 -1.10541245,-18.425 -1.82780716,-23.9288 -4.30954976,-32.8294 -2.1232178,-7.6151 -11.0771367,-22.3013 -13.6226947,-22.3442 -3.268438,-0.053 -10.089986,7.0662 -15.649799,16.337 -7.830589,9.5811 -5.900033,20.2706 -6.125163,32.0763 l -0.430616,22.5812 3.465326,0.058 3.465525,0.058 z m 10.633353,-26.3691 c -1.371455,-1.0609 -2.133996,-2.5058 -1.694161,-3.2109 0.933933,-1.4972 -2.896275,-3.3361 -4.69525,-2.2542 -0.67364,0.405 -1.225482,-0.2083 -1.226592,-1.3629 5.74e-4,-1.1546 0.849041,-2.085 1.888851,-2.0675 2.088436,0.036 11.585907,8.1236 11.587551,9.8684 0.0018,1.6874 -3.083722,1.1754 -5.860399,-0.9729 z m 7.301445,-5.1904 c -1.128029,-1.3763 -1.159019,-2.179 -0.10769,-2.8109 1.561701,-0.939 5.3956308,1.6309 5.3972582,3.618 9.02e-4,1.8611 -3.5460722,1.3196 -5.2889682,-0.8071 z m -7.306423,-3.1805 c -1.41684,-1.4391 -1.012973,-6.9394 0.579891,-7.8974 2.755507,-1.6571 4.075814,1.5621 2.151215,5.2447 -1.019136,1.9496 -2.247934,3.1433 -2.731106,2.6527 z m 3.885996,-9.696 c -0.427016,-0.6967 -0.160633,-1.6367 0.591962,-2.0895 1.606725,-0.9659 4.063359,0.3371 4.06478,2.1541 9.88e-4,1.6385 -3.644229,1.5879 -4.656749,-0.065 z m 34.342246,60.3327 c -0.0037,-3.7187 -11.8348353,-48.3679 -14.85508955,-56.0586 -5.04427775,-12.8454 -12.35910945,-25.7278 -18.61194845,-32.7784 -3.312125,-3.7349 -6.333722,-6.484 -6.714792,-6.1089 -0.380975,0.3747 -0.09863,1.4634 0.627065,2.4191 0.725898,0.9559 3.079734,6.0095 5.230618,11.2298 2.15078,5.2202 5.250225,10.591 6.887475,11.9345 4.1003746,3.3644 10.5340281,15.1393 13.1603856,24.086 1.2017656,4.0936 2.8987825,16.3925 3.7713522,27.3311 l 1.5864821,19.8884 4.4601261,0.075 c 3.135719,0.052 4.459541,-0.5464 4.458328,-2.0179 z m 17.738432,1.7045 c 1.427761,-0.5226 1.708569,-6.0319 1.377656,-27.0308 -0.382024,-24.2692 -0.599421,-26.2998 -2.716083,-25.4435 -5.258803,2.1268 -7.844084,1.9469 -10.216371,-0.7111 -2.966449,-3.3233 -1.655523,-6.0937 2.373237,-5.0155 1.608713,0.4306 4.270222,0.4538 5.914502,0.051 2.783261,-0.681 2.988736,-1.497 2.979722,-11.8441 l -0.0097,-11.1124 -5.051958,-0.9197 c -10.357323,-1.885 -9.771688,-2.7768 -9.717871,14.7943 0.02644,8.7027 0.619809,21.6492 1.318087,28.7699 0.698277,7.1206 1.424098,18.7975 1.612806,25.9482 l 0.343037,13.0015 4.999803,0.085 c 2.749813,0.046 5.806661,-0.2115 6.792982,-0.5723 z m 11.883541,-14.4113 c -0.01546,-17.8787 1.130131,-26.4269 3.536848,-26.3864 1.446641,0.025 1.707033,1.9988 1.201835,9.1095 -2.123539,29.8885 -2.134789,31.2716 -0.25253,31.3032 1.407142,0.025 1.823216,-2.4372 1.759438,-10.4064 -0.105228,-13.2612 1.583644,-25.8945 3.459001,-25.863 1.448241,0.025 0.608762,23.5359 -1.155694,32.3631 -0.657454,3.2892 -0.351842,3.9687 1.800896,4.0048 2.418508,0.04 2.694881,-1.7377 4.122993,-26.5253 2.064409,-35.8355 5.608741,-46.0047 21.028885,-60.3366 7.02015,-6.5251 9.038482,-9.5158 6.451317,-9.5591 -0.5928,0 -4.436974,2.9204 -8.542378,6.5123 -8.439964,7.3842 -15.438937,19.5366 -19.245753,33.4175 -4.27702,15.5948 -4.532396,16.1336 -4.658101,9.8259 -0.333033,-16.6895 14.702894,-44.1745 27.656953,-50.5577 6.501074,-3.2033 7.15894,-4.1103 7.204961,-9.93 0.02018,-2.5918 0.623904,-5.6113 1.341076,-6.7103 0.993302,-1.5216 1.309655,-0.9812 1.328211,2.269 0.01968,3.4325 0.969329,4.8665 4.855501,7.3313 11.665502,7.3998 28.858962,32.6606 31.009902,45.5602 1.21847,7.3072 -1.11488,4.7533 -4.10943,-4.4987 -3.46767,-10.7127 -29.457141,-44.3464 -32.190017,-41.658 -2.070786,2.0372 -0.514019,4.4282 5.074188,7.7944 9.352179,5.6334 22.991159,28.265 25.955769,43.0697 1.38572,6.9189 -2.31537,4.233 -4.97584,-3.6111 -4.75757,-14.0274 -13.25927,-28.0673 -21.542407,-35.5768 -3.546741,-3.2154 -5.391394,-3.9198 -5.38969,-2.0585 -1.16e-4,0.6142 3.227329,5.3643 7.170417,10.5566 14.77357,19.4525 16.35806,24.4296 18.39041,57.7628 0.80238,13.1566 1.45938,24.8321 1.46037,25.9459 0.002,1.1138 0.60787,2.0352 1.34869,2.0476 0.84085,0.014 1.34006,-7.9223 1.32858,-21.1187 -0.0113,-13.2295 0.45667,-20.6546 1.25115,-19.8406 1.61047,1.6499 4.13809,21.5291 4.14787,32.621 0.006,6.6147 0.44653,8.4588 2.02781,8.4854 1.71129,0.028 2.02383,-3.3131 2.04238,-21.8472 0.027,-27.2609 2.23433,-25.9692 4.37335,2.5595 1.0889,14.5213 1.90744,19.4276 3.24484,19.4501 2.08721,0.035 1.96907,1.4187 1.77181,-20.7485 -0.35136,-39.4881 -7.6731,-56.0985 -39.65416,-89.9586 l -9.359484,-9.9097 -7.511036,6.9332 c -29.405786,27.1423 -39.792514,52.5342 -43.486681,106.3099 -0.354954,5.1673 -0.09836,5.7213 2.673563,5.7679 2.993102,0.051 3.066026,-0.2814 3.054187,-13.8996 z m 2.686442,-32.3151 c -0.05717,-3.2338 6.110256,-21.0685 10.373795,-29.9928 3.301725,-6.9112 7.729118,-13.0832 14.18512,-19.7751 8.353225,-8.6592 14.428285,-12.1517 14.431725,-8.2972 0.0021,0.7406 -0.533558,1.3374 -1.187153,1.3264 -0.6532,0 -5.209165,3.9957 -10.123802,8.9037 -9.19124,9.1788 -18.251702,24.3865 -22.845244,38.3452 -2.196216,6.6741 -4.793397,11.772 -4.834441,9.4898 z m 20.242327,42.9482 c 0.01,-2.0365 0.601674,-10.9644 1.314679,-19.8397 1.19159,-14.8271 1.577173,-16.378 4.751703,-19.1086 4.368968,-3.7579 5.354192,-3.7057 9.499111,0.5041 3.351166,3.4035 3.374131,3.5882 2.866639,22.9972 -0.453842,17.3528 -0.269331,19.52 1.63114,19.1563 1.178717,-0.2253 2.048606,-1.5044 1.933251,-2.8425 -0.115654,-1.3381 0.208516,-10.2153 0.719967,-19.7272 1.031037,-19.1689 2.584346,-22.7944 9.714462,-22.6746 5.97187,0.1004 7.02965,3.8155 7.31945,25.7076 0.20701,15.67 0.62924,19.5356 2.13309,19.5608 1.32207,0.021 1.9994,-2.1491 2.29807,-7.3673 0.67569,-11.8056 -2.31503,-42.1896 -4.93699,-50.1581 -2.4346,-7.399 -10.257103,-22.2036 -14.838229,-28.0825 l -2.506352,-3.216 -7.758677,9.1031 c -11.093605,13.0161 -15.331454,23.0655 -17.660016,41.8766 -1.048652,8.471 -1.902245,20.4243 -1.896935,26.5625 0.0089,10.2627 0.225357,11.1642 2.703693,11.2058 2.035619,0.035 2.698304,-0.8596 2.711944,-3.6575 z m 20.142088,-47.1277 c -0.0021,-0.7406 -0.682928,-1.2065 -1.516303,-1.0354 -2.425491,0.4983 -2.970933,-2.9943 -0.603291,-3.8631 2.485975,-0.9122 6.157648,1.745 6.160005,4.4579 1.4e-5,1.0203 -0.907578,1.8397 -2.018808,1.821 -1.111318,-0.018 -2.021011,-0.6398 -2.021603,-1.3804 z m -10.781668,-6.9561 c -0.0027,-1.7358 3.834745,-3.2388 5.068397,-1.9857 0.502627,0.5106 0.02611,1.477 -1.066531,2.1478 -2.605935,1.6046 -4.000335,1.548 -4.001886,-0.1632 z m 15.74344,-2.9732 c -1.626258,-1.2591 -1.942176,-2.1879 -0.948041,-2.7855 2.166172,-1.3027 5.404297,0.3336 5.406291,2.7317 0.0026,2.5203 -1.25298,2.5354 -4.458228,0.055 z m -9.451836,-4.1542 c -0.399581,-1.0454 0.03715,-2.9329 0.969265,-4.1937 1.411563,-1.9084 2.199782,-2.0148 4.70299,-0.6341 3.358751,1.8527 3.121516,5.0638 -0.324271,4.3913 -1.219902,-0.2377 -2.217386,0.1988 -2.216606,0.9727 0.0015,2.0656 -2.286509,1.6739 -3.131378,-0.5362 z m -3.607094,-3.5578 c -0.0021,-0.7406 0.604976,-1.3364 1.345896,-1.3239 0.7406,0 1.347409,0.6284 1.348109,1.3694 0.0021,0.7405 -0.604978,1.3363 -1.345797,1.3239 -0.7406,0 -1.347516,-0.6288 -1.348208,-1.3694 z m 7.066219,-6.1592 c -2.64041,-1.1093 -1.973739,-3.1813 1.007546,-3.1313 1.496836,0.036 2.694673,0.9432 2.69561,2.0653 0.0017,2.0752 -0.770982,2.2977 -3.703156,1.066 z m 71.109113,65.586 c -0.005,-5.8084 -0.41055,-17.9067 -0.90066,-26.8846 -0.84862,-15.5405 -1.01503,-16.2592 -3.47073,-14.9862 -1.91524,0.9931 -3.42378,0.7704 -5.85848,-0.8643 l -3.27892,-2.2016 0.0234,26.738 c 0.0126,14.7061 0.42694,27.149 0.92201,27.651 0.49428,0.5021 3.52532,0.957 6.73557,1.0109 l 5.83704,0.098 z m 16.37788,-0.6231 c -0.28571,-5.5669 0.16562,-15.9625 1.00323,-23.1012 1.90266,-16.2144 6.60056,-26.5724 16.4027,-36.1638 5.26089,-5.1479 7.64681,-8.7958 9.35601,-14.305 1.26181,-4.067 1.83066,-7.4023 1.26419,-7.4119 -2.61367,-0.043 -19.92709,20.0264 -23.38275,27.1054 -8.10169,16.5975 -9.22652,21.5168 -9.91678,43.3658 l -0.64828,20.5241 3.22065,0.054 c 3.15564,0.053 3.21004,-0.1501 2.70103,-10.0675 z m 11.99239,-8.1184 c -0.22529,-16.8165 -0.0858,-17.8421 2.6061,-19.2382 2.13077,-1.1048 3.32037,-1.0714 4.74415,0.1324 2.31735,1.9601 3.09703,6.1618 4.37853,23.5964 0.78287,10.6498 1.41546,13.4894 3.01153,13.5162 1.6608,0.028 2.13753,-3.1493 2.67846,-17.8497 0.5113,-13.8992 1.10778,-18.1598 2.67725,-19.1229 6.51731,-3.999 8.63637,0.3941 9.44578,19.5824 l 0.55451,17.358 c 4.96316,0.4598 8.21353,0.2112 11.9802,-0.01 l -0.94104,-13.5056 c -1.61674,-23.2009 -7.55194,-39.6165 -18.84501,-52.1223 -5.65498,-6.8692 -5.39555,-7.3083 -11.1804,-1.0007 -8.11104,8.8445 -10.99633,13.1726 -13.20104,19.8017 -2.19721,6.6065 -6.07856,33.5251 -6.07107,42.1052 0.005,5.0366 0.15207,5.2082 4.20247,4.8693 l 4.19779,-0.3517 -0.23803,-17.7636 z m 11.2208,-31.7571 c -3.2713,-1.7876 -2.79282,-4.8772 0.74623,-4.8178 2.61378,0.044 4.85525,3.9736 3.11143,5.455 -0.57949,0.4923 -2.31537,0.2055 -3.85766,-0.6372 z m 11.56989,0.7857 c -1.51962,-0.9854 -1.63094,-1.6767 -0.45646,-2.8322 1.84226,-1.8123 4.48318,-0.4754 4.48563,2.2705 10e-4,2.2404 -1.18527,2.4059 -4.02917,0.5617 z m -8.10488,-13.6373 c -0.002,-0.7406 0.90796,-1.3314 2.0193,-1.3126 1.11152,0.035 2.02101,0.6401 2.0217,1.3807 0.002,0.7405 -0.90806,1.3312 -2.01939,1.3125 -1.11122,-0.018 -2.02092,-0.6399 -2.02161,-1.3806 z m 36.99421,54.8206 c -3.02055,-29.3331 -9.3955,-51.3074 -17.95968,-61.9067 -3.04281,-3.5917 -1.12721,-3.4252 1.69304,-0.9899 7.64338,6.601 14.74178,30.723 18.40156,57.5463 0.88611,6.4952 2.16633,11.8188 2.84473,11.8301 0.67839,0.011 0.94588,-1.3474 0.59441,-3.0197 -0.35135,-1.6722 -1.29995,-9.1111 -2.10782,-16.5308 -0.80777,-7.4196 -2.29585,-17.4428 -3.30656,-22.2737 -1.01099,-4.8309 -1.65853,-8.9739 -1.43914,-9.2064 1.21551,-1.2893 6.18644,16.4075 9.05178,32.2258 2.98423,16.4745 3.58586,18.2802 6.23422,18.7135 3.6001,0.5889 3.7282,-1.4704 0.86044,-13.8341 -6.82334,-29.4175 -16.86997,-50.3664 -32.26264,-67.2732 l -10.87098,-11.9406 -3.49627,7.3952 -1.47327,4.9357 c -1.73498,5.5845 -1.84602,3.809 2.66288,7.5476 l 4.75932,3.9462 c 14.16765,13.5511 18.16722,24.3817 19.43495,52.6283 0.79246,17.6582 0.83635,17.856 3.98949,17.9089 3.07502,0.052 3.15979,-0.2214 2.38954,-7.7025 z m 43.56645,0.2695 c -1.8156,-18.6727 -2.69917,-39.9928 -3.29327,-44.128 -0.53289,-3.7103 -0.97751,-4.2149 -2.5715,-2.9184 -1.05994,0.8623 -3.75135,1.2694 -5.981,0.9049 l -4.05382,-0.6628 0.0339,21.6489 c 0.0206,11.9068 0.41199,23.9275 0.87282,26.7126 l 0.83941,5.0637 8.09271,0.1359 c 5.2337,-0.7175 6.34075,0.8676 6.06075,-6.7568 z m -23.26266,-60.2153 c -0.59309,-3.2693 -4.00288,-6.6738 -17.14744,-17.1201 -9.02398,-7.1716 -23.26061,-18.1176 -26.99512,-21.6214 -3.65348,-3.3037 -2.86985,-4.0108 -6.38875,-1.039 l -10.7986,9.1198 c -7.34248,6.2011 -18.2846,16.6989 -24.3159,23.329 l -10.10218,11.7829 -0.12531,8.5707 c -0.067,4.5824 0.82169,10.7248 0.92339,13.689 0.1795,5.2325 0.24163,5.1552 2.12452,-2.6575 2.92993,-12.1553 12.83665,-31.093 20.27447,-38.7569 7.08474,-7.3001 21.41534,-19.1179 23.14765,-19.0884 3.02009,0.05 22.47345,19.049 27.78194,27.132 6.07698,9.2532 14.41049,29.8275 19.0539,47.0421 l 2.55398,9.4687 0.37685,-22.8851 c 0.20729,-12.5868 0.044,-24.7213 -0.3635,-26.9658 z m -344.581908,-18.0178 c -0.249754,-0.252 -2.543575,-0.6661 -5.09771,-0.917 l -4.643661,-0.456 -0.369367,14.4324 -0.369268,14.4324 3.750051,0.891 c 2.062463,0.4901 4.356384,1.0513 5.09725,1.2474 1.219296,0.3222 2.804038,-28.4404 1.632705,-29.6302 z m 127.163771,24.2605 c 0.698148,-3.1934 4.015444,-11.3395 7.371791,-18.1024 6.899448,-13.9018 18.012894,-26.7515 31.339533,-36.2358 7.840961,-5.5798 8.092564,-5.9304 4.908474,-6.8349 -1.846072,-0.5245 -13.7689,-1.1653 -26.49548,-1.4244 l -23.139218,-0.4705 0.87267,15.119 c 0.479898,8.3154 1.285509,24.0703 1.790114,35.0109 0.504605,10.9406 1.179581,19.6338 1.500006,19.3184 0.320522,-0.3155 1.153978,-3.186 1.852121,-6.3797 z m 115.654777,-2.2012 c -0.0138,-3.8886 -0.38924,-9.2912 -0.83954,-12.0063 -0.75902,-4.5776 -1.19973,-4.9797 -6.05144,-5.5237 l -5.23258,-0.5869 0.0107,12.4917 0.0108,12.4913 6.0614,0.1019 6.0614,0.1018 -0.0213,-7.0698 z m 121.22156,-0.3194 c -0.0253,-9.9867 -1.41866,-16.0686 -3.50423,-15.3036 -1.01392,0.3723 -3.75233,-0.035 -6.08482,-0.8722 -3.96689,-0.8254 -4.06059,-0.2371 -3.38001,4.7065 0.47352,3.4403 0.86321,8.7621 0.86586,11.8259 l 0.004,5.5708 6.05716,0.065 6.05695,0.066 -0.0161,-6.0598 z m -79.01514,-39.4867 8.40129,-7.4859 c 3.97717,-3.5281 2.4052,-3.5213 6.42039,-0.3443 1.75779,1.3906 8.88855,6.9775 15.84618,12.4153 6.95762,5.4375 16.10815,12.7365 20.33443,16.2198 l 7.68397,6.3338 0.38493,-21.0529 c 0.2116,-11.579 0.0707,-21.2509 -0.31396,-21.4937 -1.82484,-1.1504 -71.07674,-3.447 -83.96533,-2.7845 l -14.61961,0.7516 0.85779,16.3706 c 0.47177,9.0037 1.21745,21.1026 1.65688,26.8857 l 0.799,10.5155 12.44474,-12.986 c 6.84443,-7.1422 17.67602,-17.6474 24.07,-23.345 z m -60.42904,2.4695 -0.95379,-20.5508 -7.60341,-0.181 c -4.18184,-0.099 -14.27112,-0.4997 -22.42039,-0.8879 l -14.817176,-0.7061 4.71736,3.5276 c 13.693526,10.2404 35.553656,36.2922 39.530516,47.1111 l 1.59637,4.3431 0.45212,-6.0521 c 0.24885,-3.3285 0.0238,-15.2996 -0.50228,-26.6029 z m -178.956258,-14.4793 c 5.598486,-4.4411 7.269583,-5.5041 11.488788,-1.7938 4.332887,3.8184 12.504059,11.3911 25.8981673,23.966 7.4130782,6.9597 13.6400867,12.4952 13.8375497,12.3008 0.19735,-0.1952 0.425092,-10.0244 0.50583,-21.845 0.124649,-18.246 -0.154876,-21.472 -1.8518893,-21.3596 -1.0992917,0.074 -11.9046134,0.3443 -24.0117537,0.6022 -59.954298,1.2786 -62.920907,1.4365 -63.673873,3.39 -0.402532,1.0447 -1.134449,10.4793 -1.626675,20.9656 l -0.894443,19.0668 16.708519,-15.1932 c 9.189983,-8.3561 19.818688,-17.4011 23.61978,-20.0998 z m 72.480404,24.7488 c -0.05389,-1.6341 -0.212273,-9.9715 -0.35253,-18.5278 l -0.254011,-15.5569 -7.744669,0.2733 c -8.918317,0.3158 -8.158227,-2.3378 -6.449812,22.5135 l 0.973132,14.1552 6.963508,0.057 c 6.292984,0.05 6.954023,-0.2306 6.86478,-2.9144 z m 123.353174,-9.3125 c 0.004,-8.3317 0.35395,-16.4469 0.7805,-18.0338 0.71749,-2.6703 0.20512,-2.9293 -6.89846,-3.4822 l -7.67366,-0.5972 0.82363,9.1031 c 0.45291,5.0067 1.20852,13.3511 1.6793,18.5434 l 0.85568,9.4402 5.21388,0.089 5.21397,0.089 0.005,-15.1488 z m -241.639492,7.8803 c 0.08249,-0.085 0.54216,-6.9658 1.020912,-15.2897 l 0.87016,-15.1343 -6.085419,-0.1029 -6.085319,-0.1029 0.01413,16.2198 0.01423,16.2201 5.050366,-0.8278 c 2.777845,-0.4557 5.118123,-0.8982 5.201111,-0.9837 z m 362.846052,-9.0531 c -0.0157,-18.1722 0.12053,-17.9334 -10.35723,-18.1545 l -4.28042,-0.092 0.56403,7.0787 c 0.31053,3.8935 0.91688,11.6294 1.348,17.1914 l 0.78367,10.112 5.97814,0.099 5.97795,0.099 -0.0141,-16.3387 z m -371.773594,-39.3944 c 0.0052,-6.8505 0.544823,-13.2922 1.198645,-14.3149 3.353958,-5.2462 8.158196,4.1915 8.224206,16.1563 0.03628,6.6911 1.595074,10.2883 3.865435,8.9228 1.544577,-0.929 0.610089,-24.8737 -1.035926,-26.5433 -0.461073,-0.468 -4.020811,-1.2565 -7.910587,-1.7529 l -7.072348,-0.9021 0.01353,15.4221 c 0.0084,9.3838 0.540791,15.4313 1.360429,15.4448 0.7992,0 1.350897,-5.0404 1.356717,-12.4328 z m 5.58681,2.6763 c -0.519704,-9.3849 -2.932125,-14.036 -2.901182,-5.5936 0.02577,7.1142 1.510429,15.7276 2.536588,14.7184 0.453709,-0.4464 0.617824,-4.5524 0.364594,-9.1248 z m 15.270456,-2.6103 c -0.0078,-8.996 0.479341,-11.877 2.313097,-13.684 1.277749,-1.2587 2.709072,-1.8967 3.180534,-1.418 0.471669,0.4791 1.568628,6.2128 2.437848,12.7419 1.128544,8.4764 2.147672,11.9909 3.563853,12.2897 1.633886,0.3442 1.904333,-1.3502 1.535001,-9.6223 -0.522185,-11.6918 1.381791,-17.2425 4.743244,-13.8284 1.256046,1.2754 2.280545,5.6028 2.678055,11.3111 0.809548,11.6275 1.180492,12.767 3.839047,11.7915 1.802107,-0.6615 2.008896,-2.1838 1.251258,-9.2117 -1.00897,-9.3604 0.579557,-14.1219 4.688473,-14.0531 1.954637,0.036 2.870268,1.6047 3.999485,6.8665 0.805444,3.753 1.475005,8.1575 1.487724,9.7877 0.03595,4.6926 1.957274,6.617 6.19209,6.205 3.418203,-0.3336 3.920213,-0.9553 4.104844,-5.0887 l 0.210249,-4.7093 -0.920156,4.6976 c -0.884769,4.5159 -0.984288,4.5827 -2.570344,1.7285 -2.018617,-3.6326 -2.179136,-15.8298 -0.255898,-19.3971 1.374452,-2.5483 0.857881,-2.6089 -22.563891,-2.6469 l -23.970389,-0.039 0.467156,7.4136 c 0.256892,4.0781 0.681421,9.5386 0.943021,12.1351 0.2617,2.5965 0.511556,5.479 0.555035,6.4055 0.04137,0.9265 0.533716,1.6923 1.089286,1.7019 0.5555,0 1.005761,-5.1103 1.000273,-11.3774 z m 5.17504,3.6792 c -1.328026,-10.1951 -3.074321,-11.4506 -3.112465,-2.2381 -0.01835,4.5052 0.354464,8.585 0.828378,9.0666 2.043389,2.0755 3.051512,-0.9383 2.284087,-6.8285 z m 12.917073,-0.3975 c -0.166287,-11.6127 -2.406919,-14.0583 -2.506859,-2.7356 -0.04952,5.6731 0.477929,9.771 1.260661,9.7841 0.7407,0 1.301645,-3.1596 1.246198,-7.0485 z m 13.488509,2.2463 c -0.04701,-2.0373 -0.584381,-6.1366 -1.19993,-9.1092 l -1.119051,-5.4052 -0.148923,6.9566 c -0.08096,3.8264 -0.51608,7.9094 -0.964603,9.0734 -0.535355,1.3885 -0.07237,2.1287 1.348751,2.1525 1.482437,0.036 2.139201,-1.1313 2.083756,-3.6681 z m 308.537296,7.5407 c -0.002,-0.7406 -0.57987,-1.3563 -1.28709,-1.368 -2.18121,-0.035 -3.06218,-8.7501 -1.47848,-14.6226 1.62029,-6.0077 4.44107,-7.2139 6.74264,-2.8828 0.76815,1.4456 1.40019,6.6067 1.40445,11.4693 0.006,6.9612 0.43712,8.8487 2.02809,8.8753 1.66312,0.035 2.0183,-2.3811 2.00853,-13.6201 l -0.0117,-13.6542 -7.54948,0.6519 c -4.15216,0.3587 -7.75786,0.857 -8.01232,1.1075 -0.25425,0.2519 -0.0959,6.0468 0.3526,12.8809 0.71529,10.9062 1.12025,12.4307 3.3097,12.4676 1.37222,0.035 2.49393,-0.5639 2.49333,-1.3048 z m -285.001313,-9.8949 c -1.189268,-7.4143 1.504847,-16.4135 4.896757,-16.3564 3.202136,0.053 4.7035864,3.5461 6.0154286,13.991 1.3090764,10.4242 3.3486752,9.734 3.3392259,-1.1299 -0.00757,-8.8001 1.5401767,-14.0246 4.14184743,-13.981 2.17711877,0.035 6.56921987,11.0772 6.60646017,16.6062 0.030358,4.5457 0.3871857,5.0564 3.5698333,5.11 3.2417366,0.053 3.4654556,-0.291 2.6903046,-4.1632 -0.465045,-2.3218 -0.848413,-7.479 -0.851984,-11.4598 l -0.0061,-7.238 -19.5785342,-0.33 c -18.8343818,-0.3158 -19.5262768,-0.2306 -18.2032658,2.259 0.756362,1.4234 1.778574,6.8942 2.27181,12.1571 0.761485,8.128 1.275578,9.5758 3.412912,9.6116 2.158518,0.035 2.399775,-0.6859 1.695339,-5.0776 z m 7.4239,-1.1653 c -0.0512,-3.5188 -0.595463,-7.6177 -1.200529,-9.1092 -1.031333,-2.5418 -1.147025,-2.5017 -1.847552,0.642 -2.659131,11.9341 -2.400366,14.7719 1.352452,14.8351 1.258137,0.036 1.765846,-1.8868 1.695629,-6.3679 z m 13.3415869,2.6749 c 0.2449102,-1.6795 0.021121,-4.6657 -0.4968007,-6.6355 -0.8747591,-3.3239 -1.02161345,-3.3892 -2.03823907,-0.9073 -1.78880483,4.3668 -1.52023193,11.7248 0.40602249,11.1226 0.92565578,-0.291 1.88380708,-1.9003 2.12891728,-3.5798 z m 128.3498161,-2.2619 c -0.29114,-6.1738 0.14979,-7.9878 2.455,-10.0974 2.79507,-2.5585 2.70181,-2.5787 -17.63659,-3.8005 -33.822109,-2.0316 -37.983908,-1.9354 -36.864828,0.8523 0.523768,1.3049 1.235476,4.8013 1.581344,7.7693 1.084717,9.3065 1.806069,11.476 3.826672,11.5101 1.414719,0.035 1.760985,-1.0021 1.243011,-3.682 -1.211288,-6.2671 1.15557,-14.3983 4.30938,-14.805 4.004481,-0.5159 5.9636,2.687 6.847923,11.1961 0.638863,6.1469 1.236238,7.5201 3.286248,7.5546 2.13454,0.036 2.50474,-1.0387 2.49927,-7.254 -0.008,-8.9346 0.90618,-11.5407 4.02871,-11.4881 2.80421,0.046 6.74453,8.7759 6.74993,14.9526 0.002,2.6688 0.67993,4.024 2.02392,4.0464 1.54813,0.035 2.01898,-1.676 2.01409,-7.276 -0.004,-4.9357 0.70008,-8.0049 2.16855,-9.4495 4.20419,-4.1358 6.84831,-0.067 7.12729,10.9683 0.0785,3.0255 0.55603,5.9243 1.06579,6.4421 2.32809,2.3644 3.60049,-0.5263 3.27429,-7.4393 z m 17.34738,3.1899 c -0.003,-3.3009 -0.53795,-5.1451 -1.35101,-4.6565 -0.74053,0.4454 -1.34442,2.8949 -1.34227,5.4435 0.003,2.5482 0.61019,4.6437 1.35111,4.6561 0.7406,0 1.34482,-2.4368 1.34217,-5.4431 z m 15.47112,2.9648 c -0.48339,-1.5266 -0.8813,-5.4414 -0.8842,-8.6997 -0.003,-3.2583 0.38833,-7.1599 0.86913,-8.6706 0.72616,-2.2817 0.28948,-2.7558 -2.58417,-2.804 -3.44181,-0.057 -3.4582,0 -3.44829,11.3877 0.0101,11.3916 0.026,11.4462 3.46817,11.5041 2.87358,0.05 3.30953,-0.4113 2.57936,-2.7175 z m 6.08003,-3.0862 c -0.006,-6.5854 -1.01637,-10.2266 -2.84693,-10.2575 -1.38273,-0.036 -1.64816,13.8784 -0.2916,15.256 2.13311,2.1668 3.14336,0.5578 3.13853,-4.9985 z m 8.67868,-1.6476 c 1.25015,-10.7114 1.90408,-12.4239 4.72551,-12.3763 3.07324,0.053 4.29901,2.7831 5.47967,12.2109 l 0.9294,7.4219 0.19182,-6.9173 c 0.12351,-4.4513 1.06795,-7.9846 2.64937,-9.9125 l 2.45734,-2.9957 2.83843,3.0904 c 2.6596,2.896 5.04795,11.3277 4.12142,14.5509 -0.22758,0.7924 0.11402,1.3584 0.75905,1.2583 0.64515,-0.099 1.24749,-4.4126 1.33859,-9.5832 0.13814,-7.8438 0.56088,-9.4711 2.55184,-9.8242 3.37671,-0.5987 8.27904,10.7621 7.28732,16.8872 -0.66643,4.1164 -0.43392,4.5184 2.64279,4.5702 2.84009,0.05 3.22756,-0.4041 2.45079,-2.8573 -1.12606,-3.556 -1.09418,-12.3536 0.0576,-15.9731 2.38627,-7.4967 8.74971,1.3811 8.75922,12.2202 0.005,5.9019 0.36121,6.8054 2.6997,6.8448 2.39789,0.039 2.69323,-0.8524 2.68691,-8.1227 -0.008,-9.3685 1.6271,-13.3497 5.45695,-13.2851 3.483,0.057 5.31152,4.979 5.31967,14.3156 0.006,7.2643 0.0364,7.3193 4.1236,7.3878 3.98568,0.067 4.05007,-0.035 2.01799,-2.9588 -2.47675,-3.572 -2.87328,-16.6243 -0.5475,-18.0228 3.15486,-1.8974 6.51173,4.8612 6.71801,13.5257 l 0.19718,8.2699 0.85095,-7.0456 c 0.4681,-3.8751 0.60845,-9.5688 0.31193,-12.6525 l -0.53881,-5.6067 -19.03287,0.5504 c -10.468,0.3052 -30.33257,0.3634 -44.14342,0.1348 l -25.11055,-0.4219 2.553,5.0408 c 1.45198,2.8665 2.55557,7.8213 2.5587,11.4884 0.004,4.5958 0.54145,6.4574 1.87084,6.4797 1.26773,0.035 2.15447,-2.4457 2.76735,-7.6961 z m 6.73831,0.1135 c -1.40493,-11.5246 -2.7427,-11.7038 -4.49305,-0.6025 -1.18478,7.5134 -0.92899,8.254 2.87244,8.3178 2.33508,0.039 2.4811,-0.6557 1.62061,-7.7153 z m 12.25397,6.5149 c 1.2067,-1.9347 -0.54565,-10.6944 -2.14484,-10.7213 -0.7071,0 -1.28347,2.705 -1.28065,6.0379 0.005,5.7529 1.4909,7.7845 3.42549,4.6834 z m 27.46174,-2.4812 c -0.0535,-2.4077 -0.59797,-5.5982 -1.20853,-7.0897 -1.02215,-2.4971 -1.18646,-2.5258 -2.0741,-0.3616 -1.20592,2.9404 0.36221,11.7784 2.09523,11.8075 0.7071,0 1.24157,-1.9481 1.1874,-4.3562 z m 14.23427,-3.3562 c -0.0124,-12.9871 -2.15572,-12.1801 -4.00814,1.5081 -0.75589,5.5844 -0.55891,6.3864 1.57596,6.4187 2.07962,0.035 2.43848,-1.1384 2.43218,-7.9268 z m -218.143855,-0.071 c -0.775299,-3.5468 -1.238701,-10.1145 -0.950926,-13.4817 0.120571,-1.4102 1.307935,-2.3343 2.963625,-2.3066 3.53916,0.06 7.168075,8.2689 6.002026,13.5779 -0.454067,2.0666 -0.253957,4.1206 0.44437,4.5634 1.150605,0.73 3.817126,-18.9546 2.699599,-19.9291 -0.253689,-0.22 -4.340651,-0.891 -9.082015,-1.4886 l -8.620602,-1.0862 0.882058,8.381 c 0.485093,4.6099 0.883174,9.8075 0.884689,11.5506 0.0013,2.281 0.764743,3.1816 2.722426,3.2146 2.118619,0.035 2.572621,-0.6267 2.05475,-2.9953 z m 2.916146,-7.3569 c -0.310401,-2.0422 -0.561519,-0.3801 -0.55801,3.6933 0.003,4.0734 0.257742,5.7441 0.564529,3.7125 0.306887,-2.0315 0.303871,-5.3643 -0.0063,-7.4058 z m 18.388982,7.7149 c -1.392833,-4.0748 -0.826497,-11.8 1.026554,-14.0033 3.870638,-4.6025 6.854151,-0.823 8.621578,10.9221 0.58624,3.8942 1.635179,6.3005 2.755111,6.3193 1.310819,0.035 1.915064,-2.6551 2.195668,-9.7259 0.298411,-7.5116 0.843279,-9.7479 2.36933,-9.7224 2.257689,0.039 6.598396,10.3405 6.713891,15.9348 0.05872,2.6994 0.762287,3.7158 2.604931,3.7466 2.180819,0.035 2.438414,-0.7516 1.873672,-5.732 -0.40402,-3.5649 0.144575,-7.6777 1.434396,-10.7482 l 2.089176,-4.9737 -19.189608,-0.3229 -19.189408,-0.3229 0.496528,9.0978 c 0.628293,11.5112 0.966573,12.4718 4.412495,12.5296 2.34159,0.039 2.648187,-0.4759 1.785474,-2.9996 z m 3.63611,-8.1283 c -1.021442,-1.0376 -1.43873,0.1171 -1.435349,3.9683 0.006,7.0642 1.901311,9.0006 2.451183,2.505 0.233381,-2.7559 -0.223713,-5.6689 -1.015834,-6.4733 z m 15.286004,6.4264 c -1.269804,-7.0091 -1.909024,-7.2082 -1.903287,-0.5933 0.0026,3.0862 0.638576,5.6216 1.412903,5.6344 0.8912,0 1.071268,-1.8346 0.490384,-5.0411 z m 15.587243,0.2626 c -0.0364,-7.4896 -2.105699,-9.8089 -3.141779,-3.523 -1.233195,7.4786 -1.095816,8.5013 1.146348,8.5389 1.440719,0.035 2.013278,-1.4155 1.995431,-5.0159 z m 15.688267,2.2835 c -0.448289,-1.6738 -0.834047,-4.8619 -0.857429,-7.084 -0.03392,-3.1071 -0.343671,-3.5791 -1.346507,-2.0425 -0.717172,1.099 -1.31121,4.2703 -1.320317,7.0474 -0.01156,3.7608 0.539522,5.0585 2.161305,5.0858 1.601136,0.036 1.9619,-0.7693 1.362948,-3.0067 z m 16.643153,0.2804 c -0.0114,-1.6668 -0.41879,-4.5195 -0.90527,-6.3396 -0.81897,-3.0645 -0.95969,-3.1167 -1.90796,-0.7051 -1.81175,4.6082 -1.37456,10.0038 0.81389,10.0407 1.20292,0.035 2.01183,-1.1923 1.99934,-2.996 z m 13.48477,-3.7012 c -0.007,-8.1855 -1.39077,-7.7536 -2.69125,0.8396 -0.70011,4.6273 -0.4899,6.0645 0.89041,6.0876 1.27832,0.035 1.80514,-2.0057 1.80084,-6.9272 z m 11.72835,0.099 c -0.32381,-1.6806 -0.59857,-0.632 -0.6109,2.3303 -0.0123,2.962 0.25237,4.3371 0.58841,3.0554 0.33594,-1.2818 0.34629,-3.7055 0.0226,-5.3857 z m 9.82288,-0.035 c -0.0105,-12.0204 5.92314,-13.8117 8.12553,-2.4535 0.91052,4.6962 1.00837,4.4446 1.14529,-2.9421 l 0.14962,-8.0769 -7.57452,0.3442 -7.57451,0.3442 0.84351,6.1273 c 0.46389,3.3705 0.84497,7.8608 0.84682,9.9793 0.003,2.5263 0.69869,3.8634 2.02388,3.8857 1.54553,0.035 2.01892,-1.6682 2.01421,-7.2071 z m 64.88727,2.9453 c -0.28526,-2.9673 -0.75804,-5.3991 -1.05043,-5.4041 -0.2928,0 -0.53002,2.4148 -0.52745,5.3775 0.003,2.9623 0.47536,5.3942 1.05053,5.4038 0.5751,0 0.8125,-2.4102 0.52735,-5.3772 z m 42.44514,0.4606 c -0.43081,-1.0812 -0.74958,-0.7679 -0.81295,0.7999 -0.0569,1.4183 0.26172,2.2192 0.70904,1.7792 0.44713,-0.4396 0.49401,-1.6004 0.10383,-2.5791 z m -335.80623,-28.2409 c -2.184245,-2.1295 -12.65524,-2.446 -12.653462,-0.3825 8.66e-4,0.6696 3.119071,1.2938 6.929728,1.3875 3.887596,0.096 6.399915,-0.3442 5.723734,-1.005 z m 20.721724,-12.8057 c -0.360901,-11.9246 -0.642495,-13.1631 -3.091295,-13.5931 -5.707918,-1.0022 -10.293395,-3.654 -12.214472,-7.0638 -1.829106,-3.2473 -1.931456,-2.2828 -1.194788,11.2748 0.442943,8.1539 1.447229,16.5026 2.23127,18.5527 1.2877,3.3658 2.066575,3.7377 8.04595,3.8381 l 6.620144,0.11 z m 15.099932,-5.276 c -0.01456,-16.7024 0.253984,-18.8834 2.579057,-20.9497 6.902862,-6.1341 11.949302,3.0039 13.157979,23.8254 l 0.853256,14.6996 7.983085,0.1349 7.983082,0.1348 -0.846163,-3.8502 c -0.465337,-2.1178 -0.901271,-8.9984 -0.968699,-15.2904 -0.14198,-13.2358 1.785688,-18.5381 7.425203,-20.4266 6.4227791,-2.1508 7.6118687,1.1522 7.6292837,21.1952 0.011114,12.8927 0.4399037,17.2592 1.6986677,17.2911 0.92623636,0.036 3.9571805,0.4571 6.7356201,0.9628 3.9929464,0.7267 5.0515505,0.4893 5.0502745,-1.1328 -0.002,-1.1284 0.907034,-2.3853 2.017932,-2.7927 1.588986,-0.5834 2.017551,-3.3346 2.00911,-12.9026 l -0.01059,-12.1616 -5.9706502,-0.099 c -6.3363826,-0.1065 -6.3537954,-0.1242 -8.17906542,-9.1904 -1.27755118,-6.3442 -7.94884558,-11.6613 -13.32625338,-10.6209 -5.991206,1.1593 -11.106242,6.4634 -12.830792,13.3053 -1.098003,4.3556 -2.152029,5.8928 -4.018781,5.8616 -2.900084,-0.05 -4.167974,-2.5894 -4.172936,-8.3629 -0.0053,-5.9009 -6.889506,-12.5981 -11.829631,-11.5077 -7.432205,1.6402 -14.160561,8.9683 -13.789698,15.019 0.07869,1.2835 0.310604,5.0631 0.515483,8.3994 0.204772,3.336 0.489381,10.7639 0.632385,16.5058 l 0.259561,10.4403 4.714479,0.078 4.714278,0.078 z m 73.761063,17.6076 c -1.296673,-0.3605 -3.418201,-0.396 -4.714279,-0.078 -1.296318,0.3158 -0.235085,0.6118 2.357685,0.6554 2.592961,0.043 3.653475,-0.2164 2.356613,-0.5763 z m 48.610574,-0.7934 c -3.07161,-4.9616 5.372991,-17.6272 10.408422,-15.6116 2.970821,1.1891 1.787738,9.3246 -2.114736,14.5417 l -2.768172,3.7011 4.106884,0.067 c 3.579161,0.06 4.011892,-0.3229 3.368045,-2.973 -1.027176,-4.2299 2.374112,-15.1087 4.711501,-15.0697 2.199819,0.035 4.46574,8.9627 3.69079,14.5375 l -0.513386,3.6947 27.716269,0.2981 c 20.76325,0.2236 25.85738,-0.035 20.30715,-0.9812 -4.07534,-0.7033 -8.77303,-0.9978 -10.43957,-0.6547 -1.66662,0.3442 -3.03054,0.1278 -3.03118,-0.4794 -0.002,-2.1082 3.24754,-4.2799 6.32716,-4.2281 2.74761,0.046 3.09687,-0.5955 3.08765,-5.671 -0.0177,-8.4321 -3.59074,-28.9251 -6.54986,-37.542 -3.62522,-10.5567 -7.28981,-17.3273 -13.0247,-24.0647 -6.68056,-7.8487 -14.62021,-12.3717 -26.357236,-15.015 -9.283455,-2.0905 -10.276584,-2.0695 -18.887206,0.4013 -10.781717,3.0933 -20.513614,10.1362 -26.622922,19.2659 -4.55175,6.8023 -6.321539,11.9846 -7.6162,22.2992 -0.440441,3.5106 -1.385841,6.3729 -2.100755,6.3608 -0.7922,0 -1.148001,7.5971 -0.91084,19.4969 l 0.389044,19.5185 19.20586,0.3372 c 18.480608,0.3229 19.145803,0.2377 17.617891,-2.2293 z m 25.295571,0.5301 c -0.422701,-0.6902 -1.173066,-4.6763 -1.667388,-8.8579 -0.766559,-6.4861 -0.577019,-7.5982 1.290333,-7.567 2.877791,0.05 9.243801,10.3129 8.713561,14.0495 -0.28784,2.0284 -1.50904,3.0301 -3.99139,3.276 -1.96694,0.1952 -3.922495,-0.2093 -4.345116,-0.9006 z m 10.846396,-5.6003 c -2.47798,-1.5092 -7.65468,-12.0474 -7.65779,-15.5892 -0.002,-3.1487 3.28907,-2.1295 9.98738,3.0925 5.49827,4.2867 6.28165,5.5014 5.92633,9.189 -0.44969,4.6671 -3.81177,6.0142 -8.25592,3.3077 z m -47.156354,-1.5532 c -2.274439,-2.3102 -0.558657,-7.2157 3.853539,-11.0173 7.598269,-6.5467 12.609045,-4.7153 8.542898,3.1224 -3.615122,6.968 -9.572944,10.7625 -12.396437,7.8949 z m 54.992924,-8.8967 c -1.48215,-0.6415 -4.45958,-3.0588 -6.61667,-5.3721 -3.45959,-3.7101 -3.64643,-4.3066 -1.58788,-5.0621 1.28367,-0.4709 4.75077,-0.035 7.70557,1.0057 6.17616,2.1412 8.95791,5.9513 6.48841,8.8874 -1.80319,2.1444 -2.20325,2.1802 -5.98943,0.5411 z m -64.431067,-2.0347 c -1.510311,-1.5337 -1.005659,-6.7916 0.778555,-8.1145 2.03197,-1.5064 11.868838,-4.2405 15.062983,-4.187 4.105084,0.067 1.770467,5.7455 -3.945894,9.5943 -5.201003,3.5014 -10.03127,4.6007 -11.895644,2.7072 z m 30.502125,-2.1256 c -0.463222,-1.2118 0.113361,-3.764 1.281732,-5.672 2.932337,-4.7892 9.487931,-5.0102 12.467272,-0.4202 2.730761,4.2065 2.077399,7.8743 -1.391836,7.8157 -1.970819,-0.035 -2.797072,-1.1071 -3.136296,-4.0783 l -0.460999,-4.0333 -1.831025,4.3317 c -1.953994,4.622 -5.541069,5.6869 -6.928848,2.0564 z m -9.178736,-6.0322 c -1.283869,-4.0542 0.26715,-5.3938 6.132393,-5.2952 6.106919,0.1029 6.555765,1.1633 2.195419,5.1884 -3.884903,3.5862 -7.212451,3.6288 -8.327819,0.1064 z m 23.801566,-1.3822 c -4.309877,-4.6543 -3.814198,-6.4374 1.353822,-4.8693 5.83982,1.7718 7.32198,3.4893 5.1945,6.0191 -2.29114,2.7242 -3.09133,2.5837 -6.548322,-1.1498 z m 13.389682,-2.139 c -5.48651,-3.4343 -4.41963,-4.7988 4.55256,-5.8229 8.14827,-0.9297 12.3162,1.3517 10.85515,5.9421 -1.23369,3.8754 -9.12317,3.8143 -15.40774,-0.1207 z m -62.554894,-1.499 c -1.15187,-3.0134 2.315103,-6.4882 6.404722,-6.4193 2.59406,0.043 3.18173,-0.2981 1.914377,-1.1157 -1.005756,-0.648 -2.918155,-0.8573 -4.249824,-0.4652 -2.775047,0.8176 -6.334849,-1.6998 -6.337229,-4.4819 -2.81e-4,-1.0358 1.470285,-2.5294 3.269229,-3.3189 2.600124,-1.1413 4.532966,-0.8957 9.424758,1.1969 6.024261,2.5773 8.194136,6.3377 4.484599,7.7724 -1.005531,0.3886 -0.734054,0.7097 0.674283,0.7967 3.724777,0.2306 2.750324,3.9215 -1.611691,6.1042 -5.022274,2.5131 -13.001276,2.4734 -13.973255,-0.071 z m 26.957122,-2.7593 c -4.611599,-0.6618 -6.11207,-3.8676 -3.166297,-6.7654 2.00611,-1.9737 2.601857,-1.9088 7.570886,0.8251 4.744638,2.6099 5.533176,2.7196 6.555159,0.9084 1.660278,-2.9428 6.206497,-1.5671 6.722256,2.034 0.5063,3.5355 -2.914218,5.3673 -5.669726,3.0362 -1.137307,-0.962 -3.061258,-1.1629 -5.034497,-0.5259 -1.756383,0.5667 -4.896398,0.7864 -6.977781,0.4876 z m 20.90057,-0.8446 c -1.177994,-0.4918 -1.312355,-1.2363 -0.4159,-2.3023 0.728687,-0.8662 0.849335,-2.3513 0.268167,-3.2998 -1.536219,-2.5071 -8.609723,-3.0447 -10.283813,-0.7814 -2.084874,2.8186 -10.271347,-2.0674 -9.758048,-5.8236 0.526675,-3.8537 4.709213,-4.0269 7.832892,-0.3229 l 2.683125,3.1806 -1.549105,-3.6433 c -0.851824,-2.0039 -1.186049,-4.5848 -0.742386,-5.7352 1.217076,-3.1579 6.176828,-2.4705 7.586482,1.0511 0.671458,1.6777 1.258549,2.2938 1.304693,1.3686 0.04664,-0.9251 1.29623,-1.6614 2.777869,-1.6366 2.118737,0.036 2.694769,0.9429 2.697627,4.2498 0.0034,3.5851 0.301052,3.9627 2.022699,2.5624 1.56991,-1.2771 2.45081,-1.2771 3.9608,7e-4 2.79236,2.3623 1.06962,5.4482 -3.08995,5.5351 l -3.559983,0.074 3.361213,0.9911 c 4.9671,1.4649 5.31176,5.6487 0.447,5.4308 -2.09152,-0.092 -4.586183,-0.4975 -5.543354,-0.8975 z m 13.184752,-5.0031 c -0.002,-2.5451 11.01248,-7.4907 15.20075,-6.825 4.44539,0.7069 4.63446,5.6827 0.28817,7.59 -5.31595,2.3332 -15.48663,1.8307 -15.48902,-0.765 z m -49.683066,-8.2969 c -4.648413,-2.3992 -8.810508,-5.3009 -9.2494,-6.4488 -1.150828,-3.011 4.610522,-7.3073 7.518683,-5.6068 4.423226,2.5866 13.879896,12.5013 13.372144,14.0201 -0.940493,2.8118 -3.090203,2.4492 -11.641427,-1.9645 z m 47.507566,2.0347 c -1.42491,-2.3254 9.99557,-11.9374 13.51541,-11.3753 4.4601,0.7126 3.67305,6.5478 -1.24512,9.2309 -5.75708,3.1405 -11.0888,4.0727 -12.27029,2.1444 z m -42.055984,-10.8547 c -6.45369,-6.946 -7.033949,-8.0524 -5.722615,-10.9129 2.30318,-5.0244 7.87139,-3.5021 11.800341,3.2267 6.020857,10.31 6.351909,11.3029 4.50307,13.5012 -0.939453,1.1171 -2.088556,2.005 -2.553522,1.973 -0.465019,-0.035 -4.077217,-3.5365 -8.027274,-7.788 z m 36.769224,5.5507 c -0.48274,-0.7878 0.71955,-4.6746 2.67161,-8.6376 4.84801,-9.8419 11.49753,-11.6904 11.50497,-3.1976 0.003,2.8594 -1.44998,5.0755 -5.62276,8.5783 -6.02281,5.0564 -7.18091,5.4974 -8.55382,3.2569 z m -27.472791,-12.173 c -6.337563,-9.0262 -6.58634,-10.309 -2.537583,-13.0776 4.299629,-2.9399 7.803316,-0.05 9.983216,8.2316 3.928983,14.9274 0.980208,16.8465 -7.445633,4.846 z m 20.549507,-0.9273 c 0.961013,-10.3682 3.093233,-13.5519 7.462224,-11.1418 1.569,0.8652 2.85362,2.7839 2.85498,4.2636 0.004,4.346 -6.531913,15.9569 -8.958934,15.9161 -1.891037,-0.036 -2.077739,-1.275 -1.35827,-9.0379 z m -9.126208,4.4854 c -3.907143,-12.8887 -3.765426,-19.9248 0.40001,-19.8549 4.227655,0.071 5.569024,3.073 5.577255,12.4821 0.0073,8.3061 -0.246206,9.1524 -2.728239,9.1109 -1.505119,-0.035 -2.966971,-0.8073 -3.249026,-1.7381 z m 85.025292,42.9466 c -0.21971,-20.2578 -0.14565,-20.8482 3.03713,-24.1871 4.39126,-4.6067 8.91327,-4.38 11.45857,0.5752 2.80813,5.4663 4.80172,19.0647 4.82575,32.9148 l 0.0216,11.7827 7.93789,0.1348 7.93799,0.1348 0.46251,-20.8332 c 0.45394,-20.4476 0.52846,-20.8983 4.02584,-24.339 4.70272,-4.6262 10.12934,-4.518 14.20582,0.2839 3.42481,4.0341 3.75146,6.5997 3.79217,29.7814 0.0249,14.3312 0.12442,14.828 3.05706,15.2936 l 3.0312,0.4812 -0.0187,-21.5512 c -0.0104,-11.953 -0.65831,-23.2498 -1.45492,-25.3659 -2.26939,-6.0293 -8.00391,-11.3312 -12.3342,-11.404 -5.46612,-0.092 -14.50351,9.2423 -17.70344,18.2858 -3.37129,9.5268 -6.47088,9.0467 -7.91559,-1.2264 -1.31223,-9.3303 -3.41599,-14.5946 -6.51602,-16.3043 -4.11734,-2.271 -11.44662,-1.6589 -15.25566,1.2747 -4.78408,3.6838 -10.22641,14.6112 -10.22142,20.5221 0.003,3.8637 -0.50304,4.749 -2.69629,4.7125 -2.54616,-0.043 -2.69314,0.8013 -2.57052,14.7688 l 0.12988,14.8142 6.49505,0.11 6.49504,0.11 -0.22558,-20.7648 z m 81.29934,18.0984 c -8.4e-4,-1.4752 1.20927,-3.4184 2.69016,-4.3186 2.35311,-1.4305 2.69119,-3.0947 2.68242,-13.2074 -0.005,-6.364 -0.39466,-11.9616 -0.86469,-12.4388 -0.47004,-0.4773 -2.30551,0.2484 -4.07904,1.6153 -1.77356,1.3658 -5.63094,2.8491 -8.57213,3.2966 l -5.34732,0.8133 0.027,10.3178 c 0.0404,15.3792 0.50186,16.3855 7.56135,16.5041 4.9979,0.085 5.90388,-0.3123 5.90195,-2.5823 z m 16.83841,1.6181 c -0.45854,-0.7484 -3.79284,-1.4105 -7.40951,-1.4712 -3.61686,-0.06 -6.95006,0.4893 -7.4072,1.2221 -0.51967,0.8329 2.25858,1.3843 7.4095,1.4709 5.15091,0.085 7.92824,-0.3715 7.40721,-1.2218 z m -358.18921,-10.0584 c 4.168055,0.071 4.60412,-0.2874 4.601079,-3.7743 -0.0015,-2.1188 -0.377639,-6.5698 -0.834861,-9.8916 l -0.831366,-6.0396 -5.907565,1.2522 -5.907554,1.2527 0.0084,9.343 c 0.0066,7.9665 0.321732,9.2281 2.13805,8.5616 1.171304,-0.4297 4.201802,-0.7466 6.734054,-0.704 z m 240.58938,-6.3931 -0.50283,-9.771 -4.60388,-0.078 c -4.16755,-0.071 -4.60342,0.2875 -4.60048,3.7743 0.002,2.1185 0.38663,6.6369 0.8552,10.041 0.7429,5.3963 1.30427,6.2547 4.38358,6.7022 1.94222,0.2839 3.85535,0.1952 4.25122,-0.1916 0.39594,-0.3879 0.4936,-5.1025 0.2172,-10.4765 z m -121.99271,5.3562 c -0.448089,-1.6738 -0.825233,-5.6191 -0.838075,-8.7667 -0.0227,-5.6398 -0.0902,-5.7246 -4.737877,-5.8026 -2.806613,-0.046 -4.764674,0.6011 -4.838584,1.6018 -0.831586,11.2635 -0.892572,13.8834 -0.343633,14.7794 0.352988,0.5763 3.101553,1.0891 6.107644,1.1395 5.010502,0.085 5.397676,-0.1597 4.650525,-2.9514 z m 245.64034,-4.3984 -0.009,-10.2093 -5.05045,0.6477 c -2.77782,0.3555 -5.50519,0.6625 -6.06077,0.6809 -1.80204,0.06 -1.14088,14.8902 0.68686,15.4065 1.42681,0.4027 9.06323,3.0737 10.10527,3.5344 0.18526,0.082 0.33292,-4.4453 0.32796,-10.0602 z m -246.736237,-16.2319 c 0.24425,-0.1952 -0.599189,-1.9623 -1.874212,-3.9265 l -2.318025,-3.5709 -2.503391,4.0791 c -1.377041,2.2434 -2.503168,4.3519 -2.502859,4.6862 -5.8e-4,0.5894 8.308684,-0.5553 9.198487,-1.2679 z m -118.720018,-5.2845 c -0.840927,-2.236 -1.869166,-4.071 -2.285292,-4.0781 -0.4157,0 -1.440987,1.7939 -2.278063,4.0014 -1.467374,3.8708 -1.385702,4.0163 2.285189,4.078 3.67076,0.06 3.752451,-0.082 2.278166,-4.0013 z m 241.166765,6.2039 c 0.69069,-0.6795 -3.34875,-10.2873 -4.33165,-10.304 -0.7695,0 -2.11297,3.0508 -4.0425,9.2207 -0.9517,3.0432 -0.77168,3.1692 3.42803,2.4002 2.43811,-0.4467 4.66383,-1.0394 4.94612,-1.3169 z m -215.720099,-9.3001 c 1.632572,-8.7131 12.117225,-17.8233 20.340459,-17.6743 4.365025,0.075 11.724049,4.3246 14.072921,8.1188 1.540081,2.4879 1.821567,2.4023 5.81231,-1.7644 4.838877,-5.0528 12.598869,-7.0049 18.5391402,-4.6646 3.6273685,1.4294 3.4802384,1.06 -2.7580876,-6.9176 -4.6773376,-5.9814 -9.0174466,-9.772 -14.9535666,-13.0597 -8.13425,-4.5057 -8.554842,-4.5901 -15.355077,-3.093 -13.251816,2.918 -25.110555,14.1446 -32.508543,30.7764 -4.857451,10.9204 -4.480981,12.5875 2.931013,12.9775 2.375996,0.1242 3.151696,-0.8148 3.879431,-4.6991 z m 26.667916,-20.8049 c -7.983232,-8.1081 -5.153857,-17.0529 5.338555,-16.8769 10.16311,0.1703 15.624361,12.1996 8.517343,18.7605 -4.406104,4.067 -8.551659,3.5039 -13.855898,-1.8836 z m 9.977074,-5.0361 c 0.301977,-2.5525 -0.521831,-4.1369 -3.025348,-5.8179 -6.940177,-4.6599 -10.144052,0.7381 -4.088226,6.8885 4.053173,4.1167 6.544343,3.7416 7.113574,-1.0706 z m 299.010129,32.8683 c -1.48212,-3.2707 -1.70979,-3.3488 -3.33954,-1.1455 -2.54527,3.4414 -2.16662,4.5361 1.5916,4.5993 3.10208,0.05 3.22581,-0.1916 1.74794,-3.4538 z m -256.998655,-32.4794 -0.02519,-28.9513 -47.817702,-0.8034 -47.817703,-0.8034 0.09536,28.6157 0.09437,28.616 3.026471,-8.0287 c 6.033561,-16.0054 17.38392,-28.8544 30.929731,-35.014 12.831658,-5.8346 16.027211,-6.0805 24.346178,-1.8737 12.972971,6.5603 33.297003,30.7281 35.177464,41.8302 0.497972,2.94 1.155366,5.3495 1.46066,5.3548 0.3052,0 0.543654,-13.019 0.529767,-28.9422 z m -86.7897,-8.2873 c -1.165215,-1.1831 -2.119043,-2.7686 -2.119672,-3.5226 6.62e-4,-0.7545 -1.303047,-2.4464 -2.89417,-3.7601 -4.336096,-3.5805 -1.638401,-7.518 5.148748,-7.5152 2.8291,0 6.126048,-0.4329 7.32645,-0.9645 1.349342,-0.5972 3.021194,-0.1135 4.378845,1.264 2.854963,2.8999 2.77019,4.1685 -0.493551,7.3793 -1.480255,1.4563 -2.690802,3.5354 -2.689825,4.6202 0.0012,1.0848 -1.170188,2.5802 -2.602459,3.3229 -3.368031,1.7462 -3.547962,1.7218 -6.054366,-0.824 z m 4.614759,-3.7867 c -8.13e-4,-1.067 -0.544584,-2.2845 -1.208225,-2.7054 -1.387257,-0.88 -3.056121,2.5557 -1.840904,3.7899 1.446677,1.4694 3.050889,0.8988 3.049129,-1.0845 z m -4.720821,-7.5644 c -0.45843,-0.7484 -1.40412,-1.3701 -2.101127,-1.3818 -0.697,0 -1.266969,0.5844 -1.266277,1.325 0.0021,0.7406 0.946088,1.3626 2.100934,1.3822 1.155419,0.035 1.7249,-0.577 1.26647,-1.3254 z m 8.081783,0.1348 c -0.458423,-0.748 -1.40402,-1.3701 -2.101027,-1.3818 -0.6971,0 -1.267062,0.5848 -1.26637,1.3254 0.0021,0.7406 0.946187,1.3626 2.101027,1.3818 1.155219,0.035 1.7249,-0.577 1.26637,-1.3254 z m 60.323601,11.4495 c -0.7173799,-0.9379 -1.6833991,-2.7718 -2.1467474,-4.0756 -0.4631535,-1.3041 -1.7056667,-2.3853 -2.7608813,-2.4031 -1.7878193,-0.035 -3.5562223,-2.7675 -3.5585833,-5.5088 -0.0024,-2.3406 5.2642511,-4.0474 7.9380206,-2.5727 1.8960944,1.0462 2.9790647,0.9031 4.20538883,-0.555 1.99604717,-2.3732 5.58185127,-2.4861 7.78867247,-0.2448 2.128721,2.1621 2.0756819,7.4264 -0.088393,8.7515 -0.9413122,0.5763 -2.4418311,2.7022 -3.3345939,4.7238 -1.7161971,3.8864 -5.7833467,4.8396 -8.0433827,1.8847 z m 3.66221373,-5.1526 c -0.002048,-2.3786 -0.33879173,-2.5847 -2.00660483,-1.2278 -2.0257741,1.6476 -1.5919435,4.0252 0.7417459,4.0642 0.6968,0 1.26624299,-1.2647 1.26485893,-2.8364 z m -5.39230773,-5.3122 c -0.00209,-0.7405 -0.9103754,-1.3619 -2.0216024,-1.3804 -1.1115187,-0.035 -2.0199936,0.5717 -2.0194016,1.3123 0.0021,0.7409 0.9104754,1.3619 2.0217095,1.3808 1.1116187,0.035 2.0199866,-0.5721 2.0192945,-1.3127 z m 10.0299409,-1.2931 c -0.4343335,-0.709 -1.363579,-0.9435 -2.0648278,-0.522 -0.70134,0.422 -0.91979334,1.3467 -0.4856598,2.0557 0.4344335,0.709 1.3636807,0.9436 2.0648277,0.522 0.7014418,-0.4219 0.919988,-1.347 0.4856599,-2.0557 z m 244.1557161,51.0767 c 2.4596,-0.8481 4.47146,-2.0503 4.47087,-2.6717 -0.002,-2.6558 -6.27092,-13.1365 -12.84288,-21.472 -17.48791,-22.1811 -30.29177,-28.6334 -44.49126,-22.4217 -5.64941,2.4716 -21.27149,15.8284 -23.63221,20.2056 -1.28382,2.3803 -1.09185,2.3736 3.74405,-0.1384 10.69037,-5.551 19.20912,-2.0582 24.71292,10.1326 1.43333,3.1749 2.61862,5.0013 2.63417,4.0595 0.0536,-3.2547 11.03348,-13.5264 15.77315,-14.7553 11.00158,-2.8527 23.20153,9.4651 23.29601,23.5214 0.0379,5.6496 0.10053,5.6869 6.33516,3.5389 z m -48.75391,-25.7509 c -7.09876,-1.8357 -10.64032,-9.3512 -7.31337,-15.52 2.88271,-5.3452 14.60926,-7.2998 19.62427,-3.2714 4.93376,3.963 2.72417,14.74 -3.67919,17.944 -3.93132,1.9673 -4.19956,1.9936 -8.63171,0.8474 z m 8.41155,-8.0407 c 5.60971,-7.0478 -3.25511,-13.1925 -10.0215,-6.9463 -3.89994,3.6004 -3.93011,5.7068 -0.12056,8.4367 3.32097,2.3797 7.55738,1.7573 10.14226,-1.4904 z m -293.288601,12.9707 -0.01326,-15.4856 -5.387873,-0.089 -5.387973,-0.089 0.01199,13.723 c 0.01023,11.8419 0.261652,13.387 1.825946,11.271 2.129787,-2.88 4.555322,-1.775 6.317779,2.8782 0.678261,1.791 1.551456,3.2615 1.940177,3.2683 0.3887,0 0.700821,-6.9567 0.693356,-15.4739 z m 111.064016,10.6188 c 1.0255,0 2.171532,0.7938 2.545911,1.726 0.374673,0.9318 0.725557,-2.0163 0.780186,-6.5514 0.05423,-4.5354 0.476367,-10.1333 0.937286,-12.4402 0.830454,-4.1547 0.786552,-4.1944 -4.717985,-4.287 l -5.556326,-0.092 0.06612,14.4768 c 0.06231,13.6055 0.187014,14.256 2.072746,10.8071 1.103524,-2.0181 2.845687,-3.655 3.871487,-3.638 z m 241.179135,5.3988 c 1.33373,-2.94 2.93725,-5.3367 3.56344,-5.3261 0.6261,0 2.00181,2.0028 3.05687,4.4276 1.79483,4.1252 1.92431,3.3264 2.01344,-12.4314 l 0.0952,-16.8401 -6.39757,0.3691 c -3.51893,0.2023 -6.90908,0.8442 -7.53393,1.4237 -1.34465,1.248 0.39533,33.683 1.80826,33.7068 0.5329,0 2.06066,-2.3893 3.39428,-5.3296 z m -117.92389,-6.3463 c 2.6946,1.7026 2.75478,1.4812 2.74476,-10.0886 l -0.0104,-11.8295 -5.38742,0.423 -5.38752,0.4233 0.0415,12.9882 0.0415,12.9881 2.60147,-3.3226 c 2.26867,-2.8977 2.95379,-3.1 5.35653,-1.5819 z m 108.47694,-47.0966 c -0.015,-0.053 -22.6067,-0.2093 -50.20271,-0.3513 l -50.17432,-0.2555 0.0208,12.3001 c 0.006,6.7646 0.41007,17.274 0.88805,23.3541 l 0.86942,11.0545 3.81993,-8.0254 c 4.32121,-9.0783 15.98757,-21.8311 25.23997,-27.5901 16.80707,-10.4612 32.09232,-7.007 48.79212,11.0264 6.10586,6.5936 16.68115,21.867 18.23916,26.3421 0.78601,2.2573 1.40562,-5.1411 1.85849,-22.187 0.37386,-14.0651 0.66686,-25.6164 0.65113,-25.6689 z m -92.21201,14.888 c -0.66725,-1.7615 -2.16919,-3.5854 -3.33766,-4.0531 -3.12037,-1.2491 -2.59099,-5.9851 0.90012,-8.0546 3.43155,-2.0337 15.30832,-1.7072 17.46208,0.4801 2.03423,2.066 0.14172,8.0166 -2.83177,8.9108 -1.39966,0.4206 -2.8554,1.9514 -3.23527,3.4017 -1.03081,3.9364 -7.39131,3.4503 -8.9575,-0.6849 z m 4.58636,-0.6866 c 0.42574,-0.6821 0.15745,-1.6317 -0.59579,-2.1093 -0.75335,-0.478 -1.36889,0.074 -1.36784,1.2307 0.003,2.3651 0.81061,2.727 1.96363,0.8786 z m -3.31701,-8.2653 c -5.6e-4,-0.6736 -0.90658,-0.8925 -2.01321,-0.4865 -1.10652,0.4059 -1.67008,1.2966 -1.25213,1.9783 0.87423,1.4269 3.267,0.3335 3.26534,-1.4918 z m 10.01642,1.693 c 0.40931,-0.6562 -0.10308,-1.5319 -1.1374,-1.9461 -1.97587,-0.7906 -3.49139,0.057 -3.48979,1.9518 0.002,1.5038 3.68841,1.4996 4.6273,0 z m 63.62797,10.8029 c -0.49416,-0.5018 -0.89946,-2.0234 -0.90067,-3.3814 -0.003,-1.3577 -0.93052,-2.4844 -2.06496,-2.5036 -3.11503,-0.053 -3.94382,-3.8874 -1.43138,-6.6234 2.46427,-2.683 12.38622,-3.2682 15.27328,-0.9006 2.52165,2.0681 2.03587,6.1642 -0.91232,7.6926 -1.43079,0.7416 -2.98533,2.555 -3.45457,4.029 -0.82176,2.5816 -4.65142,3.5742 -6.50938,1.6874 z m 4.48609,-4.4925 c -0.002,-0.6969 -0.60738,-1.2775 -1.34811,-1.2899 -0.7406,0 -1.34629,0.9223 -1.34519,2.0766 -4.7e-4,1.1547 0.60758,1.7353 1.34811,1.2899 0.74042,-0.4453 1.34571,-1.3797 1.34519,-2.0766 z m 4.03579,-5.8328 c 0.006,-0.3265 -0.60701,-0.9787 -1.34822,-1.4489 -0.74131,-0.4701 -1.34726,-0.2129 -1.34649,0.5714 3.2e-4,0.7842 0.60738,1.4361 1.3483,1.4485 0.7406,0 1.34667,-0.2449 1.34641,-0.571 z m -112.74718,10.6077 c -0.16413,-8.266 0.23646,-15.977 0.88999,-17.1353 1.36095,-2.4119 2.01772,-0.2022 3.35457,11.2845 0.84256,7.2383 2.20126,8.8107 7.72246,8.9349 3.95927,0.089 4.25647,-0.6803 5.84367,-15.1282 l 0.85994,-7.8268 -22.19983,-0.035 c -12.2095,0 -24.41052,0.2022 -27.11308,0.4708 l -4.91372,0.4908 6.46599,3.1274 c 7.06893,3.4187 17.76581,14.2276 24.04197,24.2942 2.19955,3.5276 4.30237,6.4417 4.67276,6.475 0.37062,0.035 0.53923,-6.7018 0.375,-14.9678 z m -11.84172,-5.3746 c -0.45861,-0.748 -0.50204,-1.8921 -0.0979,-2.5419 0.40502,-0.6493 -0.469,-1.5163 -1.94285,-1.9261 -5.01707,-1.3957 -3.02178,-7.5904 2.03018,-6.3026 0.74103,0.1881 2.86271,0.4475 4.71487,0.5752 2.41115,0.1668 3.36823,0.9968 3.36991,2.9251 6.8e-4,2.017 -0.78292,2.5951 -3.1263,2.3023 -2.85269,-0.3559 -2.9405,-0.1987 -0.99621,1.7753 1.17275,1.1909 1.78832,2.7168 1.36794,3.3907 -1.01611,1.6288 -4.27576,1.5074 -5.32081,-0.1987 z m -84.861969,12.0672 c 3.09081,-5.9335 17.969417,-21.0877 23.46736,-23.9024 l 4.809978,-2.462 -24.582449,-0.4723 -24.58235,-0.4723 0.02588,9.0896 c 0.04005,13.749 0.676498,15.1602 6.886844,15.2646 l 5.230773,0.089 0.01,-5.7228 c 0.01437,-8.1983 1.465231,-15.8656 2.837925,-14.9948 0.646751,0.4102 1.177729,3.045 1.180206,5.8551 0.0055,6.1933 1.574016,21.6892 2.196603,21.6998 0.2459,0 1.379291,-1.7824 2.518917,-3.9701 z m 1.293869,-13.5612 c -0.488901,-0.7977 -0.535004,-1.7991 -0.103331,-2.2249 0.432679,-0.4255 -0.212481,-1.5206 -1.433108,-2.4329 -1.269874,-0.9489 -1.868723,-2.5695 -1.399253,-3.7874 1.134859,-2.9439 10.877063,-2.2026 11.470126,0.8726 0.571918,2.9652 -2.100407,4.3271 -4.502831,2.2949 -1.382271,-1.1693 -1.962448,-1.2133 -1.961536,-0.1491 7.19e-4,0.8311 0.607399,1.5216 1.34822,1.5341 0.7407,0 1.348122,1.2345 1.349406,2.7157 0.0022,2.8399 -3.256874,3.6444 -4.768798,1.1767 z m -126.621446,5.7051 c 0.285615,-0.9212 0.821267,-6.3658 1.190313,-12.0992 l 0.670716,-10.4246 -5.092301,-0.085 -5.091903,-0.085 -0.858238,8.2625 c -1.60657,15.4675 -1.492389,15.9359 3.905218,16.0268 2.62936,0.043 4.988974,-0.669 5.276207,-1.5948 z m 361.719346,-7.3399 -0.009,-10.4839 -8.25814,-0.1384 -8.25805,-0.1384 0.83932,5.0638 c 0.46143,2.785 0.84794,7.5092 0.85878,10.4981 l 0.0201,5.4347 7.4084,0.1242 7.40839,0.1242 -0.009,-10.4843 z M -84.918867,-1437.76 c -0.45843,-0.7484 -2.919473,-1.3957 -5.468532,-1.4386 -2.549259,-0.043 -4.634458,0.5284 -4.633768,1.2689 0.0021,0.7406 2.461435,1.3879 5.468426,1.4383 3.302008,0.057 5.137402,-0.4468 4.633874,-1.2686 z m 14.797593,-17.5931 c -1.419391,-25.5288 -1.435555,-25.6682 -3.388932,-29.3438 l -1.773392,-3.3371 -1.712661,4.9293 c -0.942174,2.7111 -2.129967,12.7184 -2.639867,22.2389 -1.071131,20.0008 -0.19973,23.1913 6.36412,23.3016 l 4.143785,0.067 z m 11.763449,1.2076 c -0.433481,-18.5363 -2.899122,-36.0013 -4.98998,-35.3427 -0.776272,0.2448 -1.962389,1.9975 -2.635927,3.896 -0.935973,2.6376 -0.683479,4.0006 1.07062,5.7824 2.087267,2.1195 2.10743,2.6152 0.222285,5.4637 -1.590426,2.4027 -2.069877,7.0836 -2.05842,20.0976 l 0.0146,16.9647 4.377352,-0.3478 4.377254,-0.3477 z m 14.243201,0.2377 c 0.21776,-8.8835 -0.194295,-18.2826 -0.915733,-20.8869 -0.721436,-2.6042 -1.81892,-7.0609 -2.438968,-9.9033 -1.375597,-6.3072 -3.060227,-6.8746 -5.78704,-1.9482 -1.89915,3.4308 -1.875325,3.8509 0.289533,5.1213 2.860679,1.6789 3.03137,4.4389 0.432461,6.9953 -1.564394,1.539 -1.776677,5.2565 -1.12334,19.6722 l 0.805512,17.7744 4.17094,-0.3371 4.170742,-0.3371 z m 14.06557,14.0385 c 1.106282,-3.05 0.107538,-31.1724 -1.393964,-39.2507 -1.878782,-10.1077 -3.495315,-11.8519 -6.190654,-6.6781 -1.578528,3.0305 -1.691235,4.3368 -0.480094,5.5667 1.210943,1.2299 1.19555,2.2203 -0.06488,4.2207 -1.080602,1.7139 -1.642389,8.6443 -1.632423,20.137 l 0.01528,17.5239 4.570378,0.078 c 2.51356,0.043 4.84325,-0.676 5.176984,-1.5962 z m 13.131046,-21.3915 c -0.01426,-16.3234 -0.503508,-23.7874 -1.638063,-24.9389 -2.422799,-2.4606 -3.282054,-2.0678 -5.116949,2.3392 -1.29473,3.1096 -1.309367,4.4538 -0.06443,5.9722 1.169017,1.4265 1.214768,2.6852 0.167776,4.6259 -0.792905,1.4705 -1.431622,9.9548 -1.42384,18.9142 l 0.01402,16.2475 4.040784,0.067 4.040985,0.067 -0.02022,-23.2959 z m 12.3045001,18.4526 c 0.7306711,-22.8326 0.5224079,-43.1442 -0.4626774,-45.1176 -1.6540716,-3.3133 -3.0857572,-2.9957 -4.9639347,1.1011 -1.325475,2.8921 -1.240037,3.9294 0.4830948,5.8602 1.9018695,2.1309 1.8453786,2.6575 -0.6177528,5.75 -2.392498,3.0039 -2.70993,5.4006 -2.696963,20.361 l 0.01485,16.9565 4.0409845,0.067 c 3.7421314,0.064 4.0529048,-0.3052 4.2023825,-4.979 z m 13.3060104,2.5801 c -0.00119,-1.4811 1.2088292,-3.8846 2.6890845,-5.3409 2.330076,-2.2924 2.690155,-4.4432 2.68006,-16.0111 -0.01994,-22.9355 -3.566615,-31.6508 -10.0204824,-24.6232 -2.1841569,2.3783 -2.1894952,2.7608 -0.085904,6.0017 2.1504646,3.3129 2.1119338,3.594 -0.8989613,6.5528 -3.01070212,2.9584 -3.12585988,3.798 -2.68193692,19.5366 l 0.46391228,16.4451 3.92803134,0.064 c 3.0301838,0.05 3.9276825,-0.5497 3.9258606,-2.627 z m 11.0827025,0.5149 c -4.096625,-2.1057 -4.571156,-2.1075 -6.686819,-0.035 -2.1389,2.1043 -1.871372,2.2417 4.409466,2.2665 l 6.687019,0.035 z m 26.896587,-13.0058 c 0.382796,-12.2642 0.03888,-16.6492 -1.530677,-19.5374 -1.583401,-2.9133 -1.669597,-4.0727 -0.396147,-5.3257 2.231203,-2.1947 2.044733,-8.4551 -0.311397,-10.448 -1.596469,-1.3502 -2.204341,-0.7434 -3.487792,3.4794 -1.590861,5.2348 -4.202123,44.6537 -3.080154,46.4961 0.34172,0.5611 2.351749,1.0493 4.466777,1.0848 l 3.845531,0.064 z m 15.402597,8.338 c -0.412904,-3.5244 -1.117202,-11.8681 -1.564867,-18.5412 -1.795002,-26.7626 -2.919997,-31.0106 -6.826907,-25.7786 -1.060201,1.4198 -1.970578,3.5255 -2.02309,4.6788 -0.0526,1.154 -0.270024,4.5184 -0.483514,7.4775 -0.213096,2.9588 -0.06879,12.8079 0.320911,21.8869 l 0.709609,16.5072 5.309074,0.089 5.309073,0.089 z m 9.902036,-18.0093 c -0.422655,-14.8749 -1.31121,-25.6373 -2.249489,-27.2427 -1.431292,-2.4489 -1.718078,-2.2558 -3.717137,2.5039 -1.936413,4.6096 -1.949537,5.4002 -0.125004,7.4442 2.480838,2.7796 2.543324,3.9328 0.361427,6.6539 -1.194266,1.4897 -1.55706,6.881 -1.251593,18.6001 l 0.430131,16.5027 3.624961,0.06 3.62496,0.06 -0.698773,-24.5887 z m 13.48071,8.6216 c -0.0089,-10.2621 -0.607008,-17.135 -1.63537,-18.796 -1.276348,-2.0618 -1.244068,-3.3187 0.151096,-5.9059 1.245769,-2.3098 1.399857,-4.4091 0.518598,-7.0599 -1.752492,-5.2717 -3.933905,-5.5326 -6.416068,-0.7675 -1.742177,3.3445 -1.817518,4.5584 -0.42259,6.8114 1.353455,2.1867 1.359358,3.2786 0.02926,5.3889 -1.768805,2.8055 -2.256419,22.4 -0.779159,31.3129 0.742598,4.4801 1.284442,5.0709 4.704059,5.1284 l 3.864531,0.064 -0.01418,-16.1776 z m 12.121828,-1.045 c -0.0092,-10.6968 -0.560869,-17.772 -1.427693,-18.322 -0.853573,-0.5415 -1.07716,-3.1373 -0.565208,-6.5624 0.619718,-4.1454 0.318022,-6.1138 -1.124045,-7.3338 -2.996915,-2.5351 -3.666763,1.4276 -4.557904,26.9602 l -0.786616,22.5416 4.238155,0.071 4.238356,0.071 z m 14.350737,15.3102 c -0.36431,-1.3019 -1.07623,-8.8888 -1.58203,-16.8592 -0.50579,-7.9701 -1.52204,-14.8738 -2.25848,-15.3408 -0.73646,-0.467 -0.98951,-2.7434 -0.56233,-5.0585 0.42718,-2.3147 0.30591,-5.9509 -0.26983,-8.0797 -0.96468,-3.5681 -1.19687,-3.6923 -2.96677,-1.5876 -1.45011,1.7242 -2.04572,8.0144 -2.43299,25.6937 l -0.51264,23.411 5.62389,0.096 c 4.70958,0.078 5.51595,-0.291 4.96122,-2.2732 z m 11.00724,-14.1516 c -0.36703,-10.8288 -1.17193,-17.4419 -2.28862,-18.8042 -1.17913,-1.4386 -1.31895,-2.8652 -0.44324,-4.5227 1.34238,-2.5404 0.0687,-7.6198 -2.28711,-9.1134 -2.61472,-1.6586 -3.86733,3.924 -3.58969,15.9983 0.15287,6.6678 0.39037,16.8217 0.52727,22.5636 l 0.24956,10.4399 4.19936,0.071 4.19955,0.071 z m 8.32856,13.4668 c 0.70248,-1.84 1.89856,-3.3346 2.65778,-3.3218 2.26289,0.039 1.78984,-38.3228 -0.49665,-40.2568 -2.80078,-2.369 -5.33688,1.4039 -4.25441,6.3296 0.5061,2.302 0.27378,4.3431 -0.55007,4.8385 -1.90721,1.1469 -1.9212,35.7 -0.0141,35.7323 0.759,0 1.9553,-1.4822 2.65768,-3.3218 z m 9.43126,2.9957 c -0.001,-1.2775 -4.03377,-1.989 -4.75133,-0.8386 -0.4373,0.7009 0.453,1.2956 1.97836,1.3212 1.52551,0.035 2.77321,-0.1916 2.77297,-0.4826 z m 25.64892,-15.1985 c -0.57338,-28.1359 -2.06848,-34.8789 -6.0404,-27.2544 -1.66015,3.1873 -2.12756,8.4423 -2.1142,23.7693 l 0.0171,19.6775 4.22689,-0.3513 4.22689,-0.3513 z m 16.01842,5.9917 c -0.0485,-5.7405 -0.68514,-13.4771 -1.41312,-17.1921 -0.72808,-3.7153 -1.33255,-7.9055 -1.34339,-9.3114 -0.0109,-1.4063 -0.97788,-4.4219 -2.14887,-6.7015 l -2.12907,-4.1447 -2.53782,3.0936 c -1.97474,2.4074 -2.19,3.5181 -0.97081,5.0056 1.18271,1.4429 1.18878,2.7367 0.0253,5.2757 -1.63159,3.5592 -2.15467,31.7653 -0.61798,33.326 0.49438,0.5021 3.22233,0.9521 6.06217,0.9996 l 5.16341,0.085 -0.0895,-10.4374 z m 14.89217,-5.3931 c -0.008,-9.2667 -0.58486,-16.4416 -1.36176,-16.9341 -0.74122,-0.4702 -1.3489,-2.3641 -1.3504,-4.209 -10e-4,-1.8445 -0.99212,-5.2788 -2.20094,-7.6326 l -2.19793,-4.2785 -2.34095,2.8538 c -2.05051,2.4996 -2.26971,5.3278 -1.76735,22.7942 0.31527,10.9668 0.83137,20.702 1.14662,21.6331 0.31527,0.9312 2.71377,1.7289 5.32994,1.7729 l 4.75676,0.082 z m 16.57345,-0.2626 c -0.33776,-8.2685 -1.10923,-16.2538 -1.71449,-17.7453 -0.60527,-1.4915 -1.8748,-5.2998 -2.82132,-8.4633 -2.01886,-6.7466 -3.20366,-7.1536 -5.8779,-2.0199 -1.55349,2.9819 -1.82361,7.8062 -1.29402,23.1076 0.36833,10.6365 0.89715,19.7105 1.17527,20.1647 0.27843,0.4539 2.90008,0.6377 5.82641,0.4077 l 5.32011,-0.418 z m 12.94356,-4.37 c -0.21686,-14.3036 -0.85666,-20.9785 -2.28268,-23.8361 l -1.98067,-3.9694 -2.31899,3.0379 c -1.92707,2.5248 -2.36482,6.5382 -2.59108,23.7544 l -0.27219,20.7162 4.87356,0.082 4.87374,0.082 z m 14.93281,5.0698 c -0.0105,-12.14 -0.44589,-15.5278 -2.25625,-17.5562 -1.89412,-2.1224 -1.97764,-3.0056 -0.53666,-5.6773 1.66976,-3.0962 0.91834,-8.8846 -1.15788,-8.9194 -0.5758,0 -2.14567,1.1782 -3.48794,2.6398 -2.06171,2.2448 -2.18994,3.2108 -0.82604,6.2203 1.33187,2.9393 1.24235,3.9677 -0.51149,5.8775 -1.72479,1.8782 -2.04913,5.1408 -1.71926,17.295 l 0.40642,14.9803 5.0511,0.085 5.05114,0.099 z m 8.09212,11.8125 c 0.73813,-1.9329 2.34779,-3.3272 3.81283,-3.3023 2.11371,0.035 2.67805,-1.3318 3.39349,-8.2199 1.8919,-18.2145 0.3627,-32.1139 -3.54046,-32.1795 -2.32899,-0.039 -6.28314,5.9378 -5.54854,8.3874 0.40136,1.3385 0.0708,3.2157 -0.73275,4.172 -1.67038,1.9862 -1.39325,34.4183 0.2945,34.4609 0.5736,0 1.61835,-1.4791 2.32093,-3.3186 z m 7.07374,2.5933 c -0.92617,-0.389 -2.44152,-0.4145 -3.36741,-0.057 -0.92566,0.358 -0.16793,0.6767 1.68432,0.7076 1.85211,0.035 2.60955,-0.2626 1.68309,-0.6508 z m -340.023622,-27.4262 c 0.859238,-11.6226 1.558337,-24.8087 1.553408,-29.3019 l -0.0042,-4.8628 c 0.609599,-4.6802 -1.893084,-3.0871 -5.726835,-2.64 -4.046006,0.4651 -5.673406,-0.518 -5.847984,3.5665 l -1.011514,23.6656 c -0.624626,14.6101 -0.822526,27.3832 -0.439937,28.3839 0.382591,1.0007 2.770263,1.9325 5.306004,2.0706 l 4.610454,0.2519 z m 114.713375,-9.1315 -0.02284,-26.2241 c 0.0923,-4.8011 0.332018,-3.3951 -4.60724,-3.4788 -8.741671,-0.1454 -8.407343,-1.3544 -7.898677,28.5287 l 0.463302,27.2264 4.361758,1.6551 c 8.103555,3.0748 7.731505,4.4126 7.703586,-27.7079 z m 244.312627,22.1313 c 0.48519,-6.3704 1.26282,-18.7794 1.72884,-27.5752 l 0.70304,-13.2743 c 0.22823,-3.4875 0.61977,-2.71 -2.75939,-2.7671 l -4.65462,-0.079 -5.02598,-0.085 c -3.20115,-0.086 -2.52481,-0.5225 -2.57041,2.5704 l -0.33366,22.6285 c -0.20478,13.883 0.12732,25.9716 0.73779,26.8633 0.96379,1.4081 2.92325,2.022 9.80762,3.0731 0.92481,0.1419 1.81775,-4.1437 2.36675,-11.3565 z m -123.83492,-19.5455 c -0.1539,-11.2859 0.39029,-21.1791 0.60229,-25.6303 0.20461,-4.296 -3.69714,-3.638 -6.891,-4.0063 -5.47939,-0.6319 -6.33583,-0.8786 -6.24737,2.0747 l 0.74804,24.9746 c 0.54124,18.0701 1.37104,28.4617 2.32457,29.1136 0.81556,0.5581 3.06427,1.0503 4.99713,1.094 l 3.51416,0.082 0.95221,-27.7001 z m 32.35902,-12.0701 c 1.12832,-2.166 2.0513,-4.2714 2.051,-4.6784 -0.001,-1.2619 -6.5318,-0.9223 -7.34554,0.3822 -0.68383,1.0958 1.75473,8.2096 2.82024,8.2273 0.2324,0 1.346,-1.765 2.4743,-3.9311 z m 32.32741,0.5433 c 2.73556,-5.2515 2.6786,-5.408 -1.99048,-5.4864 -2.22249,-0.039 -4.0405,0.5095 -4.03983,1.215 8.6e-4,1.4666 2.91692,8.1919 3.55621,8.2025 0.2324,0 1.34589,-1.7651 2.4741,-3.9311 z m -15.06194,-1.8861 c 2.84092,-4.9484 1.53541,-7.0247 -3.653,-5.8097 -2.68748,0.6292 -3.40381,1.4308 -2.73334,3.0582 0.49985,1.2132 1.21453,3.271 1.58835,4.5734 0.96906,3.3754 2.0502,2.9648 4.79799,-1.8219 z m 46.01365,-1.4627 c -4.28038,-1.0223 -5.72275,0.1952 -4.40537,3.7242 l 1.26371,3.3839 2.55122,-3.32 c 2.09559,-2.7271 2.20123,-3.4034 0.59044,-3.7881 z m -286.221877,-6.7302 c 0.02619,-0.555 -1.468593,-1.0348 -3.320538,-1.0656 -3.878031,-0.064 -3.8983,0 -1.766526,4.6937 l 1.599904,3.5301 1.72025,-3.0745 c 0.945902,-1.6913 1.74122,-3.5287 1.76691,-4.0837 z m 15.276229,-1.0901 c -0.677623,-1.2062 -5.011175,-1.4354 -6.140072,-0.3265 -0.432972,0.4258 -0.155056,2.5933 0.617338,4.8161 l 1.40475,4.0418 2.345393,-3.7565 c 1.289973,-2.0663 2.087583,-4.2153 1.772566,-4.7763 z m 183.310768,9.3664 c 1.38193,-3.5854 0.9067,-5.9342 -1.20813,-5.9697 -1.34722,-0.035 -2.0193,1.3126 -2.01689,4.0056 0.004,4.3168 1.87809,5.4584 3.22502,1.9641 z m 73.54911,-4.7345 c -2.4813,-1.6181 -4.18342,-1.6923 -6.46716,-0.2803 -1.40941,0.8705 -1.42649,1.7995 -0.0881,4.7526 l 1.6634,3.6706 3.45679,-3.4116 c 2.93087,-2.8924 3.14914,-3.6124 1.43528,-4.7299 z m -63.43269,1.8446 c -1.99129,-0.7175 -3.00136,0.6526 -1.85756,2.5195 0.72532,1.1838 1.27136,1.1291 2.11203,-0.213 0.66603,-1.0617 0.561,-2.0141 -0.2544,-2.3079 z m -236.357472,-8.348 c -1.037635,-1.6934 -2.34962,-1.5511 -5.329176,0.5784 -2.245533,1.6046 -2.325624,2.1199 -0.647634,4.1671 1.78929,2.183 2.072001,2.144 4.319173,-0.5955 1.322301,-1.6121 2.068292,-3.4794 1.657637,-4.15 z m 53.857386,5.5655 c 0.466027,-1.209 0.569964,-2.4797 0.231179,-2.8239 -1.07154,-1.0884 -3.487865,1.0202 -3.486033,3.0415 0.0027,2.6412 2.209486,2.4939 3.254773,-0.2165 z m -42.560067,-2.6568 c 1.544585,-2.4503 1.465274,-2.7281 -0.672791,-2.3527 -1.333459,0.2342 -2.626396,1.4766 -2.873212,2.7598 -0.6162,3.2018 1.418073,2.9683 3.546003,-0.4071 z m 61.9168384,-0.9595 c 1.5813138,-0.9326 -5.1883831,-1.368 -7.66611331,-0.4929 -2.55396009,0.9017 -2.83266079,1.473 -1.50727399,3.0901 1.41543123,1.7271 2.08949105,1.7022 5.2048129,-0.1916 1.9682468,-1.1966 3.7541071,-2.2793 3.9685744,-2.4056 z m 120.8394846,4.0326 c -7.6e-4,-1.049 -1.41297,-2.1309 -3.1376,-2.4042 -2.8226,-0.4471 -2.98154,-0.2058 -1.59057,2.4116 1.66198,3.127 4.7309,3.1224 4.7283,0 z m -76.105929,-3.2658 c -0.003,-1.9793 -2.878013,-2.7047 -4.479167,-1.1295 -1.217034,1.1973 1.804723,4.6795 3.287159,3.7878 0.656525,-0.3946 1.192872,-1.5912 1.192008,-2.6583 z m 12.684869,1.4464 c 1.059328,-2.7476 0.161733,-3.7373 -2.503085,-2.7597 -1.183321,0.4344 -1.717244,1.638 -1.258428,2.8382 1.038533,2.7171 2.697317,2.6823 3.761521,-0.078 z m 38.40213,0.9582 c 2.02367,-2.4063 -0.22187,-3.9982 -4.026752,-2.8545 -2.197526,0.6604 -2.432891,1.2168 -1.167702,2.7604 1.996554,2.4358 3.206144,2.4578 5.194394,0.096 z m -26.065021,-3.7069 c -2.876771,-0.6093 -4.045405,0.39 -2.811299,2.4042 0.667351,1.089 1.524873,1.0337 3.038449,-0.1952 1.899818,-1.5433 1.877448,-1.7622 -0.227031,-2.2079 z m 102.602161,1.2821 c 3.28455,-1.2303 5.34941,-1.2555 8.27738,-0.1029 2.26065,0.8907 4.66841,1.0639 5.72498,0.412 2.1272,-1.3126 11.07972,-1.4077 12.33639,-0.1313 1.26246,1.2821 18.53503,1.7498 19.30064,0.5231 1.03593,-1.6611 9.17533,-1.0728 11.74651,0.8488 2.79746,2.0908 18.8189,1.4034 21.16854,-0.9081 1.6623,-1.6352 0.48086,-7.1695 -1.53774,-7.2036 -0.6908,0 -1.25479,1.494 -1.25327,3.3452 0.004,4.2463 -3.6834,4.4744 -4.28359,0.2662 -0.36656,-2.5713 -1.25913,-3.0507 -5.81919,-3.1274 -4.4877,-0.074 -5.38626,0.3588 -5.38559,2.6025 0.002,1.4954 -0.89805,2.6782 -2.01989,2.6593 -1.11202,-0.035 -2.02301,-1.2281 -2.02592,-2.6883 -0.001,-2.274 -1.01903,-2.7055 -7.0742,-3.0096 -6.12506,-0.3087 -7.0681,0 -7.06643,2.1991 -1e-5,1.4045 -0.90703,2.5386 -2.01836,2.5198 -1.11141,-0.035 -2.02142,-1.1554 -2.02255,-2.5262 -9.6e-4,-1.8847 -0.90521,-2.4439 -3.70594,-2.2931 -6.48465,0.3477 -7.07818,0.533 -6.73314,2.0851 0.62293,2.8016 -2.82792,2.6746 -4.33392,-0.1597 -1.1092,-2.0872 -2.81529,-2.8221 -6.70245,-2.8874 -4.55128,-0.078 -5.12448,0.2555 -4.50744,2.617 0.50327,1.9266 0.0476,2.6941 -1.59686,2.6664 -1.26731,-0.035 -2.6218,-1.2558 -3.0105,-2.7437 -0.52481,-2.0085 -1.83975,-2.7239 -5.10702,-2.7789 -3.26744,-0.053 -4.58111,0.6164 -5.10251,2.6075 -0.38613,1.4748 -1.42181,2.6692 -2.30128,2.6543 -0.8793,0 -1.91729,-1.2441 -2.30609,-2.7317 -0.93356,-3.573 -5.2668,-3.5468 -6.20531,0.039 -0.9214,3.5184 -4.136,2.6078 -4.71864,-1.3368 -0.64467,-4.3658 -4.29314,-3.759 -4.25409,0.7072 0.0595,6.8165 11.83348,9.8871 22.5375,5.8775 z m -232.691727,-5.6812 c 10.001533,0.4318 18.94227,0.7959 19.868396,0.8087 7.555719,0.1029 11.308319,0.3744 16.947528,1.2235 3.988521,0.6008 8.9429342,0.33 12.7955686,-0.6976 7.1456885,-1.907 10.7406208,-1.5997 13.8037334,1.1785 2.829878,2.567 3.939203,2.4552 3.923898,-0.3961 -0.02574,-4.7937 -15.3236451,-8.3803 -17.0162151,-3.9889 -0.4255839,1.104 -1.856239,1.989 -3.179335,1.9666 -1.3234187,-0.035 -2.7552875,-0.9553 -3.1828531,-2.0734 -0.9464738,-2.4762 -3.9715848,-2.6579 -7.7893618,-0.4674 -2.280178,1.308 -2.972378,1.2967 -3.461308,-0.057 -0.936895,-2.5962 -9.88469,-2.2452 -12.022271,0.4712 -1.742943,2.215 -1.917499,2.2118 -3.664531,-0.064 -2.142492,-2.7884 -11.086997,-3.4392 -12.030775,-0.8754 -0.492743,1.3382 -0.973382,1.3304 -2.402189,-0.039 -2.129197,-2.0419 -7.982806,-2.3875 -7.98122,-0.4706 0.0021,0.7406 -0.907964,1.3314 -2.019195,1.3126 -1.111519,-0.035 -2.02101,-0.6398 -2.021609,-1.3807 -0.0029,-1.9727 -9.707386,-1.7246 -12.459053,0.3194 -1.295694,0.962 -2.354866,2.7568 -2.35369,3.9886 3.15e-4,1.9996 0.325505,2.0368 3.030946,0.3477 2.361829,-1.4748 7.034025,-1.7182 21.213554,-1.1057 z m 96.844908,3.0212 c 3.739228,-1.8708 6.39618,-2.0319 28.423163,-1.7218 26.145924,0.3691 34.215716,0.7985 35.592026,1.8968 1.58607,1.2657 10.06495,1.1117 15.92796,-0.291 2.48619,-0.5941 4.79189,-0.1526 7.02532,1.3477 4.5491,3.0546 4.76678,2.9347 4.76196,-2.6213 -0.004,-4.2313 -0.2778,-4.6554 -2.06914,-3.1983 -1.67728,1.3644 -2.71413,1.3218 -5.52341,-0.2271 -3.09811,-1.709 -3.65826,-1.6377 -5.37473,0.6831 -1.61198,2.1791 -2.33596,2.3214 -4.55985,0.8963 -3.39486,-2.1752 -6.33227,-2.2104 -7.10501,-0.085 -0.48654,1.3381 -1.17884,1.3268 -3.46141,-0.057 -3.40643,-2.0667 -10.479,-2.3992 -11.634561,-0.5472 -0.506153,0.8116 -2.046742,0.4954 -4.009029,-0.8219 -2.650459,-1.7796 -3.653214,-1.8562 -5.957954,-0.4556 -2.186501,1.3293 -3.119077,1.3307 -4.4224,0 -1.983919,-2.0149 -10.043066,-2.3683 -11.213689,-0.4915 -1.284403,2.0589 -4.712976,1.5117 -4.714999,-0.7523 -0.0018,-3.1582 -6.28041,-2.6706 -7.124713,0.5536 -0.386036,1.4744 -1.724708,2.6639 -2.974678,2.643 -1.250319,-0.035 -2.590694,-1.2555 -2.979492,-2.7431 -0.912852,-3.4932 -8.100123,-3.8423 -10.597902,-0.5149 -1.649457,2.1973 -1.862051,2.175 -3.810082,-0.4006 -2.265957,-2.9957 -2.584566,-1.8875 -1.300748,4.5227 0.954366,4.7668 1.779752,5.0432 7.10326,2.3793 z m 235.575689,-10.1826 c -0.3187,-3.7562 -0.98744,-4.7991 -3.10016,-4.8346 -1.48183,-0.035 -2.77476,0.8623 -2.87365,1.9716 -0.0989,1.1093 -0.24863,2.8154 -0.33339,3.7909 -0.0901,1.0416 -1.40585,1.5756 -3.18483,1.2931 -2.15883,-0.3406 -3.00101,-1.3523 -2.92674,-3.5091 0.0795,-2.3041 -0.64585,-3.0404 -3.03325,-3.0805 -3.55766,-0.06 -3.61913,0.1738 -1.78726,6.7742 0.47017,4.935 2.09319,4.3065 9.45135,4.0437 6.88659,0.013 8.3317,-0.041 7.78793,-6.4493 z m -361.557886,-3.6199 c 1.441869,-7.2142 1.036155,-9.2401 -1.860104,-9.2887 -3.057336,-0.053 -3.450731,1.3389 -1.064792,3.7622 1.271215,1.2906 1.126625,2.1454 -0.660397,3.9034 -1.812579,1.7831 -2.633009,1.9002 -3.948938,0.5635 -1.315925,-1.3364 -1.316483,-2.2335 -0.0043,-4.3186 1.376794,-2.1838 1.313378,-2.6373 -0.372924,-2.6657 -1.467119,-0.035 -2.030662,1.439 -2.027264,5.2629 0.0039,4.7444 0.391079,5.3615 3.709354,5.9201 2.037485,0.3442 4.083528,0.72 4.546628,0.8388 0.463072,0.1172 1.219161,-1.671 1.68028,-3.9779 z m 88.0580592,0.9028 c 5.1273848,-0.6005 5.7227808,-1.0476 5.7132448,-4.291 l -0.013,-3.6206 -43.769434,-1.105 c -25.286478,-0.638 -43.768488,-0.5933 -43.767817,0.1065 7.73e-4,0.6657 -0.346503,2.947 -0.77139,5.0691 l -0.772194,3.8583 38.827372,0.3265 c 21.3552,0.181 41.4035185,0.035 44.5515151,-0.3442 z m 15.4583828,-2.4787 c -0.584455,-3.0521 -0.262542,-3.4304 2.541199,-2.9868 2.362605,0.3736 3.181317,1.3246 3.099441,3.6 -0.158135,4.3991 5.32658,3.6419 5.955565,-0.8222 0.597718,-4.2416 -1.702909,-5.5216 -10.224976,-5.6894 -7.528336,-0.1491 -8.624713,1.1476 -5.67117,6.705 2.107925,3.9669 5.106183,3.4045 4.299941,-0.8066 z m 130.351434,4.4375 c -5.4e-4,-0.6799 0.36591,-2.1888 0.81464,-3.3527 0.57588,-1.4943 0.0254,-2.1295 -1.87261,-2.1614 -1.73382,-0.035 -2.62129,0.7927 -2.49929,2.3143 0.10395,1.2981 -0.72006,2.3446 -1.83129,2.3258 -1.30193,-0.036 -1.90478,-1.1253 -1.69472,-3.1011 0.2841,-2.6764 -0.0161,-2.89 -2.35862,-1.6757 -2.6723,1.3857 -3.49489,4.0621 -1.78265,5.8009 1.36948,1.3907 11.22565,1.259 11.22456,-0.1491 z m 105.06211,-0.5369 c -0.003,-3.4098 -0.21102,-3.5085 -5.72703,-2.7115 -3.14806,0.4546 -23.30236,-0.1845 -44.78749,-1.4198 -34.41098,-1.9787 -39.49867,-2.5546 -42.71557,-4.8349 -2.82653,-2.0039 -6.08129,-2.6295 -14.40266,-2.7693 -5.91296,-0.099 -11.04893,0.2981 -11.41332,0.8815 -0.36437,0.5841 3.99475,1.1117 9.68683,1.1724 10.26642,0.2162 10.61077,-0.9716 9.90198,5.8253 l -0.44756,5.7157 49.95383,0.8393 49.95394,0.8392 z m -122.57445,-1.7058 c -8.3e-4,-1.4805 -6.76756,-2.1419 -34.76611,-3.4003 -19.120382,-0.8591 -40.150821,-1.4666 -46.734356,-1.3498 l -8.358958,0.1487 c -5.147754,0.2076 -3.611393,0.3566 -3.602079,-4.9415 -0.27377,-4.6687 -1.156386,-3.6734 -6.608132,-3.766 l -6.310726,-0.1072 c -6.162119,-0.1029 -11.035666,0.4262 -11.553386,1.2566 -0.619255,0.9925 0.980857,1.1855 5.184665,0.6259 3.344028,-0.4453 7.955425,-0.3662 10.247312,0.1704 3.58076,0.8463 4.286674,1.7295 5.016182,6.2781 0.488294,5.0377 0.410173,5.2856 5.204073,5.3662 l 43.963949,0.7387 c 39.929566,0.6718 48.318716,0.4933 48.317466,-1.0255 z m 94.24935,-43.0342 c -0.0298,-34.37 -0.20157,-37.0336 -2.38932,-37.0705 -2.11322,-0.035 -2.35879,-1.7022 -2.37131,-16.0998 -0.0122,-14.2085 -0.34075,-16.504 -2.84496,-19.9096 -4.0277,-5.4761 -10.85579,-6.0074 -16.57449,-1.2895 -2.35466,1.9424 -4.67004,3.1372 -5.14517,2.6546 -1.75043,-1.7778 4.74846,-8.2042 10.12638,-10.0137 4.99597,-1.6813 6.0254,-1.6291 10.39177,0.5249 6.92651,3.4169 8.91829,9.1347 8.87463,25.4744 -0.0207,7.7778 0.51022,13.3224 1.27694,13.3352 1.62202,0.035 1.62695,-22.5455 0.008,-30.929 -1.34911,-6.9811 -6.69796,-12.256 -12.53848,-12.3646 -2.03732,-0.035 -3.70473,-0.6749 -3.70533,-1.4155 -0.002,-0.7406 2.12923,-1.3109 4.7331,-1.2672 3.48471,0.057 6.02437,1.2824 9.62298,4.6373 4.74377,4.4218 4.93505,4.975 6.44162,18.6232 1.48478,13.4512 3.48035,15.7691 3.47015,4.0308 -0.005,-5.7742 -4.77928,-22.4567 -6.79194,-23.7332 -0.72119,-0.4577 -1.28997,-1.5532 -1.26415,-2.4346 0.0254,-0.8819 1.55248,0.2413 3.39237,2.4928 4.51154,5.5237 8.70101,19.5505 8.70938,29.1597 0.004,4.3221 0.64284,8.2614 1.42007,8.7546 0.97098,0.6157 0.93431,1.4656 -0.11739,2.7161 -2.68213,3.1891 -1.04853,81.3835 1.70139,81.4297 0.6564,0 1.11897,-19.5913 1.03992,-44.0821 -0.12085,-37.3888 -0.53106,-46.1012 -2.69397,-57.2345 -3.00809,-15.4824 -5.69066,-21.7424 -10.9614,-25.5805 -12.66616,-9.2238 -30.9026,-2.302 -35.3388,13.4129 -2.11166,7.4803 -1.59537,27.1259 0.7925,30.1564 0.7133,0.9052 0.83538,2.3857 0.27136,3.2899 -2.36508,3.7912 0.22982,77.907 2.72918,77.9499 1.08352,0.035 1.38666,-13.7876 1.08959,-49.5823 -0.40598,-48.9252 -0.37203,-49.658 2.46705,-53.2225 4.18717,-5.2569 8.93269,-4.2146 12.55183,2.7565 2.68379,5.1696 2.8425,7.7724 3.26298,53.5805 l 0.44203,48.1466 3.97759,0.068 3.97739,0.067 z m 10.10062,-1.8492 c -0.0356,-40.8958 -0.17363,-41.7879 -5.74151,-37.1201 -2.12925,1.7846 -2.28072,3.8062 -1.48544,19.8365 0.48695,9.8171 0.95601,26.4854 1.0424,37.0403 0.15531,18.9625 0.19307,19.1917 3.18786,19.2424 l 3.03073,0.053 z m 17.40631,36.9853 c 0.92387,-3.0226 0.0102,-51.9066 -1.31943,-70.6218 -1.01804,-14.3248 -1.03766,-14.3883 -3.91251,-12.5527 -2.62645,1.6774 -2.80766,2.6157 -1.99018,10.3076 0.49467,4.6543 1.00759,22.9439 1.13987,40.6431 0.1322,17.6995 0.56013,32.704 0.95284,33.3434 1.23277,2.012 4.38221,1.3247 5.12941,-1.1196 z m 19.25785,0.7892 c 0.14489,-0.1135 -0.22312,-0.9968 -0.81787,-1.9673 -0.59455,-0.9702 -3.46736,-2.1245 -6.38374,-2.5642 -4.76099,-0.7182 -5.47038,-0.4347 -6.9427,2.7771 -1.80892,5.4755 1.83665,3.3628 6.12051,2.7672 4.26823,-0.4457 7.87896,-0.9017 8.0238,-1.0128 z m -360.78292,-7.6155 c 1.153628,-0.9997 -1.552598,-3.3148 -3.9214,-3.3545 -1.745019,-0.035 -2.613711,0.8818 -2.612067,2.7398 0.002,2.2651 0.567014,2.6199 3.032451,1.9035 1.666444,-0.484 3.241887,-1.0642 3.501016,-1.2888 z m 280.23595,0.4102 c -0.58217,-3.5277 -1.10728,-20.7705 -1.16666,-38.3171 -0.0706,-20.7162 -0.60453,-32.2174 -1.52123,-32.7994 -0.96521,-0.6121 -0.91109,-1.4932 0.17047,-2.7796 1.75326,-2.0844 0.82754,-21.4035 -1.6219,-33.8505 -1.44721,-7.3547 -7.0243,-14.0005 -11.7634,-14.0179 -3.9192,0 -13.42376,4.7941 -14.90529,7.5414 -2.94109,5.4535 -4.09742,26.0994 -2.76451,49.3609 0.72198,12.6024 1.72002,31.7473 2.21788,42.5438 0.83422,18.0973 1.15995,19.9433 4.17061,23.6349 l 3.26599,4.0045 -0.901,-43.7783 c -0.95379,-46.3457 -0.19621,-56.3367 4.63134,-61.0857 2.22058,-2.1845 3.12648,-2.3204 6.10343,-0.9148 6.27073,2.9605 6.99246,7.4591 7.94374,49.522 1.10963,49.0635 1.81101,57.2593 4.90333,57.3111 1.98891,0.035 2.15432,-0.8193 1.2372,-6.3753 z m -30.93394,-100.3201 c -0.0126,-14.5445 17.94042,-18.1627 23.55489,-4.7473 2.67728,6.3973 0.91437,7.2061 -3.60526,1.6547 -2.8784,-3.5358 -5.05994,-4.9183 -7.83436,-4.9648 -4.50051,-0.074 -9.42381,5.2153 -9.41956,10.1226 0.003,1.7516 -0.60337,3.1746 -1.3442,3.1622 -0.7407,0 -1.3491,-2.3648 -1.35151,-5.2274 z m -234.512617,85.0886 c -0.496792,-8.7111 -0.968165,-27.807 -1.047159,-42.4352 -0.116828,-21.5824 -1.989771,-26.6632 -3.477428,-26.8595 -3.187787,-0.4208 -4.590401,2.1598 -3.617627,20.7715 0.589634,11.2813 0.34765,28.6733 0.544537,36.7847 0.238551,9.8279 -1.231795,20.2593 -0.886072,21.3693 0.345722,1.11 0.913033,2.9321 1.261168,4.0485 0.363415,1.1661 2.228785,2.0582 4.379337,2.0951 l 3.746632,0.064 z m 10.079086,5.5542 c -0.369475,-5.7459 -1.085713,-24.0196 -1.591565,-40.6084 -0.914442,-29.9836 -0.938418,-30.1689 -4.057577,-31.3715 -2.884766,-1.1124 -3.080896,-0.9105 -2.431494,2.5007 0.388377,2.0408 0.907323,20.8297 1.152795,41.7528 l 0.446092,38.0417 3.576855,0.071 3.576756,0.071 -0.671778,-10.4469 z m 10.611536,-38.8717 c -0.512255,-53.6977 -0.265561,-55.8307 6.533064,-56.5138 1.910612,-0.1916 4.225576,0.5983 5.186296,1.7704 2.860288,3.4896 4.309084,2.4315 2.225069,-1.6253 -2.24434,-4.3693 -7.801968,-7.8668 -10.769815,-6.7777 -4.032342,1.4797 -6.690586,9.261 -7.287763,21.334 -0.531134,10.7347 -0.823361,11.7684 -3.3137,11.7266 -3.029984,-0.05 -3.053809,-3.4116 0.37425,52.6057 0.70615,11.5371 0.938155,22.2967 0.515673,23.9099 -0.6591,2.5173 -0.216178,2.9428 3.120514,2.9989 l 3.888531,0.064 z m 20.258073,18.5189 c 0.170354,-17.2163 0.283021,-35.9988 0.250748,-41.739 -0.03147,-5.7401 0.418241,-10.4289 1.001217,-10.4189 1.665719,0.035 1.133444,-17.3131 -0.806521,-26.2715 -2.515367,-11.6173 -5.201392,-16.0367 -11.549747,-19.004 -5.299692,-2.4772 -5.663617,-2.4843 -10.891664,-0.2129 -2.974772,1.2913 -6.54082,4.2019 -7.924473,6.4673 -3.135635,5.1344 -6.884912,18.005 -6.731011,23.1075 0.0778,2.5908 0.722906,1.3297 1.988359,-3.8885 2.281308,-9.4069 4.572774,-13.9739 9.387342,-18.7105 5.455132,-5.3665 6.747273,-4.3346 1.950937,1.5578 -4.867391,5.9797 -7.415872,13.5779 -8.746323,26.0766 -0.790512,7.4268 -0.61446,8.9627 1.030628,8.9903 1.539319,0.035 2.18517,-2.7565 2.880369,-12.4072 0.981721,-13.6261 3.088075,-18.1711 9.416815,-20.3184 2.78977,-0.9464 4.710423,-0.621 8.393656,1.423 7.153777,3.9698 12.512633,16.4519 8.766465,20.4192 -0.653954,0.6927 -1.507742,22.6136 -1.897452,48.7136 -0.608276,40.7532 -0.43444,47.4586 1.231455,47.4866 1.623119,0.035 1.99014,-5.0776 2.249224,-31.2696 z m 9.908909,-10.606 c -0.499281,-23.1523 -0.404107,-45.5096 0.211215,-49.6831 0.944202,-6.4034 0.811852,-7.4754 -0.847784,-6.8665 -1.611149,0.5912 -1.792815,-0.2271 -1.005163,-4.529 1.682184,-9.1876 4.881366,-13.205 10.827941,-13.5967 2.876875,-0.1881 6.6569103,0.4418 8.3999038,1.4031 4.6099457,2.5425 8.4715827,9.6326 8.4767241,15.5633 0.00552,5.9123 -1.6019706,4.9627 -3.9192452,-2.3162 -3.5979585,-11.3 -13.5693777,-14.3897 -17.9064777,-5.5481 -3.228648,6.5818 -2.978254,7.1755 1.624044,3.8491 3.28957,-2.3775 4.7348,-2.67 7.7436106,-1.5663 6.43351413,2.3597 7.315808,10.805 6.4367781,61.6073 l -0.76263945,44.0871 5.35727325,0.089 c 6.2871805,0.1064 6.9036815,-1.2512 5.1612987,-11.359 -1.439311,-8.3501 -1.6960985,-54.9843 -0.3661408,-66.504 0.9728456,-8.4261 0.9621866,-8.4634 -1.9767765,-6.9396 -4.7722636,2.4741 -4.8391664,0.33 -0.1686137,-5.4087 4.6818188,-5.7519 4.6403918,-5.2104 2.0189836,-26.3957 -1.0650347,-8.606 -5.5462043,-12.6772 -14.1118518,-12.8213 -5.94855,-0.099 -7.461597,0.4414 -10.66214,3.8161 -6.305668,6.6486 -8.325397,12.6262 -9.102661,26.94 -0.505088,9.3005 -0.236856,13.8561 0.896896,15.2393 1.289003,1.5728 1.147695,2.2285 -0.696708,3.2296 -2.130844,1.1572 -2.240443,3.963 -1.383228,35.4328 1.042776,38.2897 1.67101,44.2879 4.643289,44.3376 1.770119,0.035 1.907213,-5.1639 1.111552,-42.0612 z m 40.387635,28.9819 c -0.503942,-3.1419 -1.207578,-23.6047 -1.56375,-45.4724 -0.354579,-21.8681 -1.052902,-43.0995 -1.548255,-47.1811 l -0.900694,-7.4214 -1.338377,5.364 c -1.441661,5.7778 -1.475815,53.4109 -0.05912,82.4754 0.81642,16.751 1.03921,17.8592 3.598471,17.9022 2.45336,0.043 2.635739,-0.5295 1.811725,-5.6667 z m 21.623167,-10.5066 c -0.498726,-9.0411 -1.320299,-36.1188 -1.826006,-60.172 l -0.919311,-43.7336 -2.485102,7.2859 c -2.238773,6.5634 -2.351261,9.1606 -1.134552,26.1938 1.986438,27.8111 3.372269,77.8136 2.277308,82.1716 -1.96719,7.8296 -3.658973,0.6068 -4.930611,-21.0497 -0.714022,-12.1578 -1.916228,-31.2047 -2.671733,-42.3263 -0.755311,-11.1219 -1.372806,-24.0532 -1.372191,-28.7362 0.0043,-6.8995 -0.385174,-8.4385 -2.037029,-8.1135 -1.770552,0.3478 -2.074311,7.2345 -2.311486,52.417 l -0.256403,48.803 c 0.01758,3.699 -0.886049,3.19 2.625789,3.2812 l 6.652699,0.1727 5.519665,0.1454 c 5.02995,0.15 3.819579,0.8975 3.54146,-4.1454 z m 107.706601,15.3472 c -1.0041,-3.5294 -3.42738,-53.6934 -3.91691,-81.0855 -0.23983,-13.5669 -0.80027,-18.9092 -2.01919,-19.3344 -1.32467,-0.4623 -1.67832,8.9932 -1.65681,44.2982 0.0111,24.687 -0.35209,48.0604 -0.8159,51.9407 l -0.84318,7.0553 5.059,0.085 c 4.60438,0.078 4.98137,-0.1881 4.19299,-2.9592 z m 9.48376,-16.6726 c -0.46295,-10.9317 -1.20706,-35.0308 -1.65319,-53.5532 -0.74246,-30.8214 -0.60235,-34.0733 1.62898,-38.3426 2.68276,-5.1277 10.38011,-9.8707 18.12093,-11.1652 4.37646,-0.7318 5.51073,-0.2697 10.4427,4.2653 3.04295,2.7974 5.53367,6.0173 5.53459,7.1557 0.002,1.3137 1.80567,0.2413 4.93973,-2.9346 11.45694,-11.6113 26.19911,-12.6823 37.35113,-2.714 5.85664,5.2352 9.97843,15.0608 11.93903,28.4613 1.18829,8.123 2.08244,10.7617 3.65594,10.7901 1.80362,0.035 1.98881,-2.177 1.3806,-16.4721 -0.45052,-10.5914 -1.62641,-19.5512 -3.28014,-24.9943 l -2.57778,-8.4843 -15.59855,0.5916 c -8.57912,0.3264 -18.02277,0.6856 -20.98595,0.8002 -2.96319,0.1135 -16.44966,0.1206 -29.9702,0 l -24.58204,-0.1952 0.002,3.0731 c 10e-4,1.6901 -0.93189,6.3704 -2.07413,10.4008 -1.14216,4.0305 -2.04254,7.9346 -2.00074,8.6759 0.47309,8.3771 1.17305,46.988 1.31186,72.3996 l 0.17561,31.9836 3.53996,0.06 3.53976,0.06 z m -241.989401,-19.675 c -0.01629,-18.7688 -0.369589,-41.132 -0.792098,-51.2418 l 0.07103,-14.6647 c 0.415148,-5.2584 -0.004,-4.8956 -4.932891,-4.9802 -4.141955,-0.071 -5.205084,0.5213 -6.468454,3.5947 -0.972385,2.3654 0.678634,20.1834 0.300091,50.0886 -0.634415,50.1526 -0.809478,48.7914 6.46311,50.2502 1.852367,0.3715 3.822631,0.7654 4.378382,0.8758 0.555645,0.11 0.997077,-15.156 0.980796,-33.9243 z m 349.669831,34.9498 c -1.59733,-7.5475 -4.82089,-50.3623 -5.73544,-76.1767 -0.74095,-20.916 -1.32972,-26.6168 -2.75155,-26.6409 -2.15273,-0.036 -2.17742,1.0905 -0.51718,23.6239 0.70755,9.6024 1.61088,22.0092 2.00729,27.5706 0.396,5.5609 0.74617,20.2612 0.77758,32.667 l 0.057,22.5558 3.47441,0.057 c 3.08234,0.053 3.38562,-0.3612 2.68804,-3.6578 z m 5.9357,-20.7719 c -0.0117,-13.5161 -0.43514,-38.667 -0.93703,-55.8906 -0.82641,-28.3648 -1.10264,-31.0472 -2.93012,-28.4663 -1.7461,2.4659 -1.88925,9.5737 -1.06393,52.8272 0.52393,27.4879 1.31871,51.3477 1.7648,53.0216 2.14103,8.0339 3.18863,0.9233 3.16618,-21.4919 z m -343.279922,-68.0644 c 3.005868,-21.9446 4.269438,-25.4705 11.482392,-32.0407 l 3.699331,-3.3697 -5.694997,-0.096 c -5.617497,-0.096 -7.964413,-0.215 -8.822809,5.1819 -0.478836,3.0017 -2.006859,7.422 -3.675151,9.8549 -2.433081,3.5479 -2.869213,6.9795 -3.247063,16.3048 -0.396265,9.777 1.621572,11.5173 3.320495,11.2188 1.313724,-0.2306 2.341019,-2.6972 2.937798,-7.0542 z M 144.48569,-1637.16 c 1.80653,-1.1125 5.38981,-10.6511 5.43286,-14.4608 0.0124,-1.1245 -2.21511,-1.7203 -6.71595,-1.7959 -7.56935,-0.1278 -7.57187,-0.1171 -5.2671,10.6176 1.45307,6.77 2.81348,7.9414 6.55019,5.6391 z m -223.794021,-7.9709 c 1.078662,-1.6483 2.150473,-4.8115 2.382136,-7.0294 l 0.421213,-4.0326 -8.633154,-0.5518 c -5.995052,-0.3832 -8.972619,-0.035 -9.743787,1.1831 -1.333982,2.0827 -1.511766,11.0101 -0.244818,12.2969 0.494376,0.5021 3.814599,0.9616 7.37806,1.0216 5.239473,0.089 6.854688,-0.4645 8.44035,-2.8878 z m 59.573676,-4.5446 c 1.124137,-1.9325 0.441538,-2.3963 -4.817755,-3.2728 -3.370031,-0.5617 -6.450541,-0.7037 -6.845484,-0.3158 -0.395024,0.3889 0.696183,3.1951 2.424854,6.2369 l 3.14296,5.5301 2.392909,-2.9637 c 1.31618,-1.6303 2.982197,-3.9769 3.702504,-5.2154 z m 46.553919,8.0847 c 0.805422,-0.5305 1.795822,-2.171 2.201358,-3.6454 0.405136,-1.4744 1.172595,-3.7338 1.705142,-5.0209 0.852485,-2.0599 0.09108,-2.3548 -6.359548,-2.4634 -4.030384,-0.067 -7.645075,0.1881 -8.032625,0.5699 -1.716353,1.6884 0.704673,7.3863 3.155901,7.4275 1.418719,0.035 2.928837,0.9581 3.356205,2.0763 0.860489,2.2508 1.786443,2.4971 3.973567,1.056 z m 238.426356,-5.6819 c 0.96799,-3.2871 1.55018,-6.1894 1.29368,-6.4499 -0.25655,-0.2626 -3.43576,-0.3371 -7.06528,-0.1739 l -6.59847,0.3016 1.84203,6.507 c 1.64609,5.8144 2.21066,6.4687 5.30519,6.1486 2.81167,-0.2909 3.79371,-1.4818 5.22283,-6.3345 z m -254.042107,-2.9759 c -0.0021,-0.7405 -0.642993,-1.3573 -1.4276248,-1.3704 -0.7842,0 -1.0512002,0.5883 -0.5927755,1.3364 0.4585301,0.7484 1.1010323,1.3651 1.4277333,1.3708 0.3264,0 0.593359,-0.5962 0.592667,-1.3368 z m 28.275464,-12.317 c -0.0044,-4.4886 -0.529076,-6.0684 -2.025621,-6.0936 -1.452337,-0.036 -2.019269,1.4499 -2.016067,5.2401 0.004,4.467 0.738366,5.8133 3.71013,6.8012 0.18526,0.06 0.334474,-2.6149 0.331558,-5.9477 z m -68.697019,-2.5806 c -0.0029,-3.221 -0.619988,-4.6436 -2.024509,-4.6674 -1.392119,-0.035 -2.01931,1.3627 -2.016648,4.4549 0.0026,2.4684 0.391812,4.8825 0.866124,5.364 1.720182,1.747 3.178941,-0.6199 3.175033,-5.1515 z m 9.429509,0.9113 c -0.0044,-4.4886 -0.45375,-5.3938 -2.698614,-5.4314 -2.774613,-0.046 -3.645024,3.9641 -1.868979,8.6109 1.679362,4.3932 4.57246,2.3793 4.567593,-3.1795 z m 9.449871,3.1888 c 0.0091,-1.296 0.3805518,-3.7136 0.8259248,-5.3726 0.688553,-2.5652 0.2829284,-3.0248 -2.7150618,-3.0752 -3.096438,-0.053 -3.524012,0.4858 -3.520499,4.4294 0.0026,2.4687 0.408405,4.8991 0.902481,5.4012 1.752359,1.7796 4.491005,0.9393 4.507155,-1.3828 z m 8.0608302,-2.8946 c -0.00396,-4.5798 -0.4295378,-5.3931 -2.842659,-5.4339 -2.0346188,-0.035 -2.6061147,0.5592 -2.0187457,2.0961 0.4507456,1.1792 0.8206972,3.6089 0.822358,5.3999 -6.987e-4,1.9967 0.7842992,3.2696 2.0232633,3.2902 1.4593187,0.035 2.0192552,-1.462 2.0157834,-5.3523 z m 6.7349065,0.1135 c -0.00276,-3.8899 -0.5659803,-5.3955 -2.0251134,-5.42 -2.12441874,-0.035 -2.5271227,2.6348 -1.164873,7.7231 1.3119174,4.8998 3.1950862,3.5404 3.1899864,-2.3031 z m 8.3309763,-0.4822 c 0.365644,-3.1483 -0.06601,-4.9222 -1.324402,-5.425 -3.2910924,-1.3176 -4.0691667,0.4205 -2.6654523,5.9537 1.5994473,6.3044 3.2212463,6.0894 3.9898543,-0.5287 z m 8.332633,3.1188 c 1.35356,-5.0425 0.946111,-7.7266 -1.178123,-7.7625 -1.459419,-0.035 -2.019154,1.4621 -2.015684,5.3523 0.0053,5.8435 1.890548,7.2661 3.193807,2.4102 z m 8.930721,-0.078 c -0.0037,-1.7906 0.364207,-4.2083 0.812825,-5.3726 0.584882,-1.517 0.01236,-2.1295 -2.022146,-2.1635 -2.31859,-0.039 -2.83742,0.7739 -2.834299,4.4407 0.0026,2.4687 0.408506,4.8991 0.902782,5.4012 1.814481,1.8431 3.143631,0.8673 3.140838,-2.3058 z m -82.168561,-4.857 c -0.0028,-3.8903 -0.565888,-5.3959 -2.02512,-5.4204 -2.088737,-0.036 -2.731826,4.6032 -1.19537,8.6227 1.508561,3.9463 3.225289,2.2395 3.22049,-3.2023 z m 6.755869,3.1434 c 0.0091,-1.296 0.380652,-3.7136 0.825924,-5.3726 0.595207,-2.2171 0.232911,-3.0258 -1.367967,-3.0528 -1.642719,-0.035 -2.176447,1.2871 -2.172828,5.3498 0.0024,2.9627 0.610802,5.3967 1.351521,5.4091 0.7407,0 1.354458,-1.0376 1.36335,-2.3335 z m 8.264599,-0.8712 c 0.109605,-1.8495 0.259119,-4.1114 0.33246,-5.0255 0.07283,-0.9145 -0.927716,-1.8846 -2.224315,-2.1561 -1.872826,-0.3918 -2.356845,0.45 -2.353727,4.094 0.0026,2.523 0.408455,4.9981 0.902833,5.5003 1.808362,1.8363 3.148369,0.8694 3.342749,-2.4127 z m -47.845063,-1.8137 c -0.448089,-1.6738 -0.824055,-4.1043 -0.835268,-5.4005 -0.01191,-1.296 -0.975342,-2.3726 -2.142494,-2.3925 -1.570419,-0.035 -2.026691,1.1036 -1.755655,4.347 0.469034,5.6135 0.895635,6.4112 3.450194,6.4541 1.518618,0.035 1.87296,-0.8055 1.283223,-3.0081 z m 7.230887,-2.2352 c -0.0028,-3.89 -0.565882,-5.3956 -2.025215,-5.4201 -1.459318,-0.035 -2.019148,1.4624 -2.015784,5.3523 0.0028,3.8903 0.566082,5.3956 2.025121,5.4204 1.459519,0.035 2.01915,-1.4623 2.015878,-5.3526 z m 8.082301,0.809 c -0.0027,-3.8299 -0.513461,-4.7213 -2.723721,-4.7586 -2.283389,-0.039 -2.57707,0.5504 -1.83078,3.6724 1.784822,7.4683 4.560728,8.1305 4.554501,1.0862 z m 10.438438,0.1775 c 0.297058,-4.2111 -0.02128,-4.7107 -3.034773,-4.7615 -2.949784,-0.05 -3.366178,0.5273 -3.362685,4.6564 0.0035,3.9908 0.468751,4.7207 3.034973,4.7615 2.50066,0.043 3.088607,-0.7746 3.362485,-4.6564 z m 199.434265,3.1209 c -0.60655,-7.1138 -3.79212,-7.6326 -3.786,-0.6163 0.003,4.0844 0.54547,5.5077 2.10673,5.5339 1.59882,0.035 2.00078,-1.15 1.67927,-4.9176 z m 10.38123,3.7406 c 0.46842,-0.7505 0.44625,-3.2097 -0.0486,-5.4645 -0.70741,-3.2189 -1.52518,-4.0208 -3.80721,-3.7341 -2.29403,0.2874 -2.99356,1.4279 -3.32,5.408 -0.37689,4.5943 -0.11408,5.0475 2.95554,5.0993 1.85312,0.035 3.75244,-0.5578 4.22087,-1.3087 z m 10.38466,-3.9616 c 0.68004,-4.6476 0.23604,-5.253 -3.90269,-5.3225 -3.41111,-0.057 -3.54207,0.3016 -2.32781,6.3636 1.06832,5.3349 5.4037,4.6103 6.2305,-1.0411 z m 6.9277,1.2558 c 1.28383,-4.7838 0.99102,-6.3796 -1.17712,-6.4162 -1.41132,-0.035 -2.01927,1.3875 -2.01638,4.6792 0.004,5.2884 1.95544,6.3494 3.1935,1.737 z m 8.93115,0.5969 c 5e-5,-1.4209 0.3649,-3.5355 0.81354,-4.6994 0.60457,-1.5685 -0.0236,-2.1306 -2.42538,-2.1707 -2.91089,-0.05 -3.18466,0.4266 -2.68649,4.6678 0.58404,4.9741 4.3024,6.8789 4.29833,2.2023 z m 8.07934,-2.747 c -0.002,-2.7498 -0.6692,-3.9715 -2.18095,-3.9971 -1.60103,-0.035 -1.9618,0.7697 -1.36285,3.0071 0.4483,1.6738 0.82393,3.8367 0.83496,4.8062 0.006,0.9698 0.62574,1.3988 1.36606,0.9535 0.74042,-0.4454 1.34468,-2.5916 1.34278,-4.7697 z m 9.43096,2.3676 c -0.003,-3.3842 -1.59083,-6.1961 -3.51711,-6.2284 -1.98551,-0.035 -2.41321,2.3747 -1.05365,5.9314 1.0185,2.6639 4.57298,2.8949 4.57078,0.2981 z m 8.57881,-2.1005 c -0.003,-3.9017 -0.49485,-4.721 -2.85515,-4.7608 -2.29919,-0.039 -2.69344,0.5408 -2.03615,2.9954 0.44809,1.6742 0.82369,3.8012 0.83466,4.727 0.0164,0.9262 0.92903,1.6987 2.04036,1.7175 1.41132,0.035 2.01927,-1.3875 2.01628,-4.6791 z m 8.9727,0.4529 c -0.003,-3.8155 -0.51707,-4.7218 -2.69802,-4.7583 -2.81531,-0.046 -3.1999,1.2839 -1.83938,6.365 1.32114,4.935 4.54218,3.7942 4.5374,-1.6067 z m 8.08129,-0.5376 c -0.002,-2.6931 -0.67701,-4.0511 -2.02391,-4.0738 -2.11482,-0.035 -2.58599,2.2973 -1.19768,5.9293 1.35297,3.5397 3.2254,2.4613 3.22159,-1.8555 z m 9.14584,-0.6517 c -0.003,-3.2058 -0.62471,-4.7235 -1.94489,-4.7455 -2.69413,-0.046 -3.31405,1.3725 -2.48774,5.6887 1.05653,5.5176 4.43762,4.7983 4.43263,-0.9432 z m 7.2344,1.8048 c 1.27389,-4.7463 0.99453,-6.3793 -1.0976,-6.4148 -2.69402,-0.046 -3.31383,1.373 -2.48764,5.6891 0.86044,4.4932 2.48575,4.8221 3.58524,0.7257 z m 36.02033,-1.6573 c -0.002,-2.6224 -0.68601,-3.9719 -2.02391,-3.9943 -2.03732,-0.035 -2.94594,6.65 -1.15183,8.4722 1.63159,1.6572 3.17912,-0.5252 3.17574,-4.4779 z m -25.84013,-0.703 c 0.34039,-2.9652 -0.12029,-3.6934 -2.36036,-3.7313 -2.20942,-0.035 -2.78273,0.8069 -2.77987,4.0918 0.003,3.214 0.53016,4.0475 2.36047,3.7313 1.42147,-0.2448 2.52464,-1.8697 2.77976,-4.0918 z m 10.77591,0.181 c 0.36395,-3.17 -0.0543,-3.6923 -3.03386,-3.7423 -3.50117,-0.06 -4.25465,1.666 -2.60884,5.9715 1.31396,3.4375 5.16686,1.9151 5.6427,-2.2292 z m 7.26971,0.4705 c 0.45225,-3.0915 0.0717,-4.0386 -1.63771,-4.0674 -1.70881,-0.035 -2.08849,0.9056 -1.63086,4.0124 0.32817,2.2274 1.06522,4.0574 1.63789,4.067 0.5724,0 1.30636,-1.7959 1.63068,-4.012 z m -73.63926,-8.8912 c 22.96477,-0.7545 48.04531,0.012 58.78729,-0.041 10.74185,-0.053 20.09518,-0.9317 20.09463,-1.5225 5.6e-4,-0.5912 -1.95238,-3.6426 -3.43495,-4.6305 -2.21844,-1.4783 -3.61723,-1.4897 -7.90393,-0.064 -3.79788,1.2626 -18.38896,1.7442 -53.87657,1.7779 -58.4977,0.057 -53.13876,0.149 -58.26846,-1.0103 -3.44848,-0.7793 -4.60805,-0.3928 -6.3961,2.1327 -3.19397,4.5102 -2.53415,3.9261 2.4338,3.9803 17.90437,-0.2654 34.60116,-0.1612 48.56429,-0.6225 z m -152.838829,-3.1963 c -0.222253,-2.5037 -1.349432,-5.9761 -11.841938,-3.7768 -5.491282,1.151 -22.7161883,0.067 -43.909508,-0.029 -19.923725,-0.09 -45.738028,-0.3957 -49.657865,-0.3978 -3.9199,0 -11.169237,0.1202 -13.823017,-1.0327 -5.119938,-2.5473 -14.151614,-1.7396 -15.170194,5.0579 -0.0023,0.4897 37.735985,0.091 72.709128,0.9423 21.558835,-0.1874 62.141453,4.2835 61.693394,-0.764 z" transform="translate(104.23206,224.87556) translate(2.872034,1467.5769)" fill="#000000"/>
</svg>