<svg xmlns="http://www.w3.org/2000/svg" width="337.2243mm" height="300.06256mm" viewBox="0 0 337.2243 300.06256">
    <path fill="#e4ca92" d="m -2701.1833,1578.2015 -21.2669,37.5378 2.5559,1.8046 1.2428,26.1575 6.4854,1.2351 -1.2449,19.3182 -25.1824,-1.7467 -0.741,-22.2539 c 0,0 2.7082,2.5537 1.743,-4.855 -0.965,-7.4087 -8.5877,-33.8538 -10.6102,-39.5718 -2.0225,-5.7179 -4.8757,-8.7204 -4.8757,-8.7204 l -28.6153,61.3601 c 0,0 -2.8442,1.3109 -3.6333,5.1672 -0.789,3.8564 -1.3958,36.4132 -1.3958,36.4132 l -18.4676,1.8232 0.6537,-46.6375 c 0,0 2.4904,-1.747 2.699,-6.4771 0.2085,-4.7302 0.5085,-14.2389 0.5085,-14.2389 l -10.0536,-28.1151 -9.4496,28.1724 -0.4501,17.2481 2.6329,1.0257 1.9663,52.6857 c 0,0 -3.0424,2.2802 -3.4287,5.0157 -0.3864,2.7355 -0.4811,10.0113 -0.4811,10.0113 l -9.2258,0.5328 c 0,0 0.2542,-8.7013 -1.9926,-10.126 -2.2468,-1.4248 -14.3165,-42.6475 -14.3165,-42.6475 l -21.1351,49.3241 -0.1804,8.4444 4.0788,1.8811 1.3969,25.7395 3.3279,2.1094 0.9343,19.312 -9.3746,-0.096 c 0,0 0.7937,9.0795 -0.6878,9.5544 -1.4815,0.4749 -4.3524,0.4568 -5.208,-2.1838 -0.8556,-2.6405 -2.5626,-6.042 -2.5626,-6.042 l -7.1386,0.4563 1.665,17.4646 -6.9096,-0.215 c 0,0 -3.4046,2.1282 -2.3027,3.9899 1.1017,1.8616 9.2335,3.1905 9.2335,3.1905 0,0 2.4023,3.3818 1.9286,10.6955 -0.2037,3.1444 -0.5443,10.6037 -0.8547,17.5126 -6.1464,-2.544 -16.952,-8.1075 -30.7945,-4.1331 -15.6953,4.5064 -23.9316,8.9352 -26.4956,19.4242 -2.5641,10.4891 11.0769,29.9779 45.1642,35.9565 34.1101,5.9826 114.586,4.6787 136.3419,-4.2563 21.7558,-8.9351 93.0061,-2.1755 114.6066,-1.0101 21.6005,1.1655 49.8831,-16.0053 37.9951,-29.6798 -11.8881,-13.6746 -43.6671,-18.57 -43.6671,-18.57 l -2.5936,0.035 c 0.072,-2.0125 0.225,-3.9371 0.4687,-5.6033 2.2838,-15.6153 2.6733,-41.4032 2.6732,-41.4032 l -7.2683,-1.5234 -1.6733,-14.1335 -10.7446,-0.038 -8.6134,-20.9915 -16.231,14.628 c 0,0 -3.7329,-60.2674 -3.6866,-68.8919 0.046,-8.6245 -5e-4,-34.262 -5e-4,-34.262 l 6.5592,-4.2566 0.7101,-25.2646 z" transform="translate(128.32282,178.85833) translate(2809.1855,-1753.1616)"/>
    <path fill="#fff" d="m -2701.0039,1577.4548 -9.5937,16.7065 1.1386,20.7736 5.8512,60.2732 8.5765,37.3447 2.0562,-67.222 5.1745,-6.5726 1.0795,-23.3956 z m -52.1342,9.9679 c -1.4508,0.1404 -8.1902,17.3152 -8.1902,17.3152 l 0.1875,1.8247 4.7217,36.7471 -2.8499,0.3633 0.7488,1.3105 c 0,0 19.6557,37.9059 19.4685,36.7828 -0.1832,-1.0997 -0.7132,-38.1555 -0.7358,-39.7407 l 1.0635,-0.084 0.6552,-11.3243 c 0,0 -13.6185,-43.3342 -15.0693,-43.1938 z m -57.2358,7.8621 -8.9855,19.8416 7.4414,29.1083 c 0,0 2.1059,42.6791 1.5911,44.2702 -0.5148,1.5911 5.2881,3.6504 5.2881,3.6504 l 0.4681,-47.7335 3.2758,-7.2068 -0.1405,-18.2976 z m -34.5318,65.7742 c -1.66,0.6352 -11.0866,21.2675 -11.0866,21.2675 l 9.1612,22.9671 c 0,0 0.8647,28.7847 4.3842,42.6289 2.009,7.9024 8.4734,22.3775 9.4222,22.5738 0.9488,0.1963 3.3047,-4.5801 3.3047,-4.5801 l -1.9301,-29.608 2.1264,-30.0333 -2.9119,-5.6927 c 0,0 -11.1564,-38.8013 -12.3342,-39.5211 -0.037,-0.022 -0.082,-0.022 -0.1359,0 z m 110.152,30.901 c -2.2563,-0.055 -41.165,6.521 -41.165,6.521 0,0 18.3261,17.6101 22.6462,22.4803 4.3202,4.8703 8.6127,9.4933 14.1986,10.649 5.5859,1.1556 6.3288,-12.4646 7.6771,-19.4536 1.3483,-6.989 -1.1005,-20.1417 -3.3569,-20.1967 z m -29.7067,31.7815 -44.4987,4.5907 c 7.2313,9.7959 20.2773,20.1527 21.6847,26.2172 1.1394,4.9098 32.6557,-0.4666 32.6557,-0.4666 z m 90.581,12.0598 c -5.5216,-0.078 -16.9023,19.4566 -16.9023,19.4566 5.8617,29.7548 27.3546,68.9924 29.1232,58.6094 1.294,-7.5966 11.5325,10.9523 13.409,2.9001 1.8766,-8.0521 1.9793,-45.3104 1.9793,-45.3104 l -5.9713,-2.4226 -3.2752,-13.6819 -10.3389,-1.2624 c 0,0 0.074,4.2441 0.2367,10.2603 -0.9335,-8.1398 -3.5483,-27.3461 -7.7448,-28.4794 -0.1653,-0.045 -0.3376,-0.067 -0.5157,-0.07 z m -137.6014,4.9666 -11.0665,15.6365 c 4.7382,17.8786 21.1094,31.3157 30.3346,38.9712 l -1.0155,-22.5136 z m 97.055,0.3679 c -9.1589,-0.025 -40.8641,3.8654 -40.8641,3.8654 l 1.343,10.1622 c 0,0 44.6824,-1.1682 46.5806,-2.0443 1.8983,-0.876 -2.8333,-10.2205 -4.6731,-11.7099 -0.2299,-0.1862 -1.078,-0.2698 -2.3864,-0.2734 z" transform="translate(128.32282,178.85833) translate(2809.1855,-1753.1616)"/>
    <path fill="#cdad68" d="m -2761.5268,1669.6508 c -0.2779,-0.026 -0.573,0.033 -0.8867,0.1896 -3.3471,1.6734 -5.5683,18.4685 -5.1119,25.6186 l 0.152,0.9126 10.2236,-1.3384 c 0,0 0.3044,-6.9979 -0.1824,-12.2008 -0.4412,-4.715 -1.5075,-12.9286 -4.1946,-13.1816 z m -14.381,102.4573 c -0.07,0 -0.1376,0.01 -0.2041,0.021 -2.1298,0.3651 -2.5866,27.5964 -2.1911,34.3813 0,0 -0.1215,-0.5474 -0.3953,0.8217 -0.2739,1.3692 6.0549,-0.4868 6.0549,-0.4868 0,0 2.8299,-20.7813 2.6474,-25.832 -0.1769,-4.8929 -3.7522,-8.9863 -5.9118,-8.9054 z m -36.2024,14.8234 c -2.2803,-0.056 -2.0794,4.6173 -2.279,7.9261 -0.213,3.5294 0.9737,7.3019 3.8034,7.8192 2.6776,1.217 5.2944,-2.7383 5.1118,-7.6673 -0.1825,-4.9289 -3.3471,-7.2414 -6.1464,-8.0021 -0.1749,-0.047 -0.3378,-0.072 -0.4898,-0.076 z m 62.8044,8.5343 c -2.8602,0.03 -3.0432,6.7549 -3.0732,10.1322 0,0 9.9496,2.3123 10.1322,-0.7607 0.1826,-3.073 -4.1989,-9.4015 -7.059,-9.3715 z m 19.8665,1.6733 c -0.03,0 -0.06,0 -0.089,5e-4 -1.856,0.1217 -3.0121,4.1075 -2.4035,7.9107 0,0 5.9026,2.4339 7.2719,0.9126 1.3478,-1.4976 -2.8767,-8.7148 -4.7795,-8.8238 z m -20.7698,23.258 c -7.1974,0.1636 -17.9471,3.739 -19.2324,8.8331 -1.2853,5.0941 -1.4254,14.1839 -1.0982,22.1289 0.1636,6.7063 40.778,0.9346 41.2688,-1.3788 0.4907,-2.3134 -1e-4,-15.8196 -1.3322,-21.2876 -1.3319,-5.468 -12.4085,-8.4592 -19.606,-8.2956 z" transform="translate(128.32282,178.85833) translate(2809.1855,-1753.1616)"/>
    <path fill="#030303" d="m -2700.4519,1574.3687 c -1.6414,-0.5253 -3.0234,2.1884 -5.3356,5.4178 -2.0657,2.8851 -6.6818,12.8594 -10.849,21.7816 -5.6403,12.0764 -8.9645,14.8839 -5.9206,16.7178 1.0159,0.6121 1.0341,5.4431 1.1049,13.8617 0.096,11.4351 0.2449,12.2534 2.4334,13.4023 3.3783,1.7736 11.3968,0.9819 11.7244,-1.1575 0.1937,-1.2647 -1.1171,-1.9801 -4.9899,-2.7229 -6.2785,-0.3737 -5.1749,1.3526 -5.2648,-11.8985 -0.01,-5.9901 0.1051,-11.0216 0.2481,-11.1812 0.143,-0.1596 6.5782,-0.4048 14.3004,-0.5447 13.4588,-0.2435 14.0349,-0.1642 13.9133,1.9239 -0.07,1.1981 -0.3088,6.0263 -0.5312,10.7291 -0.3805,8.0451 -0.5922,8.6562 -3.5848,10.3461 -1.7493,0.9878 -3.9795,2.4093 -4.9558,3.158 -1.6477,1.2638 -1.6249,1.4743 0.323,2.9414 1.9896,1.4984 2.0765,2.5596 1.665,20.421 -0.2387,10.3622 0.2404,33.5393 1.064,51.5043 l 1.4966,32.6637 -3.3486,7.0884 c -4.5681,9.6698 -5.4017,15.1289 -4.809,31.4829 l 0.5079,14.0162 -3.5527,-0.3483 c -1.9537,-0.1916 -3.8926,-0.3798 -4.3088,-0.4181 -0.4162,-0.038 -0.9823,-2.1521 -1.2588,-4.6979 -0.4716,-4.3425 -0.7051,-4.6287 -3.7704,-4.6287 -3.0653,0 -3.278,0.2862 -3.4349,4.6287 -0.1478,4.0908 -0.4762,4.6287 -2.8272,4.6287 -2.1114,0 -2.6807,-0.5617 -2.759,-2.7229 -0.102,-2.8162 -3.648,-7.0791 -5.8885,-7.0791 -2.6102,0 -5.1264,3.6508 -4.9961,7.2481 0.1204,3.3218 -0.1566,3.6427 -3.1357,3.6427 -2.8701,0 -3.2804,-0.3792 -3.3797,-3.1202 -0.1601,-4.4169 -4.1169,-8.86 -7.8905,-8.86 -3.8642,0 -5.4668,2.0212 -6.011,7.581 l -0.4309,4.3992 h -7.0317 -7.031 l 0.4387,-4.084 c 1.8398,-17.0998 0.4763,-26.2558 -4.3749,-29.3693 -2.1775,-1.3975 -2.6515,-1.3256 -4.6039,0.7002 -1.9314,2.004 -2.1399,3.6674 -1.8578,14.7831 0.1746,6.8886 0.2125,13.0147 0.085,13.6137 -0.128,0.599 -0.2583,2.0694 -0.2899,3.2675 -0.041,1.5445 -0.829,2.1781 -2.7094,2.1781 -4.2779,0 -8.7093,2.0685 -7.3148,3.4143 1.1788,1.1375 54.9893,0.5919 78.4221,-0.7953 l 10.0712,-0.5964 -0.3261,5.7955 c -1.2699,22.5445 -1.7176,27.0986 -2.4365,31.0819 -0.4532,2.5105 -0.4173,5.8829 -0.4475,7.3236 0.085,1.9093 2.9148,3.091 4.1847,0.7239 0.6692,-1.1503 2.6902,-62.9842 2.3384,-72.6927 -0.2893,-7.9843 -1.134,-7.5671 17.5612,-8.678 l 12.9465,-0.7695 0.6284,36.928 c 0.3455,20.3104 0.3458,38.0963 5e-4,39.5242 -0.9644,3.9886 1.8757,2.3936 4.1584,-2.3352 1.6235,-3.3634 1.8854,-7.3491 1.7353,-26.385 l -0.1768,-22.4234 4.1062,-4.2602 c 3.3843,-3.5116 4.0223,-4.8926 3.6303,-7.8554 -0.4464,-3.3736 -0.7203,-3.5877 -4.4555,-3.4793 -3.8709,0.1122 -3.9988,-0.01 -4.6829,-4.3564 -0.3868,-2.4595 -0.6943,-7.9024 -0.6837,-12.0954 0.019,-7.4022 0.1025,-7.627 2.8835,-7.7338 2.8235,-0.1084 2.8679,0 3.1321,7.2874 0.2918,8.0541 1.0774,9.1874 6.1009,8.8036 l 3.113,-0.2378 -0.4227,8.4652 c -0.2326,4.6558 -0.9465,15.6245 -2.3957,24.2569 -2.9983,17.8599 0.1081,29.7391 1.7027,34.2997 2.1033,6.0155 20.5552,6.6237 22.2736,7.1928 4.8821,1.6168 8.4989,-2.4747 2.127,-4.2452 -6.9804,-1.9397 -16.6259,-1.8437 -18.573,-6.4476 -2.2812,-5.3942 -3.6937,-12.4863 -1.9038,-23.72 1.6483,-10.345 2.3846,-17.5555 2.1394,-26.6837 -0.4009,-14.9133 -1.0346,-17.0375 -5.3635,-17.9808 -3.0479,-0.6641 -3.255,-1.0249 -3.4344,-5.9769 -0.2943,-8.1197 -0.8021,-8.7152 -7.4254,-8.7152 -5.6467,0 -5.8087,-0.086 -6.6771,-3.5399 -0.4895,-1.9468 -2.5218,-6.6914 -4.3578,-10.619 -3.342,-7.1494 -6.7162,-6.6857 -12.8184,0.062 -4.9922,5.5198 -4.9923,5.6112 -5.7841,2.8546 -0.4406,-1.5336 -1.1739,-15.6824 -1.6299,-31.4415 -0.4562,-15.759 -1.0787,-36.3779 -1.3834,-45.8195 -0.4928,-15.2577 -0.3485,-17.2325 1.3012,-17.7622 1.0207,-0.3277 2.8033,-1.8584 3.961,-3.4013 1.8208,-2.4264 2.0472,-4.4035 1.6764,-14.6384 -0.4026,-11.1072 -0.2954,-11.8334 1.7493,-11.8334 1.2101,0 2.1521,-0.7259 2.1192,-1.6335 -0.053,-1.468 -1.36,-2.1133 -3.5848,-1.7694 -0.4363,0.067 -1.1385,-1.2222 -1.5601,-2.866 -1.7172,-6.6939 -8.3945,-24.8031 -10.9053,-30.4885 -1.4288,-3.2354 -2.5069,-4.7166 -3.4917,-5.0318 z m -54.204,8.8408 c -0.5549,0.161 -0.8792,0.7079 -1.1704,1.2909 l -5.0514,10.111 c -10.4166,20.8499 -21.5186,45.8159 -21.7444,48.8983 -0.1287,1.7557 -0.9792,3.7941 -1.8904,4.5295 -2.5125,2.0281 -3.6611,11.336 -3.7145,30.0994 -0.038,13.3931 -0.4049,17.4068 -1.7363,18.9999 -1.3333,1.5953 -1.5978,4.5162 -1.2578,13.8984 0.3744,10.3328 0.1867,11.9571 -1.4438,12.4814 -3.0767,0.9892 -4.1111,-0.4646 -4.314,-6.0658 -0.1059,-2.9207 -0.7416,-6.6301 -1.4133,-8.2429 -1.3066,-3.1379 -2.3554,-3.2071 -14.4395,-0.9498 l -4.0566,0.7581 -0.1979,-5.4612 c -0.1669,-4.604 0.1521,-5.5535 2.0319,-6.0498 2.1898,-0.5781 2.2607,-1.0967 0.9545,-29.007 -1.2277,-26.2351 -1.0436,-27.9147 -3.4189,-27.7301 -2.1571,0.1677 -2.1217,0.3446 -1.6552,-6.6993 0.269,-4.0633 0.7263,-7.7955 1.016,-8.2935 1.0192,-1.7519 12.0099,-1.0246 13.6725,0.9048 1.1857,1.3759 1.2457,1.9184 0.2496,2.2578 -1.9718,0.6721 -2.7133,7.6245 -1.0216,9.5777 1.1486,1.326 1.1259,2.0053 -0.1153,3.5279 -0.9516,1.1674 -1.5206,4.582 -1.4939,8.9648 0.023,3.8936 -0.3412,14.1854 -0.8108,22.871 -0.9822,18.1636 -0.1845,22.3707 4.0385,21.301 1.4103,-0.3572 4.7527,-0.9513 7.4279,-1.3198 9.6037,-1.3229 8.0525,-6.6554 -1.6019,-5.5071 l -5.1651,0.6144 0.4868,-8.9054 c 0.2676,-4.8981 0.3685,-14.273 0.2243,-20.8329 -0.2148,-9.7783 0.088,-12.427 1.6826,-14.7029 1.5797,-2.2549 1.9001,-4.9224 1.7068,-14.2116 -0.2368,-11.3805 1.073,-10.6724 -3.0763,-22.7986 -2.1219,-6.2011 -2.7946,-9.52 -5.8606,-14.0477 -1.9325,-2.8538 -4.5314,-3.2711 -5.5743,0.3607 -0.3527,1.2284 -3.1108,8.06 -5.9237,15.2482 -4.9915,12.755 -5.9582,16.8806 -3.9558,16.8806 0.5561,0 0.8637,3.7889 0.7054,8.6884 -0.2205,6.827 0.049,8.8117 1.2557,9.2676 1.2644,0.4776 1.633,4.95 2.082,25.2729 0.4958,22.4331 0.3624,24.9366 -1.4588,27.3637 -1.2849,1.7123 -1.9429,4.3783 -1.8324,7.4254 0.1557,4.2987 -0.079,4.7542 -2.4547,4.7542 -2.2236,0 -2.7669,-0.6806 -3.5367,-4.4323 -0.5002,-2.4377 -1.5441,-4.6725 -2.3203,-4.9661 -0.8084,-0.3059 -1.8337,-3.4146 -2.3998,-7.2765 -1.7397,-11.8672 -5.6645,-22.5256 -7.6926,-27.8433 -5.3237,-13.9589 -7.9609,-2.8367 -11.3946,2.9083 -12.0222,22.6179 -16.8099,38.9775 -16.5561,48.9614 0.07,2.6999 0.556,3.5403 2.0551,3.5403 1.8118,0 1.9661,1.0273 1.9731,13.1357 0.01,12.6699 0.091,13.1564 2.3445,13.7402 2.0971,0.5433 2.3648,1.3741 2.6086,8.1024 l 0.2719,7.4967 h -4.901 c -6.1162,0 -4.9749,-0.6823 -4.7677,5.7175 0.1167,5.0014 -0.02,5.3768 -1.0919,2.9951 -2.616,-5.8135 -2.858,-5.9903 -8.215,-5.9903 -8.2419,0 -4.7805,0.3988 -4.6643,8.9142 l 0.5586,8.9147 -3.3006,-0.094 c -4.0256,-0.1143 -6.5714,1.8777 -6.4564,5.0519 0.1203,3.3194 2.2105,4.9857 6.2549,4.9857 6.1364,0 6.3827,1.1559 4.7206,23.103 -3.8787,-2.224 -6.9547,-2.4814 -15.2786,-2.7543 -10.6881,-0.3504 -24.6499,1.4208 -38.3031,10.1069 -3.2272,4.5154 4.5385,1.7689 10.7073,-0.9571 12.0759,-5.3364 29.4077,-5.331 42.6196,-1.141 -0.1937,5.4486 -0.3274,11.1857 -2.0815,14.7014 -3.3109,6.6379 -14.5499,1.7442 -25.538,8.0249 -9.4983,5.4289 -12.4536,12.4749 1.3896,4.9909 10.0028,-4.7543 27.63,-2.0862 30.0085,-14.2627 0.4143,-2.1208 0.3435,-4.6394 0.5416,-7.5045 1.3991,-20.2343 0.9271,-33.1131 -1.326,-36.1714 -1.221,-1.6575 -1.3816,-2.57 -0.5447,-3.0991 1.1321,-0.7157 0.2396,-11.3182 -1.4847,-17.6356 -0.5557,-2.0356 -0.2144,-2.4505 2.017,-2.4505 2.2814,0 2.8574,0.6973 3.8261,4.6287 0.8784,3.5647 1.6936,4.7068 3.546,4.9692 4.4489,0.6301 6.8034,-1.6309 6.6317,-6.3691 -0.1393,-3.8421 0.1338,-4.3181 2.4794,-4.3181 3.7086,0 4.3836,3.5893 4.1047,21.8374 l -0.2331,15.1924 h -4.7604 c -2.7386,0 -4.7436,0.5094 -4.7186,1.1989 0.027,0.7498 1.8475,1.0546 4.8602,0.8144 l 4.8157,-0.384 -0.1003,12.4933 c -0.055,6.8714 -0.1721,12.9372 -0.2583,13.4798 -0.086,0.5427 0.3714,1.1809 1.0164,1.418 3.4989,1.2862 5.0867,-46.6564 2.311,-69.7761 -0.977,-8.1385 -1.5014,-15.776 -1.1653,-16.9716 0.4333,-1.5411 0.1147,-2.174 -1.0955,-2.174 -1.4269,0 -1.8048,-1.8321 -2.2986,-11.1631 -0.325,-6.1398 -0.6731,-12.3884 -0.7746,-13.886 -0.1332,-1.9614 -0.8735,-2.8204 -2.6479,-3.0711 -1.9008,-0.2686 -2.4897,-1.0613 -2.5771,-3.4727 -0.1051,-2.8994 0.2582,-3.1775 5.0338,-3.8545 4.4156,-0.626 11.0999,-1.8422 23.3835,-4.1832 5.2241,-0.9955 4.8603,0.056 4.776,4.8772 -0.3096,3.2107 -1.0589,6.4626 -1.665,7.2264 -0.7146,0.9003 -0.7161,1.8675 0,2.7502 0.6699,0.8307 0.9101,5.1818 0.6154,11.1632 -0.5258,10.6667 0.096,14.703 2.265,14.703 2.2068,0 2.6239,-2.6814 2.2071,-14.1832 -0.2168,-5.9835 0.082,-11.036 0.6754,-11.4111 0.5857,-0.3702 1.0214,-1.8694 0.9684,-3.3316 -0.053,-1.4622 0.5154,-2.6943 1.2625,-2.7384 0.7472,-0.044 4.6393,-0.2305 8.6496,-0.4144 4.0104,-0.184 9.0169,-0.6601 11.1254,-1.0583 l 3.8334,-0.724 0.2346,6.4673 c 0.2703,7.4587 -0.1151,7.7897 -9.0646,7.7897 -5.4314,0 -5.9084,-0.1992 -5.9919,-2.5048 -0.1929,-5.3226 -7.2755,-7.4104 -8.339,-2.4582 -0.7442,3.4657 0.4752,5.2178 3.0551,4.3894 1.153,-0.3702 2.0813,-0.1497 2.1048,0.5002 0.023,0.6394 -1.7137,1.1627 -3.8602,1.1627 -2.6361,0 -3.7408,0.4417 -3.4034,1.3612 0.6849,1.8667 14.179,2.3372 26.448,0.9219 5.3687,-0.6193 15.6313,-1.4349 22.8058,-1.8123 l 13.0442,-0.6863 2.8344,7.459 c 3.2893,8.6571 5.782,17.5413 5.1129,18.2242 -0.2554,0.2609 -7.3147,0.7897 -15.6869,1.1757 -16.9305,0.7805 -20.104,1.2215 -20.0474,2.7833 0.024,0.6571 7.2702,1.0682 18.8258,1.0681 l 18.7869,-5e-4 0.1075,13.4297 c 0.148,18.4828 -1.4703,17.3925 25.0879,16.9059 20.9141,-0.3831 24.6197,-1.0847 22.5387,-4.2654 -1.0694,-1.6345 -35.4069,0.2923 -40.9919,1.0387 -4.0713,0.9572 -3.2526,-6.4415 -3.1651,-12.8648 l -0.2998,-13.9697 6.3976,-0.6816 c 3.5186,-0.3749 12.4517,-0.6811 19.8515,-0.6811 h 13.4545 l 0.2532,6.9897 c 0.1394,3.8445 0.5776,7.7629 0.9741,8.707 1.5283,3.6392 2.6149,0.1727 2.3383,-7.46 -0.2538,-7.0045 2e-4,-8.1908 2.096,-9.7798 1.5781,-1.1965 1.932,-2.0041 1.0454,-2.3874 -0.788,-0.3409 -1.1592,-1.7807 -0.9012,-3.498 0.5426,-3.6113 -3.4143,-9.9973 -6.1944,-9.9973 -1.0819,0 -7.5576,0.6971 -14.3904,1.5492 -6.8329,0.852 -15.3543,1.821 -18.9363,2.1534 l -6.5128,0.6046 -4.4317,-8.9607 c -2.4375,-4.9283 -4.4463,-9.6484 -4.4644,-10.4888 -0.027,-1.2631 -2.2199,-1.4101 -12.6509,-0.85 l -12.6183,0.6774 0.5601,-2.4169 c 0.3081,-1.3293 0.4551,-5.4798 0.3287,-9.2237 l -0.2315,-6.8073 5.7159,-0.05 c 3.1437,-0.028 14.909,-1.3914 26.1447,-3.0314 l 20.4287,-2.9817 -0.3173,12.0773 c -0.2599,9.9039 -0.023,12.3138 1.3141,13.3914 1.2834,1.0339 1.8808,0.9996 2.8025,-0.1617 1.0204,-1.2856 4.0092,-17.723 2.5197,-24.3376 l -1.2754,-5.6642 c -0.5427,-2.4102 -2.8964,-4.959 -4.4529,-3.975 -0.692,0.4375 -1.1642,-0.7508 -1.2511,-3.1486 -0.1019,-2.8141 0.5173,-4.2916 2.3001,-5.4881 4.2463,-2.8501 9.2559,-4.1152 13.3062,-3.3605 l 3.9181,0.7302 -0.3902,8.9158 c -0.2147,4.9035 -0.9177,14.9774 -1.5622,22.3867 -0.8284,9.5221 -0.82,13.8114 0.029,14.6306 1.8397,1.7753 2.2511,0.7288 4.038,-10.2712 3.0076,-18.5142 4.2026,-63.448 1.7508,-65.8347 -1.5013,-1.4615 -2.2745,0.5245 -2.8241,7.2543 -0.2958,3.6217 -0.7044,6.7301 -0.9085,6.9076 -0.2041,0.1772 -4.6221,0.086 -9.818,-0.2026 l -9.447,-0.525 -1.0712,-8.5876 c -0.5893,-4.7233 -1.498,-8.8459 -2.0196,-9.1612 -0.5217,-0.3153 -0.6987,-1.2925 -0.3932,-2.1719 0.4407,-1.2682 -0.5211,-1.5989 -4.6519,-1.5989 h -5.2069 l 2.4592,-2.7228 c 1.7549,-1.9432 3.6627,-3.0947 -0.049,-2.7229 -1.3793,0 -4.9666,1.4081 -7.9721,3.129 -4.48,2.5651 -13.556,5.263 -13.6002,4.0427 -0.017,-0.4771 11.4259,-9.5709 17.6718,-14.0436 6.0786,-4.353 5.787,-4.513 7.5665,4.1491 1.0164,4.9477 2.4943,7.0797 4.9082,7.0797 2.6327,0 0.3835,-19.812 -3.6442,-32.0999 -3.2967,-10.0578 -9.6662,-21.1893 -11.5637,-22.6942 -1.2122,-0.9614 -1.9979,-1.1863 -2.5528,-1.0253 z m 52.8025,0.2693 c 0.9641,-0.069 2.2776,3.3114 5.4911,13.6875 2.532,8.1756 4.4559,14.9948 4.2752,15.1541 -0.1807,0.1593 -6.0442,0.631 -13.0302,1.0485 l -12.7015,0.7592 7.1427,-14.5051 c 3.9287,-7.9779 7.7203,-15.1387 8.4263,-15.9132 0.128,-0.1404 0.2587,-0.2211 0.3964,-0.231 z m -50.5339,9.8071 c 0.9779,0 3.6905,8.6044 3.0562,9.6945 -0.2997,0.5152 -1.6466,1.1773 -2.9926,1.4712 -1.3459,0.2939 -3.2702,0.8864 -4.2762,1.3168 -1.5215,0.6509 -1.3767,-0.3324 0.8619,-5.8498 1.4801,-3.6479 2.9879,-6.6327 3.3507,-6.6327 z m -58.9819,9.7069 c 0.6432,0.3243 1.3704,4.1833 2.1663,11.2588 l 0.8898,7.9121 c -2.6674,-0.2797 -5.3043,-0.655 -8.2682,0 l 1.7244,-5.2503 c 1.0371,-3.1575 2.0689,-7.9562 2.4237,-10.6185 0.3224,-2.4187 0.6782,-3.4967 1.064,-3.3021 z m 62.7827,3.8716 c 1.4334,0.1383 2.0961,1.2172 2.1699,3.2541 0.077,2.1246 -0.7799,3.1153 -3.8039,4.3982 -2.1468,0.9108 -6.7047,3.6166 -10.1286,6.013 -3.4239,2.3965 -6.2286,3.986 -6.2296,3.5321 0,-0.4539 1.2434,-3.2759 2.7689,-6.2709 2.1327,-4.1872 4.081,-6.1602 8.4299,-8.5375 3.1561,-1.7252 5.36,-2.5273 6.7934,-2.389 z m 2.5792,9.6025 h 5e-4 c 1.5972,-0.2115 2.0024,1.0793 2.1177,3.7538 0.074,1.7059 -0.7186,2.6386 -2.6593,3.1301 -3.8032,0.9632 -17.041,10.0431 -22.7825,15.6264 -2.6037,2.532 -5.5439,5.0498 -6.533,5.595 -3.1818,1.7537 -3.1974,1.0849 -0.084,-3.6375 4.4771,-6.7914 9.9547,-11.88 20.6731,-19.2056 4.8818,-3.3365 7.6705,-5.0506 9.2677,-5.2622 z m 42.7323,2.0573 c -0.5176,-0.1072 -1.0461,0.063 -1.5384,0.5736 -1.3967,1.4493 -2.1069,12.3986 -1.0439,16.0993 1.7853,6.2159 5.8743,-0.9367 5.6715,-9.9214 -0.081,-3.6123 -1.5363,-6.4301 -3.0892,-6.7515 z m 9.6681,1.0728 c -0.4698,-0.085 -0.9536,0.2018 -1.6748,0.819 -1.6894,1.4456 -2.1586,8.8107 -0.6537,10.263 1.2439,1.2003 3.6999,0.8191 4.0953,-0.6356 1.2666,-4.6589 1.216,-7.2255 -0.1767,-9.0403 -0.665,-0.8664 -1.1204,-1.3216 -1.5901,-1.4061 z m -110.9255,1.3291 h 5e-4 c 0.1104,-0.1138 0.2668,0.04 0.4563,0.4728 0.3432,0.7862 0.3384,1.7253 -0.01,2.0872 -0.3487,0.3619 -0.6294,-0.2812 -0.6238,-1.4293 0,-0.6344 0.067,-1.0162 0.1773,-1.1307 z m 92.8729,0.8893 c -0.9572,0.071 -1.5615,2.7148 -1.4087,6.9309 0.1181,3.2592 0.6418,5.9257 1.1637,5.9257 1.1506,0 2.2918,-10.5248 1.3049,-12.0334 -0.3825,-0.5847 -0.7408,-0.847 -1.0599,-0.8232 z m -99.3309,6.4937 c -0.3033,-0.053 -0.6236,0.015 -0.956,0.2258 -1.2239,0.7737 -2.3657,11.2158 -1.3896,12.7078 1.2034,1.8392 3.6578,1.1375 4.3253,-1.2366 1.4151,-5.0333 0.142,-11.3282 -1.9797,-11.697 z m -4.8602,0.9178 c -1.3649,0 -1.7137,1.1374 -1.5694,5.1185 0.2129,5.8757 1.7908,5.2761 2.7218,-1.0345 0.4927,-3.34 0.2828,-4.084 -1.1524,-4.084 z m 75.0011,14.2952 0.1959,5.4023 0.1958,5.4022 -2.8096,-1.7983 c -2.1263,-1.361 -4.055,-1.6192 -7.9344,-1.062 -2.8189,0.4049 -7.4611,0.9107 -10.3162,1.124 -2.8551,0.2133 -6.3566,1.1701 -7.7809,2.126 -3.078,2.0658 -3.3883,2.1026 -4.4209,0.5245 -0.4744,-0.7251 -2.4822,-0.9858 -4.9889,-0.648 -3.5218,0.4747 -4.2058,0.2516 -4.2653,-1.3901 -0.05,-1.3762 0.9723,-2.1055 3.4504,-2.4619 1.9366,-0.2785 9.6022,-1.7541 17.0346,-3.2789 7.4324,-1.5247 15.3415,-3.0347 17.5762,-3.3558 z m 39.0457,10.5565 c -1.5182,-0.2739 -3.0286,4.9825 -2.0805,7.2399 0.4277,1.0184 1.383,1.6472 2.1224,1.3978 1.5935,-0.5377 1.556,-8.3497 -0.042,-8.6377 z m -48.4441,2.3745 c 2.1822,-0.1235 4.4273,0.2078 5.0054,1.0914 0.3919,0.599 1.5426,1.0889 2.557,1.0889 1.6488,0 1.8668,1.4343 2.0582,13.5387 0.1176,7.4461 0.7162,14.7442 1.3297,16.2176 1.0989,2.6388 1.0079,2.6903 -6.0529,3.4494 -3.9429,0.4239 -7.7077,0.9803 -8.3659,1.2366 -0.8347,0.3248 -1.3209,-3.0856 -1.6082,-11.2706 -0.4334,-12.3847 -1.7838,-16.6367 -5.2818,-16.6367 -2.5558,0 -5.9279,3.9671 -7.3127,8.603 -1.3101,4.3863 -1.0311,17.5354 0.3725,17.5354 0.5375,0 1.4182,-3.1993 1.9575,-7.1096 1.0498,-7.6129 2.6726,-12.4944 4.1533,-12.4944 0.7917,0 1.1333,3.1536 2.0898,19.2924 0.1732,2.9212 0.055,2.9711 -10.1224,4.2959 -5.6639,0.7371 -11.075,1.3675 -12.0246,1.4009 -1.5242,0.053 -1.7475,-1.9477 -1.9043,-17.093 -0.098,-9.4344 1e-4,-17.7734 0.2124,-18.5312 0.2146,-0.7577 1.6838,-1.8765 3.2649,-2.4861 2.3781,-0.9167 3.7298,-1.0877 5.393,1.1792 3.2895,4.4836 2.7344,2.3803 5.2131,-0.509 3.03,-3.1439 8.6689,-3.814 9.7824,-1.1627 0.3773,0.8985 1.4518,1.6335 2.3879,1.6335 0.9361,0 1.9574,-0.735 2.2697,-1.6335 0.3246,-0.9346 2.4438,-1.5127 4.626,-1.6361 z m 15.6058,8.091 8.6579,0.7416 c 4.7617,0.4079 9.1961,1.0674 9.8547,1.4655 0.6586,0.3981 1.2487,2.1423 1.3115,3.8757 0.1132,3.1252 0.07,3.1465 -5.1439,2.5317 -3.9879,-0.4703 -6.3415,-0.087 -9.7441,1.5859 l -4.4865,2.2061 -0.2248,-6.2033 z m -110.8263,2.8024 c 0.4252,0 1.4329,2.7069 2.2396,6.0152 1.6764,6.875 1.3573,9.8763 -0.6728,6.3236 -0.7692,-1.3461 -1.1029,-3.916 -0.7777,-5.9872 0.5688,-3.6213 0.5652,-3.6249 -1.6542,-1.5968 l -2.2241,2.0324 1.158,-3.3936 c 0.6369,-1.8665 1.5059,-3.3936 1.9312,-3.3936 z m 96.3626,2.3037 c -0.8147,-0.1197 -1.5888,0.9044 -1.9529,3.1275 -0.5004,3.0558 0.3223,10.7829 1.4873,13.9697 1.8207,4.9802 4.1511,-6.711 2.6629,-13.3594 -0.5269,-2.3541 -1.3825,-3.618 -2.1973,-3.7378 z m -28.0686,2.3017 c -0.2412,0.032 -0.4988,0.1345 -0.7731,0.308 -0.9617,0.608 -1.0546,2.9134 -0.34,8.445 0.5405,4.1845 1.2634,8.037 1.6061,8.5607 1.7659,2.6991 2.6419,0.1343 2.3699,-6.9438 -0.2801,-7.3038 -1.1737,-10.5915 -2.8629,-10.3699 z m 75.7747,2.0795 c -0.8229,-0.2099 -1.884,1.7774 -2.0087,5.1066 -0.094,2.4993 0.2953,4.544 0.8646,4.544 1.3944,0 2.2581,-2.7426 2.1141,-6.7144 -0.069,-1.893 -0.4763,-2.8101 -0.97,-2.9362 z m -147.5099,4.2395 c 0.2534,0.065 0.4198,0.3158 0.4372,0.7963 0.02,0.5561 -0.9293,1.9148 -2.1099,3.0195 -2.1113,1.9755 -2.1324,1.9655 -1.279,-0.5922 0.6485,-1.9434 2.1915,-3.4184 2.9517,-3.2236 z m 2.7761,6.0663 c 0.6799,0.1293 1.1487,0.8139 1.1922,2.0123 0.029,0.7968 -0.809,2.563 -1.8624,3.9248 l -1.9152,2.4758 -0.7705,-2.5874 c -0.4897,-1.6448 -0.1629,-3.2869 0.8977,-4.5077 0.8873,-1.0212 1.7783,-1.4472 2.4582,-1.3178 z m 5.1728,2.079 c 0.4292,0.2825 0.944,1.7461 1.6552,4.4627 0.8652,3.3052 0.7271,4.3715 -0.7126,5.4969 -0.9825,0.7679 -2.3985,1.4123 -3.1466,1.4309 -1.5675,0.04 -2.0002,-3.8852 -0.5307,-4.8142 0.5405,-0.3418 1.258,-2.1213 1.5942,-3.9543 0.3679,-2.0063 0.7113,-2.9045 1.1405,-2.622 z m -12.4969,0.5343 c 0.5028,0 0.93,0.4357 0.9493,0.9684 0.042,1.1628 -4.0347,6.4433 -4.1264,5.3449 -0.1271,-1.5214 2.2843,-6.3133 3.1771,-6.3133 z m 2.0454,7.0176 c 1.1005,0.2371 1.2254,2.1653 -0.2998,4.916 -1.5305,2.7615 -2.3989,3.2912 -4.518,2.7642 -1.8526,-0.4608 -3.3869,0.084 -5.223,1.8547 l -2.5998,2.5068 2.2479,-4.084 c 1.2362,-2.2463 2.9346,-4.084 3.7739,-4.084 0.8393,0 2.5177,-1.0293 3.73,-2.2872 1.2167,-1.2625 2.2285,-1.7288 2.8888,-1.5865 z m 114.7387,0.7509 c 1.7701,-0.1075 2.1367,0.1781 1.4671,0.8346 -0.5495,0.5387 -5.1556,1.2523 -10.2351,1.5854 l -9.235,0.6057 8.1137,-1.5023 c 4.9454,-0.9156 8.1193,-1.4161 9.8893,-1.5234 z m 33.6491,0.3989 c -1.949,0 -2.5454,2.9252 -1.4061,6.8921 0.8157,2.8397 0.8702,2.8565 2.3471,0.7313 1.8725,-2.6943 1.264,-7.6234 -0.941,-7.6234 z m -54.8762,3.2407 c 1.4145,0.099 -4.1669,1.1369 -14.6286,2.6422 -5.0652,0.7288 -10.3513,1.5626 -11.7471,1.8531 -1.7524,0.3646 -2.4099,0.092 -2.1234,-0.8806 0.2691,-0.9142 3.4354,-1.6421 9.017,-2.0727 4.7309,-0.365 11.7769,-0.955 15.6575,-1.311 2.1043,-0.1932 3.3532,-0.264 3.8246,-0.231 z m -0.9555,7.4827 c -1.9615,-0.2334 -5.0895,3.4661 -4.1936,5.5992 1.1621,2.7671 5.5825,1.6659 5.9128,-1.4728 0.149,-1.4169 -0.2851,-3.1134 -0.9653,-3.7698 -0.2175,-0.21 -0.4737,-0.3233 -0.7539,-0.3566 z m 16.0786,1.5281 c -0.699,-0.1563 -1.792,0.1914 -3.4107,1.0139 -3.0072,1.5278 -3.9047,3.5118 -2.2923,5.0679 1.9791,1.9098 6.8599,-1.034 6.7499,-4.0711 -0.043,-1.1941 -0.3477,-1.8544 -1.0469,-2.0107 z m -32.8554,1.3627 c -2.7337,0 -3.1361,0.4083 -3.0391,3.0856 0.062,1.6972 0.4508,3.4124 0.8646,3.8117 1.268,1.2237 3.4181,0.8127 5.1506,-0.985 1.8817,-1.9524 1.867,-1.8842 0.8986,-4.1899 -0.4291,-1.0216 -2.0063,-1.7224 -3.8747,-1.7224 z m -72.3268,5.6498 c -1.9859,-0.2822 -2.5745,0.4409 -3.4639,4.2576 -0.9563,4.1041 -0.3159,10.8867 1.2547,13.2871 0.3183,0.4865 2.366,0.7353 4.5501,0.5529 l 3.9708,-0.3318 -0.2516,-5.4456 c -0.3099,-6.7028 -2.8487,-11.8637 -6.0601,-12.3202 z m 39.4585,2.311 c -0.7154,-0.2318 -0.9349,1.0875 -0.5725,3.4561 0.3224,2.1067 1.0533,3.8302 1.6247,3.8302 1.3989,0 0.4152,-6.8116 -1.0522,-7.2863 z m -38.8441,8.1783 c 0.064,0.064 0.1376,0.2253 0.216,0.4904 0.3144,1.0596 0.3495,2.5297 0.078,3.267 -0.2715,0.7374 -0.5285,-0.1293 -0.572,-1.9265 -0.033,-1.3477 0.085,-2.0241 0.278,-1.8309 z m 36.9983,13.2663 c -2.4164,0 -4.7529,2.7744 -12.8401,15.2477 -9.3678,14.4484 -13.6251,23.8243 -11.9615,26.3421 0.8463,1.2808 1.588,10.2915 2.1709,26.3761 0.4869,13.4369 1.2108,25.206 1.6087,26.1535 1.1652,2.7745 2.4167,2.0051 3.668,-2.2542 1.0205,-3.4734 -0.2196,-32.1972 -2.0614,-47.7474 -0.78,-4.4753 -0.5092,-3.6751 16.4285,-5.1031 9.2477,-1.0146 17.3035,-1.876 17.9012,-1.9146 0.6739,-0.043 1.2876,5.4922 1.6169,14.5784 0.5538,15.2808 1.8663,19.7287 4.3517,14.7475 0.8141,-1.6317 0.9179,-7.0328 0.3178,-16.5572 -0.8637,-13.7084 -0.9794,-14.2065 -3.823,-16.4822 -1.9843,-1.5879 -3.8077,-4.9605 -5.64,-10.4314 -4.1144,-12.2851 -9.5702,-22.9552 -11.7377,-22.9552 z m 133.907,0.5633 c 0.9775,-0.618 4.894,9.2993 4.053,10.263 -0.2303,0.264 -1.2721,-0.3438 -2.3156,-1.3509 -1.7774,-1.7152 -2.0761,-1.6538 -4.7207,0.971 -4.1766,4.1453 -4.9327,1.3524 -1.189,-4.3914 1.7403,-2.67 3.6178,-5.1412 4.1723,-5.4917 z m -39.6141,4.5837 c 1.58,0.1207 2.1517,0.6874 3.1176,1.8066 1.094,1.2677 2.552,2.9496 3.2402,3.7378 0.6883,0.7881 1.085,1.5881 0.8816,1.7776 -0.6255,0.5832 -43.3529,1.3279 -43.9353,0.7659 -0.3007,-0.2902 -0.578,-1.3749 -0.6155,-2.4107 -0.057,-1.5698 1.4234,-2.0132 8.8888,-2.6639 4.9263,-0.4295 13.5908,-1.3953 19.2542,-2.1462 5.0002,-0.6629 7.5884,-0.9879 9.1684,-0.8671 z m -95.0273,1.4015 c 1.269,-0.025 10.3105,24.5466 9.3767,25.4816 -0.2372,0.2374 -5.0668,0.9887 -10.7327,1.6697 -5.6659,0.6809 -12.2375,1.5436 -14.6032,1.9172 l -4.301,0.6795 1.9048,-3.1729 c 4.2993,-7.1613 17.6997,-26.5628 18.3554,-26.5751 z m 135.9969,7.305 c 0.4252,-0.019 0.8718,0.01 1.3348,0.073 2.4477,0.3573 3.3075,1.0592 3.3688,2.7518 0.064,1.7674 -0.2184,1.9823 -1.2718,0.9658 -2.0187,-1.9481 -3.8694,-1.5835 -4.4224,0.8713 -0.6051,2.686 -2.5368,2.8496 -3.2148,0.2723 -0.7089,-2.695 1.2284,-4.8097 4.2054,-4.934 z m -10.8515,1.5022 h 5e-4 c 0.5898,-0.088 1.2591,0.2101 2.2954,0.8521 1.2435,0.7696 1.267,1.316 0.1416,3.2293 -0.7452,1.2667 -1.9446,2.5327 -2.6654,2.8133 -1.8544,0.7217 -3.1017,-3.5214 -1.5937,-5.4214 0.7204,-0.9077 1.2315,-1.3841 1.8216,-1.4733 z m -158.3144,4.5144 c -1.5088,-0.4903 -1.6497,8.8593 -0.186,12.3445 0.6912,1.6458 0.9113,1.5545 1.6598,-0.6888 1.177,-3.5272 0.2188,-11.1056 -1.4738,-11.6557 z m 172.4205,1.9121 h 5e-4 c 2.1317,0 2.7427,0.5558 2.8153,2.559 0.09,2.4777 -0.2593,2.5786 -11.0474,3.1936 h -5e-4 c -6.1272,0.3493 -11.9857,0.9653 -13.0193,1.3694 -2.3934,0.9357 -2.4088,-0.4359 -0.04,-3.6669 1.6656,-2.2724 2.0124,-2.3572 3.3465,-0.817 1.8713,2.1606 4.921,2.2106 6.5898,0.108 0.9266,-1.1674 1.8356,-1.3188 3.3021,-0.5488 2.159,1.1334 5.424,0.3885 5.3656,-1.2243 -0.019,-0.535 1.1902,-0.973 2.6877,-0.973 z m -117.7122,0.045 c -0.8289,0.082 -1.5092,0.9328 -1.4526,2.4965 0.051,1.3977 0.4306,2.8682 0.8444,3.2675 2.11,2.0363 4.0929,-0.4105 2.9507,-3.6406 -0.5364,-1.5165 -1.5136,-2.2048 -2.3425,-2.1234 z m 10.7854,0.108 c -1.682,0.2654 -2.7666,2.5211 -1.7322,5.4462 0.9511,2.6896 3.4859,2.5734 4.8813,-0.2232 0.8324,-1.6685 0.7727,-2.6507 -0.233,-3.8117 -0.7201,-0.8313 -1.4693,-1.2735 -2.1632,-1.3994 -0.2602,-0.047 -0.5126,-0.05 -0.7529,-0.012 z m 46.4545,0.8651 c -0.1991,0.052 -0.406,0.185 -0.6186,0.4057 -1.0817,1.1224 -1.9347,10.3396 -1.2397,13.396 0.4026,1.7702 1.2274,2.5964 2.3735,2.3766 1.3599,-0.2606 1.7738,-1.9074 1.833,-7.2941 0.062,-5.6212 -0.9539,-9.2478 -2.3482,-8.8842 z m 12.362,0.031 c -0.6601,-0.1371 -1.2823,0.6097 -1.7182,2.4908 -1.0207,4.4041 -0.3025,12.5896 1.1498,13.1046 2.1675,0.7687 4.0342,-1.393 3.9083,-4.5248 -0.249,-6.1898 -1.8876,-10.7692 -3.3399,-11.0706 z m -46.7713,0.3364 c -1.4806,-0.48 -2.8897,3.5025 -1.8185,5.1398 0.3954,0.6044 1.4576,1.0986 2.3606,1.0986 1.965,0 1.4799,-5.583 -0.5421,-6.2384 z m 24.1686,0.7933 c -1.2966,0 -1.5762,1.5732 -1.357,7.6238 0.2193,6.0506 0.6133,7.6238 1.9099,7.6238 1.2965,0 1.5763,-1.5732 1.357,-7.6238 -0.2192,-6.0506 -0.6134,-7.6238 -1.9099,-7.6238 z m -32.32,12.5098 c 0.5204,0.037 1.2347,0.6708 1.8102,1.6779 1.3374,2.3404 1.418,15.3366 0.1535,24.7479 -0.2616,1.9468 -1.0336,3.5396 -1.7157,3.5398 -1.4536,6e-4 -2.1093,-28.2537 -0.6914,-29.7956 0.1179,-0.1284 0.27,-0.1824 0.4434,-0.17 z m 90.1495,5.4606 c -1.8089,0 -2.5466,8.5796 -1.1544,13.4266 1.2939,4.5051 2.7404,1.1593 2.7652,-6.3965 0.018,-5.6466 -0.2986,-7.0301 -1.6108,-7.0301 z m -126.6212,4.8767 c -1.0434,0.082 -1.9867,0.7209 -2.6556,2.0614 -1.9494,3.907 -2.8038,11.2371 -1.6366,14.04 0.9938,2.3864 1.5966,2.6382 4.9909,2.0841 5.4977,-0.8974 6.8658,-2.4971 6.6735,-7.8016 -0.2124,-5.8634 -4.242,-10.6295 -7.3722,-10.3839 z m 151.197,0.4362 c 0.3908,0.01 0.6814,0.419 0.7059,1.0929 0.033,0.8985 -0.4195,1.9367 -1.0051,2.3069 -0.5855,0.3702 -1.0915,-0.062 -1.124,-0.9607 -0.033,-0.8985 0.4195,-1.9366 1.0051,-2.3068 0.1464,-0.092 0.2878,-0.1348 0.4181,-0.1323 z m -226.1004,0.7291 c 1.0939,0 2.4677,0.3461 3.5631,1.0377 1.2687,0.8011 0.8184,1.06 -1.8671,1.0723 -1.9465,0.01 -3.5564,-0.4732 -3.5781,-1.0723 -0.025,-0.6916 0.7883,-1.0377 1.8821,-1.0377 z m 44.4061,0.1106 c -0.1752,-0.068 -0.4076,-0.044 -0.7023,0.054 -0.8953,0.2984 -1.5574,2.4209 -1.6573,5.3134 -0.2018,5.836 1.5952,4.7074 2.5244,-1.5855 0.3707,-2.511 0.3625,-3.5735 -0.1648,-3.7817 z m 31.1076,3.1047 c 2.5596,0 3.3169,9.2645 0.8361,10.2299 -2.7991,1.0892 -3.6949,0.7677 -3.7718,-1.3544 -0.1026,-2.8327 1.8961,-8.8755 2.9357,-8.8755 z m 62.3497,8.168 c 0.83,0 2.2171,1.5931 3.082,3.5399 l 1.5725,3.5393 h -3.6773 c -3.5714,0 -3.6605,-0.1018 -3.082,-3.5393 0.3276,-1.9468 1.2747,-3.5399 2.1048,-3.5399 z m 19.5311,2.0893 c 0.3277,0.1116 0.6939,0.6 1.2103,1.5038 0.7084,1.2396 1.2983,2.5312 1.3105,2.8701 0.012,0.3389 -0.958,0.616 -2.156,0.616 -2.2994,0 -2.8444,-1.7167 -1.343,-4.2313 0.3612,-0.605 0.6505,-0.8702 0.9782,-0.7586 z m -137.0149,10.6355 c -2.773,-0.3269 -3.7437,0.7555 -2.1001,2.3415 0.4138,0.3994 1.9366,0.726 3.3843,0.726 3.581,0 2.4828,-2.6235 -1.2842,-3.0675 z m 180.2784,6.2498 c -1.1013,-0.329 -2.1235,1.3015 -2.0097,4.4416 0.1154,3.186 0.606,4.3563 1.8257,4.3563 2.1522,0 3.0128,-2.549 2.0237,-5.9929 -0.4898,-1.705 -1.1789,-2.6076 -1.8397,-2.805 z m -181.4928,1.7539 c -0.9733,0.081 -1.9517,0.5736 -2.2024,1.4175 -0.2959,0.9962 0.3728,1.3388 2.127,1.0893 1.4072,-0.2001 2.4184,-0.8541 2.2469,-1.4531 -0.2301,-0.8039 -1.1983,-1.1347 -2.1715,-1.0537 z m 116.8983,0.1106 c -8.0262,-0.087 -14.4652,1.894 -18.3679,5.705 -3.5072,3.4247 -3.5135,3.453 -3.2701,14.4126 0.1343,6.0396 0.395,10.3857 0.8088,12.5708 0.2975,0.7374 0.9676,2.1502 2.7512,1.7777 1.4896,-0.3111 1.6971,-2.1927 1.3617,-12.684 -0.3342,-10.4497 -0.1169,-12.4964 1.4211,-13.3749 1.6655,-0.9514 1.8557,0.049 2.2919,12.0861 0.2616,7.2179 -0.6213,13.1523 1.449,13.1232 2.2949,-0.032 1.7032,-15.4624 1.0831,-23.3903 -0.2697,-3.4463 0.075,-4.4136 1.6847,-4.7341 1.912,-0.3807 2.0276,0.3825 2.096,13.8607 0.065,12.7116 0.2683,14.2637 1.8706,14.2637 1.3134,0 1.9352,-1.3618 2.3074,-5.0529 0.6962,-6.9047 0.3101,-14.2891 -1.003,-19.1797 -1.0468,-3.8992 -0.9707,-4.084 1.68,-4.084 2.6837,-0.014 3.0866,-1.039 2.6122,14.1583 -0.1395,12.0269 0.077,14.1583 1.434,14.1583 1.7855,0 2.0443,-5.349 0.9612,-19.8763 -0.5249,-7.0379 -0.3488,-8.4403 1.0594,-8.4403 1.4474,0 1.7302,1.9683 1.9807,13.779 0.2162,10.1996 0.6498,13.9014 1.6702,14.2493 1.0552,0.3598 1.2614,-2.7624 0.879,-13.3145 -0.4334,-11.961 -0.2709,-13.7378 1.2268,-13.4322 1.4401,0.2938 1.8361,2.5025 2.389,13.3309 0.4737,9.273 1.0563,13.1085 2.0407,13.4323 1.0497,0.3454 1.2681,-2.5723 0.9173,-12.253 -0.3509,-9.6818 -0.1327,-12.5979 0.9172,-12.2509 0.99,0.3272 1.4992,3.8021 1.8087,12.3434 0.4045,11.1618 0.5639,11.8876 2.6092,11.8876 2.0263,0 2.1842,-0.9114 2.2618,-13.0689 0.046,-7.1881 -0.7983,-11.5206 -0.8929,-12.2933 -0.58,-4.7268 -9.9704,-6.8553 -18.5048,-7.5448 -1.2086,-0.098 -2.3876,-0.1523 -3.5342,-0.1648 z m -146.7497,2.9781 c -0.6566,0.01 -1.5176,0.311 -2.2753,0.9265 -0.2525,2.7418 2.273,2.2005 3.1388,0.5049 0.4871,-0.9538 -0.019,-1.4393 -0.8635,-1.4314 z m 6.2632,0.356 c -1.0352,-0.01 -2.2878,0.5004 -2.5854,2.0133 0.1083,1.9842 1.4789,1.8401 3.2107,1.4072 1.7317,-0.4329 1.4069,-2.5976 0.541,-3.1388 -0.2706,-0.1692 -0.6958,-0.2786 -1.1663,-0.2817 z m 178.988,0.5457 c -0.2511,0 -0.5021,0.076 -0.7451,0.23 -1.3228,0.8363 -1.5251,5.2679 -0.2946,6.4554 1.2854,1.2404 2.4502,0.8076 3.5026,-1.3017 1.0543,-2.113 -0.7047,-5.4144 -2.4629,-5.3837 z m -6.8771,0.877 c -1.1113,0 -2.4706,5.4132 -1.7751,7.0693 0.3796,0.9038 1.3205,1.6433 2.0909,1.6433 0.7703,0 1.6574,-0.7395 1.9714,-1.6433 0.5755,-1.6561 -1.1758,-7.0693 -2.2872,-7.0693 z m -76.3772,2.3869 c -0.3535,0.041 -0.6598,0.612 -1.2273,1.7493 -0.6455,1.2937 -0.8191,3.5874 -0.3855,5.0973 0.8828,3.0733 3.2699,3.6563 4.1852,1.0222 0.9121,-2.6247 0.6525,-4.1999 -1.0619,-6.4337 -0.7562,-0.9853 -1.1569,-1.4756 -1.5105,-1.4351 z m 11.7662,1.9679 c -1.2612,0 -1.3412,5.7451 -0.097,6.9463 1.053,1.0163 2.599,-3.6631 1.8216,-5.5139 -0.3307,-0.7877 -1.1067,-1.4321 -1.7244,-1.4324 z m 102.664,18.5415 c -1.2829,0.08 -2.8677,1.3451 -2.82,2.6618 0.033,0.9174 0.4904,1.6681 1.016,1.6681 1.3729,0 3.7183,-3.1972 2.9145,-3.9729 -0.2889,-0.2789 -0.6829,-0.3837 -1.1105,-0.357 z m 7.3215,0.1322 c -0.1658,-0.025 -0.3653,2e-4 -0.5968,0.079 -0.7962,0.2684 -1.5852,1.3617 -1.7534,2.4293 -0.1958,1.2416 0.2155,1.7653 1.1415,1.4532 0.7962,-0.2684 1.5857,-1.3617 1.7539,-2.4293 0.1468,-0.9313 -0.047,-1.4585 -0.5452,-1.5323 z m -159.3329,0.4615 c -0.8681,0.1163 -1.3986,1.4598 -0.6273,3.2965 0.385,0.9167 1.1837,1.3608 1.775,0.987 0.7088,-0.448 1.4687,-1.4387 0.5716,-3.0086 -0.5557,-0.9726 -1.1984,-1.3446 -1.7193,-1.2749 z m 145.1266,0.6258 c -0.1788,0 -0.3836,0.033 -0.6124,0.1096 -0.7399,0.2466 -1.8163,0.7767 -2.0552,2.2076 l -0.17,1.017 c -0.4207,2.5196 0.8662,2.7894 2.405,0.7421 1.6838,-2.24 1.6849,-4.0641 0.4326,-4.0763 z m -150.5144,0.323 c -1.8341,0 -4.4662,0.9816 -1.9756,3.5341 2.3732,2.4323 3.8303,0.7417 3.7786,-0.6857 -0.051,-1.4004 -0.8371,-2.8484 -1.803,-2.8484 z m 11.8872,0.6093 c -0.599,0 -1.0626,0.735 -1.03,1.6335 0.033,0.8985 0.5493,1.6334 1.1483,1.6334 0.599,0 1.4996,-0.8749 1.4671,-1.7735 -0.033,-0.8985 -0.9864,-1.4934 -1.5854,-1.4934 z m 8.202,0.9255 c -0.5691,0 -1.1916,0.5271 -1.3828,1.171 -0.1913,0.6439 0.4692,1.1704 1.4676,1.1704 0.9983,0 1.6202,-0.5265 1.3823,-1.1704 -0.2379,-0.6439 -0.8981,-1.171 -1.4671,-1.171 z m -67.925,1.6547 c -0.1308,0.01 -0.2662,0.026 -0.4036,0.059 -0.9151,0.224 -1.9061,1.0038 -1.989,1.7709 -0.3472,1.3592 1.147,2.0632 2.2748,1.7694 1.1275,-0.2941 1.8299,-2.1449 1.0712,-3.2049 -0.2134,-0.2982 -0.5612,-0.4123 -0.9534,-0.3948 z m -7.4171,0.07 c -0.1205,10e-4 -0.2418,0.01 -0.3654,0.019 -0.7723,0.061 -1.7501,1.0008 -2.1657,1.836 -0.2477,1.6529 1.5991,2.4846 3.2054,1.3937 1.6061,-1.0909 1.7889,-1.9883 0.4124,-2.9347 -0.3735,-0.2567 -0.7254,-0.3164 -1.0867,-0.3137 z m -6.7319,2.9864 c -0.148,-0.01 -0.2943,0.01 -0.4357,0.047 -0.6648,0.1759 -1.2133,0.8396 -1.2464,2.0934 0,0 -0.332,2.4242 1.9306,2.3048 2.2625,-0.1195 2.3369,-1.5429 1.446,-3.2571 -0.3848,-0.7398 -1.0531,-1.1618 -1.6945,-1.1876 z m 14.0911,2.866 c -0.086,0 -0.1731,0.012 -0.262,0.031 -0.4269,0.089 -0.8859,0.372 -1.3141,0.8651 -0.4109,0.4731 -0.041,2.3758 1.2071,2.2071 1.2477,-0.1688 2.0236,-0.8184 1.6821,-1.9994 -0.2116,-0.7325 -0.7142,-1.1189 -1.3131,-1.1038 z m -6.0947,3.6633 c -0.1753,-0.014 -0.355,0 -0.5312,0.045 -0.9056,0.2217 -1.7188,1.1395 -1.3457,2.2882 0.1936,0.596 0.5838,1.4938 1.8314,1.325 1.2478,-0.1688 1.6803,-1.4651 1.2857,-2.6293 -0.2286,-0.6757 -0.7143,-0.9872 -1.2402,-1.0289 z" transform="translate(128.32282,178.85833) translate(2809.1855,-1753.1616)"/>
</svg>
