<svg id="visual" viewBox="0 0 900 600" width="900" height="600" xmlns="http://www.w3.org/2000/svg" xmlns:xlink="http://www.w3.org/1999/xlink" version="1.1"><g transform="translate(463.7756670968183 314.95395193485746)"><path d="M84.2 -97.7C128.8 -102.4 198.1 -112.3 210.8 -93.6C223.5 -74.9 179.5 -27.7 152.5 7.8C125.4 43.3 115.2 67.2 103.6 101.4C92 135.5 79 180 50.9 200.8C22.8 221.6 -20.3 218.8 -59.4 205.7C-98.4 192.6 -133.5 169.3 -156.9 138.2C-180.3 107.1 -192.1 68.2 -207.2 24.2C-222.4 -19.9 -240.8 -69.2 -240.6 -126.6C-240.4 -184.1 -221.6 -249.8 -178.4 -245.7C-135.2 -241.6 -67.6 -167.7 -23.9 -130.5C19.8 -93.4 39.6 -92.9 84.2 -97.7" fill="#E4DAC8"></path></g></svg>