<svg id="visual" viewBox="0 0 900 600" width="900" height="600" xmlns="http://www.w3.org/2000/svg" xmlns:xlink="http://www.w3.org/1999/xlink" version="1.1"><g transform="translate(414.93113100793414 351.90946368622195)"><path d="M196.7 -241.3C246.5 -234.6 272.6 -165.8 235.8 -115.3C199.1 -64.7 99.6 -32.3 73.4 16.3C47.2 65 94.4 130 94.4 137.3C94.4 144.6 47.2 94.3 11.2 79C-24.9 63.6 -49.8 83.2 -80.2 85.7C-110.6 88.3 -146.6 73.8 -166.7 46.1C-186.7 18.4 -190.8 -22.5 -164.4 -37.9C-138 -53.3 -81.1 -43.2 -48.6 -55.5C-16.1 -67.8 -8 -102.4 32.7 -147.4C73.5 -192.5 146.9 -247.9 196.7 -241.3" fill="#A9B388"></path></g></svg>