<svg id="visual" viewBox="0 0 900 600" width="900" height="600" xmlns="http://www.w3.org/2000/svg" xmlns:xlink="http://www.w3.org/1999/xlink" version="1.1"><g transform="translate(448.74693833275614 279.3176667026848)"><path d="M156.7 -185.9C196.4 -153.4 217.4 -97.7 231 -38.1C244.6 21.5 250.9 85 228.3 139C205.7 193 154.1 237.4 95.8 255.3C37.4 273.1 -27.8 264.4 -83.9 239.9C-140 215.4 -186.9 175.2 -213.9 125.1C-240.9 75 -248 15 -233.1 -36.2C-218.3 -87.4 -181.4 -129.9 -138.9 -161.9C-96.4 -193.9 -48.2 -215.5 5.1 -221.6C58.5 -227.7 117 -218.4 156.7 -185.9" fill="#E0B977"></path></g></svg>