<svg id="visual" viewBox="0 0 900 600" width="900" height="600" xmlns="http://www.w3.org/2000/svg" xmlns:xlink="http://www.w3.org/1999/xlink" version="1.1"><g transform="translate(439.5775104546485 311.763888135275)"><path d="M166.9 -201.1C209.1 -163.5 231.1 -104.1 242.9 -42.1C254.8 19.9 256.4 84.5 227.1 127.1C197.7 169.8 137.3 190.6 78.8 208.4C20.3 226.2 -36.4 240.9 -84 225.7C-131.6 210.6 -170.2 165.5 -195.4 115.8C-220.6 66 -232.4 11.5 -229.7 -46.9C-227.1 -105.3 -210 -167.6 -169.3 -205.4C-128.6 -243.2 -64.3 -256.6 -1 -255.5C62.4 -254.3 124.7 -238.6 166.9 -201.1" fill="none" stroke="#674636" stroke-width="10"></path></g></svg>