<?xml version="1.0" ?><svg xmlns="http://www.w3.org/2000/svg" width="107.86876mm" height="145.72025mm" viewBox="0 0 107.86876 145.72025">
    <path d="m 1162.473,693.50179 c 2.058,2.29095 4.9341,-0.51546 5.2812,-3.47456 0.3472,-2.95912 4.3639,-17.20106 7.5128,-20.71383 3.1489,-3.51277 21.1498,-3.60823 21.8936,-9.27828 0.7439,-5.67004 -5.5044,-7.54097 -11.1823,-7.48368 -5.678,0.0573 -4.0911,-3.05456 -0.9918,-7.82736 3.0993,-4.77276 6.8433,-5.47912 12.3973,-4.65822 5.554,0.82092 14.767,4.27193 16.0315,-1.64629 1.2646,-5.91826 -4.5374,-7.29279 -7.8846,-8.76282 -3.3473,-1.47002 -10.1906,-2.5582 -6.769,-6.77733 3.4217,-4.21912 14.0855,-4.20296 24.0033,-2.42747 9.9178,1.77549 15.0503,-3.68459 16.9347,-6.54823 1.8844,-2.86366 -2.653,-7.15915 -8.8269,-8.26643 -6.1738,-1.1073 -10.4633,-2.82548 -8.083,-6.87281 2.3803,-4.04731 20.1413,-8.50226 20.6372,-12.51138 0.4959,-4.00913 -1.3885,-6.66279 -1.3885,-6.66279 0,0 12.4965,-10.57646 13.0916,-16.99107 0.595,-6.41461 1.7506,-8.77734 -2.2165,-9.96098 -3.9671,-1.18366 -13.8106,1.4891 -16.9347,0.66818 -3.1241,-0.82092 -5.8515,-1.41274 -7.7855,0.76364 -1.934,2.17639 -4.8597,3.97095 -4.8597,3.97095 0,0 -3.5953,-4.77277 -7.6616,-1.54639 -4.0663,3.22641 -10.4881,10.99648 -12.2485,17.65927 -1.7604,6.66277 0.2654,23.15713 -5.8836,24.18805 -6.1491,1.0309 -14.8024,-18.88109 -18.7448,-17.3347 -3.9423,1.54636 2.0332,20.19834 3.5953,25.96385 1.562,5.76551 7.4368,21.19106 0.2216,23.2338 -7.2152,2.04275 -16.3892,-12.75283 -20.6043,-11.11101 -4.2151,1.64184 4.1407,18.30837 6.0499,22.89021 1.9092,4.58184 5.6168,17.82329 0.5339,20.40057 -5.0829,2.5773 -10.2154,-5.32641 -15.2983,-2.02364 -5.0829,3.30274 6.7328,14.98803 8.6172,18.7299 1.8844,3.74185 0.5625,14.41085 0.5625,14.41085 z" fill="#7D8958" paint-order="fill markers stroke" transform="translate(52.916754,-6.349995) translate(-1203.1918,-543.44795)"/>
    <path d="m 1248.653,549.79816 c -2.4293,-0.0104 -5.0716,0.35644 -7.5318,1.10277 -3.0134,0.9143 -4.2735,0.9647 -6.2503,0.2496 -2.9355,-1.0615 -6.0874,-0.0477 -8.7865,2.82515 l -1.7018,1.81178 -2.1487,-1.58802 c -3.9446,-2.9164 -9.5102,0.11684 -14.5655,7.93802 -3.9493,6.11028 -6.0064,12.56693 -6.9267,21.74131 -0.971,9.68068 -1.3523,12.01808 -2.1735,13.31288 -1.1963,1.8867 -3.6473,-0.37001 -7.7137,-7.10189 -6.0534,-10.02188 -10.9038,-13.34682 -14.1831,-9.72292 -3.2079,3.54468 -2.4167,10.05029 3.0597,25.15815 4.29,11.83538 5.2105,16.31811 4.1543,20.24011 -0.4337,1.6108 -1.0956,3.11787 -1.4707,3.34967 -1.4651,0.90558 -5.2591,-1.45828 -10.5064,-6.54638 -4.7125,-4.56928 -5.8708,-5.3175 -8.2331,-5.3175 -2.0916,0 -3.0521,0.462 -4.0157,1.9327 -2.1681,3.3088 -1.0173,8.02146 4.7439,19.42414 3.9687,7.85458 5.2799,11.26464 5.5407,14.40894 0.3363,4.05538 -0.872,8.7297 -2.2567,8.7297 -0.3787,0 -2.629,-1.03536 -5.0012,-2.30116 -2.3721,-1.266 -4.9391,-2.30166 -5.7036,-2.30166 -2.5322,0 -5.182,1.70299 -6.1004,3.92069 -1.4719,3.55308 -0.76,5.11967 7.7355,17.02945 2.359,3.30698 2.6568,4.29911 2.8814,9.58959 0.1377,3.24516 0.4026,6.36044 0.5886,6.92361 0.7721,2.33479 2.3412,0.0459 3.6313,-5.29632 1.2679,-5.25028 2.7662,-10.59625 3.7523,-13.56454 l 1.9099,-4.86586 c 3.4818,-9.34833 9.2701,-22.82593 9.8212,-24.43075 7.9383,-22.99123 34.8573,-57.25981 64.4606,-82.07592 4.3595,-3.65451 6.8194,-5.42706 7.6838,-5.2586 0.8643,0.16847 0.1329,2.27821 -1.8904,6.38824 -1.7389,3.5323 -4.0035,6.35447 -8.2062,10.22677 -5.3155,4.898 -6.4482,6.99854 -3.7734,6.99854 0.5563,0 1.3981,0.46566 1.8702,1.03456 1.2343,1.4869 -0.6248,2.92773 -8.6005,6.66523 -7.2972,3.41968 -12.0169,7.01858 -12.0169,9.16378 0,0.7488 0.5171,2.59803 1.1488,4.10983 0.9418,2.25378 1.7356,2.90261 4.4111,3.60391 8.8756,2.3265 11.4575,3.27831 11.8804,4.38061 0.7154,1.8644 -3.7767,5.34157 -8.7798,6.79597 -4.1693,1.2113 -4.8269,1.20498 -11.7171,-0.1111 -11.4956,-2.1956 -15.0181,-1.55886 -19.821,3.58014 -3.8333,4.10148 -2.1831,6.29428 7.6078,10.10998 7.5001,2.92278 8.3194,4.51336 3.6235,7.03006 -2.5825,1.3841 -3.2055,1.4291 -7.2879,0.5271 -8.2986,-1.8341 -9.8684,-1.89224 -12.853,-0.47594 v 0.001 c -1.6861,0.7999 -3.9579,2.9481 -5.5671,5.2648 -0.1101,0.1394 -2.0419,2.7412 -2.8019,5.91436 -0.6782,2.83183 1.3075,4.22568 6.2508,4.38888 4.7782,0.1577 8.7428,1.90613 8.1029,3.57343 -0.7113,1.8534 -4.9671,4.01243 -9.8707,5.00693 -2.5314,0.51366 -5.8858,1.58538 -7.4538,2.38176 -1.5681,0.79641 -3.7254,2.73499 -4.7946,4.30827 -1.8058,2.43411 -2.5511,5.44761 -3.4318,8.3013 -1.7562,5.69062 -2.8001,13.38265 -1.7916,13.38265 0.4035,0 1.1697,-1.98502 1.7032,-4.4111 1.8159,-8.2595 5.83,-16.00779 9.2377,-17.83147 0.8042,-0.4303 4.0463,-1.27734 7.2042,-1.88154 6.6775,-1.2776 9.6889,-2.66713 11.9171,-5.49993 4.5273,-5.75538 -0.6572,-11.01088 -10.8644,-11.03188 -2.0042,-0.003 -3.6437,-0.19972 -3.6437,-0.43822 0,-1.05 1.9047,-3.9823 4.0783,-6.27868 2.7005,-2.8532 4.9068,-3.12559 10.8112,-1.33429 7.7164,2.3408 14.5959,0.84697 17.4191,-3.78271 3.0111,-4.9376 1.0002,-7.53253 -8.3644,-10.79263 -8.7809,-3.05668 -9.64,-4.36705 -4.47,-6.82025 3.4387,-1.6319 6.2222,-1.5696 12.9326,0.2899 11.1448,3.0882 20.221,1.36161 25.7116,-4.89169 6.0866,-6.93238 1.4658,-12.06816 -11.9631,-13.29634 -8.7356,-0.799 -6.8274,-3.98365 5.4777,-9.14363 10.1542,-4.2582 13.5854,-8.68159 9.9322,-12.80439 -1.1291,-1.2741 -1.1652,-1.57672 -0.2264,-1.90272 1.9891,-0.6914 8.5534,-7.30617 10.4056,-10.48567 2.4887,-4.273 3.7149,-9.70135 3.1068,-13.75575 -0.4312,-2.8759 -0.9001,-3.57797 -3.0815,-4.61315 -1.6096,-0.76365 -3.8261,-1.15127 -6.2554,-1.16169 z m 1.0806,3.776 v 5.1e-4 c 1.3391,-0.009 2.3326,0.13898 2.6592,0.46561 0.2556,0.2554 -4.261,4.51239 -10.0371,9.45989 -18.428,15.78456 -34.3053,33.51767 -48.2482,53.88663 v -0.003 c -2.617,3.82338 -4.9472,7.14054 -5.1785,7.37164 -0.231,0.2312 -0.4206,-1.36336 -0.4206,-3.54345 0,-3.8423 -1.5484,-9.262 -6.8327,-23.91017 -2.2689,-6.28959 -3.1808,-13.80898 -1.6743,-13.80898 1.0436,0 4.2193,4.0099 6.9355,8.75709 3.4125,5.96469 6.3576,8.25829 10.2309,7.96799 4.6211,-0.3464 5.6916,-2.33956 7.1179,-13.25294 1.8228,-13.94927 5.3871,-22.73504 11.2117,-27.63604 2.8732,-2.41559 3.9918,-2.41609 5.0927,0 1.1713,2.571 3.3156,2.41991 5.3847,-0.37878 2.9644,-4.00949 5.1027,-4.98342 8.4889,-3.86592 2.4553,0.8105 3.6049,0.76718 7.1794,-0.27182 2.6661,-0.77512 5.8585,-1.22368 8.0905,-1.23816 z m -86.4857,67.11425 c 1.0895,-0.18248 3.5248,2.31518 8.7664,8.29148 3.8713,4.4142 6.5731,5.19372 10.5161,3.03392 1.6002,-0.8766 2.9094,-1.43693 2.9094,-1.24333 0,0.1927 -0.6456,1.6311 -1.435,3.1967 -0.7891,1.5655 -3.7617,9.06055 -6.6058,16.65583 -2.8439,7.595 -6.4698,16.91577 -8.0574,20.71347 -1.5875,3.79738 -3.2191,7.94017 -3.6257,9.20615 l -0.7389,2.30116 -0.9318,-2.81482 c -0.5123,-1.5482 -2.8127,-5.69044 -5.1118,-9.20512 -5.9811,-9.14288 -5.558,-10.30862 2.7161,-7.49154 4.9615,1.689 5.2992,1.71104 7.1939,0.46974 3.3537,-2.19758 4.5173,-5.42362 4.1708,-11.56622 -0.2761,-4.89568 -0.8295,-6.48898 -5.4488,-15.69206 -3.2722,-6.51958 -5.1407,-11.17359 -5.1407,-12.80439 0,-1.86708 0.1694,-2.94149 0.8232,-3.05097 z" transform="translate(52.916754,-6.349995) translate(-1203.1918,-543.44795)" fill="#674636"/>
</svg>