<?xml version="1.0" ?><svg xmlns="http://www.w3.org/2000/svg" width="174.72705mm" height="128.81027mm" viewBox="0 0 174.72705 128.81027">
    <path d="m -2075.8849,-1100.1774 c -5.1243,-0.035 -18.0515,5.2405 -23.2534,7.6512 -5.202,2.4106 -16.1102,11.4593 -22.3991,14.6735 -6.2889,3.2142 -23.0985,8.0702 -31.6002,8.8388 -8.5014,0.7686 -13.8586,0.5588 -24.1846,-3.6334 h -5e-4 c -4.4637,-0.9779 -1.8243,1.3278 -0.039,3.0396 1.7858,1.7119 8.1912,7.9654 8.1912,7.9654 l -3.5714,1.9916 4.3476,5.6596 c 0,0 0.466,3.1796 12.0344,4.7517 11.5685,1.5722 27.6402,-3.7383 27.6402,-3.7383 0,0 -2.0185,24.875 -1.048,30.5697 0.9705,5.6948 8.8899,14.6389 8.8899,14.6389 0,0 25.8151,25.50391 31.0947,28.26393 5.2796,2.76 21.9725,11.31948 54.9698,-4.36717 32.9973,-15.68669 27.718,-51.28746 26.9027,-58.41456 -0.8152,-7.1272 -6.3281,-22.8487 -14.0921,-32.2817 -7.7641,-9.4329 -16.8092,-15.2675 -20.7688,-16.4553 -3.9597,-1.1879 -27.9894,-9.1185 -33.1137,-9.1535 z m 15.2952,49.9598 c 0,0 5.0856,10.9001 5.3573,17.8526 0.2717,6.9524 -3.9988,19.1804 -8.4243,18.4118 -4.4255,-0.7687 -9.4331,-7.4418 -10.093,-15.2327 -0.6599,-7.7909 5.7065,-17.8176 13.16,-21.0317 z" fill="#CECFAA" paint-order="fill markers stroke" transform="translate(175.45673,88.316182) translate(2004.9905,1012.8278)"/>
    <path d="m -2078.5994,-973.21436 c -3.1262,-0.5992 -6.9946,-1.7724 -8.5967,-2.6069 -9.1357,-4.7599 -37.7029,-31.73614 -41.4608,-39.15164 -1.0876,-2.1466 -2.5266,-5.9974 -3.1974,-8.5574 -1.4582,-5.564 -1.7588,-20.6683 -0.4752,-23.8872 l 0.9108,-2.2845 -2.6277,0.6703 c -3.5852,0.9149 -31.4846,0.4557 -34.1618,-0.5621 -1.8075,-0.6872 -2.0823,-1.1791 -1.7071,-3.0551 0.3487,-1.7432 0.073,-2.4065 -1.2489,-3.0095 -2.7842,-1.2697 -3.7061,-3.4966 -1.9791,-4.7805 1.3692,-1.0178 1.3008,-1.1833 -1.0647,-2.5756 -2.4784,-1.4591 -5.6444,-5.6292 -5.6444,-7.4345 0,-1.6227 1.6678,-0.9737 3.6982,1.4392 1.0887,1.294 3.6075,3.307 5.5972,4.4728 4.1182,2.4136 4.6046,4.0507 1.4395,4.845 l -2.1782,0.5468 2.5817,2.0203 c 1.42,1.1114 2.5818,2.5509 2.5818,3.1988 0,1.7487 2.8748,2.509 10.0974,2.6702 8.6853,0.1945 16.8409,-1.1596 27.0093,-4.4828 10.2078,-3.3363 13.0938,-4.9164 32.4876,-17.7874 21.2057,-14.0736 29.6969,-17.8555 40.5709,-18.0689 l 4.8423,-0.096 -7.2637,-2.3257 c -3.9949,-1.2789 -9.8522,-2.6879 -13.016,-3.1308 -5.5517,-0.7774 -6.0728,-0.6978 -14.9308,2.2813 -10.9119,3.6698 -15.7414,6.0358 -24.9286,12.2125 -20.4166,13.7266 -31.2837,17.3401 -48.4119,16.0983 -10.267,-0.7444 -13.7961,-1.8389 -18.1891,-5.6411 -4.1465,-3.5888 -3.3019,-4.0636 2.5504,-1.4333 3.1903,1.434 5.8747,1.8341 14.1651,2.1114 5.8981,0.1967 12.5612,-0.062 15.7378,-0.6102 7.0385,-1.2164 19.0188,-6.618 31.3352,-14.128 12.6677,-7.724 14.479,-8.5897 25.206,-12.0469 10.6846,-3.4436 14.7781,-3.6371 25.8913,-1.2235 19.1225,4.1527 28.8532,8.434 36.485,16.052 8.973,8.9571 15.2909,20.0349 19.105,33.4988 1.8504,6.5322 2.2562,23.1253 0.7404,30.2652 -3.531,16.6309 -16.1624,33.53564 -30.5078,40.82944 -10.8359,5.5094 -29.1787,8.0175 -41.443,5.6663 z m 27.3493,-5.8578 c 16.8903,-4.2079 29.8392,-15.2107 37.719,-32.04904 7.3256,-15.6545 5.8761,-37.1532 -3.5914,-53.2657 -3.4899,-5.9395 -11.552,-15.1512 -16.0577,-18.3476 -7.891,-5.5979 -20.2929,-7.5791 -30.57,-4.8835 -12.3351,3.2354 -20.963,8.7372 -29.0369,18.5162 -7.1461,8.6549 -9.0268,11.9513 -12.5999,22.0829 -2.8219,8.0012 -2.9429,8.7884 -2.9594,19.238 -0.023,12.3335 1.1734,18.2233 5.7212,28.24764 3.2059,7.066 10.5418,15.1294 16.5876,18.2328 7.9095,4.0596 23.4429,5.0546 34.7875,2.2283 z m -16.0688,-20.7155 c -8.7475,-4.18224 -12.096,-10.65274 -14.9384,-22.61974 -3.1589,-13.3008 4.9153,-31.1797 14.6966,-37.6634 6.546,-4.3392 11.0904,-5.8645 16.5895,-4.0645 19.9975,6.5458 21.5804,30.7821 16.4034,45.6553 -4.6565,13.3776 -12.2093,19.73394 -22.897,20.32694 -4.8544,0.2695 -6.4124,0 -9.8541,-1.6346 z m 16.258,-4.00884 c 6.3799,-3.2992 12.5714,-11.4647 14.8933,-22.1888 2.1722,-10.0332 -1.0686,-21.754 -7.1232,-28.5887 -5.6311,-6.2403 -11.6325,-7.0912 -20.2444,-2.8698 -6.8905,3.3777 -10.4859,8.1758 -13.6682,14.9405 -5.7253,12.7917 -0.3699,33.0512 9.9374,38.8603 2.5849,1.3786 4.2746,1.662 8.4805,1.4232 2.8889,-0.1647 6.365,-0.8737 7.7246,-1.5767 z m -11.6477,-3.118 c -3.7428,-1.0771 -8.9863,-7.8047 -11.439,-13.1619 -2.6051,-5.6902 -1.4086,-15.3573 0.4278,-19.7789 5.9768,-14.3911 22.2171,-20.8026 30.7951,-6.5132 3.3241,5.5375 3.9946,9.8691 2.8917,18.685 -1.3882,11.0968 -5.6995,17.8686 -13.0206,20.4517 -3.9418,1.3907 -5.7228,1.4493 -9.655,0.3173 z m 9.1627,-4.6286 c 3.9958,-1.835 5.4941,-3.4884 7.7928,-8.6001 1.4623,-3.2512 1.8103,-5.5264 1.8469,-12.0764 0.041,-7.3936 -0.1418,-8.3874 -2.1738,-11.8454 -2.8183,-4.7944 -5.7766,-7.1209 -9.0545,-7.1209 -3.4774,0 -3.9006,0.6468 -2.0025,3.0599 3.9601,5.0342 5.4701,19.5222 2.8551,27.3946 -0.7684,2.3138 -2.5641,5.2767 -4.1195,6.7976 -2.3715,2.3186 -2.5635,2.7728 -1.372,3.2454 2.1052,0.8353 2.7353,0.749 6.2275,-0.8547 z m -5.9944,-10.1293 c 2.7726,-6.268 2.3175,-20.022 -0.8268,-24.9883 -2.0674,-3.9251 -2.2097,-1.7814 -4.7983,0.9396 -4.6325,5.6043 -8.5183,12.9677 -4.8837,23.227 1.1894,3.3572 1.6756,4.8985 3.59,5.2639 3.4083,0.6506 5.1648,-0.4773 6.9188,-4.4422 z m -47.1063,21.6141 c -8.6201,-17.2099 -7.993,-39.4835 1.6264,-57.7756 1.2285,-2.336 2.3506,-4.5009 2.4934,-4.8107 0.1418,-0.3097 -2.7606,1.2409 -6.4519,3.4459 -3.6913,2.2051 -9.3545,5.0008 -12.5848,6.2128 -7.0424,2.6422 -7.0916,2.7499 -6.9088,15.1166 0.135,9.071 1.6783,17.8016 3.9668,22.4283 1.1537,2.3324 18.9449,20.09344 19.563,19.52994 0.1419,-0.1281 -0.6261,-1.9947 -1.7041,-4.14724 z m -19.5821,-62.2248 c 0.7143,-2.9798 4.6078,-9.2608 6.0328,-9.7326 0.8138,-0.2695 0.6612,0.4111 -0.5289,2.3566 -0.9204,1.5045 -2.4705,4.2788 -3.4451,6.1653 -2.0377,3.9448 -2.8254,4.4079 -2.0588,1.2107 z" transform="translate(175.45673,88.316182) translate(2004.9905,1012.8278)" fill="#B99470"/>
</svg>