<svg width="115.33084mm" height="107.33968mm" viewBox="0 0 115.33084 107.33968" xmlns="http://www.w3.org/2000/svg">
    <path d="m 2213.9512,-1203.4651 c 9.1432,-1.6949 15.8334,-1.2537 28.1286,-12.0017 11.7899,-10.3063 16.2591,-24.4976 16.2591,-24.4976 z" fill="#afafaf" paint-order="markers stroke fill" transform="translate(-389.09307,97.716444) translate(-1758.6167,1211.9985)"/>
    <path d="m 2169.3957,-1260.8694 c 4.9379,-19.4504 13.1043,-45.7034 57.9245,-51.2069 44.8201,-5.5036 49.1881,42.832 49.834,46.0452 0.6455,3.2133 -1.5193,15.827 -4.0643,20.2025 -2.5448,4.3755 -33.9191,30.1499 -36.4638,31.7223 -2.545,1.5725 -29.0193,5.4352 -44.7823,-4.2045 -15.7631,-9.6398 -21.3466,-27.0392 -22.4481,-42.5586 z" fill="#f2ce91" paint-order="markers stroke fill" transform="translate(-389.09307,97.716444) translate(-1758.6167,1211.9985) translate(-18.516584,6.5536309)"/>
    <path d="m 2234.5309,-1215.2941 c 0.5704,-2.6401 1.483,-11.6312 8.2304,-17.9088 6.7471,-6.2776 17.7644,-14.2566 23.5825,-14.7406 5.8182,-0.484 11.7505,-1.2614 5.8997,4.7229 -5.8507,5.9842 -27.3473,22.7343 -31.813,26.6651 -4.4656,3.9308 -7.3826,4.8402 -5.8996,1.2614 z" fill="#d2d2d2" paint-order="markers stroke fill" transform="translate(-389.09307,97.716444) translate(-1758.6167,1211.9985) translate(-18.516584,6.5536309)"/>
    <path d="m 2228.0411,-1316.2685 c -22.0089,0.037 -41.713,13.4444 -54.5496,33.8972 -6.5861,10.4938 -7.3092,16.8877 -7.2632,26.4836 0.036,7.6333 0.4102,9.2881 3.6851,16.3117 2.7315,5.8589 5.3422,9.5 10.4226,14.5376 9.5998,9.4217 28.3899,16.9657 45.0185,16.0311 9.6993,-0.5451 11.9852,-2.4068 17.9978,-6.5412 6.2129,-4.2718 31.3409,-27.3734 33.7137,-30.9945 2.3376,-3.5675 4.4912,-13.1303 4.4912,-19.943 0,-14.9534 -9.5142,-32.3148 -22.7536,-41.522 -5.9081,-4.1087 -13.5401,-6.5325 -25.1205,-7.9778 -1.8955,-0.1928 -3.7768,-0.2858 -5.642,-0.2827 z m -0.292,7.5313 c 14.2046,-0.046 25.3344,4.1824 33.8197,12.8287 10.1441,10.3364 14.8509,23.3643 13.5309,37.4525 -0.7074,7.5374 -0.7158,7.5654 -3.6535,7.5654 -4.021,0 -14.1596,3.5214 -19.0784,6.6265 -9.209,5.8136 -16.4002,16.8414 -18.6278,25.709 -1.2911,5.1396 -4.4896,3.7168 -9.6738,4.3259 -10.7482,0.2202 -17.929,-1.2267 -25.877,-5.2126 -7.926,-3.9746 -18.4341,-14.3867 -22.1397,-21.9796 -4.4824,-9.1843 -4.0276,-22.5128 0.3906,-33.5297 4.2385,-10.5689 11.0119,-18.3014 20.6804,-24.6771 9.5799,-6.3168 15.3055,-8.2803 26.1209,-8.9575 1.5357,-0.096 3.0383,-0.1467 4.5077,-0.1515 z m 1.1597,26.0171 c -0.1753,0 -0.354,0.011 -0.5354,0.038 -3.1518,0.4708 -4.4087,3.1369 -2.9673,6.3004 1.4606,3.2059 4.7915,3.1829 6.5092,-0.262 1.4721,-2.9528 -0.3784,-6.0572 -3.0065,-6.0766 z m -17.2517,0.8257 c -2.6906,0.077 -4.8363,3.6376 -2.8841,6.9474 1.0936,1.8541 3.2972,2.1994 5.0571,0.8093 2.2262,-1.7583 2.2989,-4.8034 0.5674,-6.535 -0.8863,-0.8864 -1.8435,-1.2475 -2.7404,-1.2217 z m 14.7965,27.5384 c -0.5622,0 -1.1376,0.012 -1.7658,0.045 -3.8321,0.199 -8.3121,-0.4182 -12.4127,0.879 -1.5028,0.4754 -2.6793,4.1102 1.0072,4.3992 6.804,0.5333 13.8416,0.4835 19.851,-1.0139 1.3283,-0.331 2.1389,-1.436 1.9043,-2.1198 -0.2719,-0.7926 -1.8346,-1.8501 -5.7004,-2.0815 -1.0465,-0.063 -1.9466,-0.1058 -2.8836,-0.108 z m 45.437,8.6538 c 0.137,0.01 0.2315,0.035 0.2786,0.082 0.2633,0.2633 -1.0024,1.3568 -2.8123,2.4303 -1.8099,1.0733 -6.8884,5.3133 -11.2856,9.4222 -10.0408,9.3818 -20.4939,17.3841 -20.4659,15.6662 0.09,-5.3402 9.1983,-17.1361 16.4109,-21.2529 4.2074,-2.4016 15.8191,-6.4686 17.8743,-6.3474 z" transform="translate(-389.09307,97.716444) translate(-1758.6167,1211.9985) translate(-18.516584,6.5536309)"/>
</svg>
