<?xml version="1.0" ?><svg xmlns="http://www.w3.org/2000/svg" width="138.05891mm" height="45.492821mm" viewBox="0 0 138.05891 45.492821">
    <path d="m -2108.7916,-942.87489 c 1.0744,-0.34414 4.7892,-1.14715 7.466,-1.32741 2.6768,-0.18026 97.8946,2.81873 101.227,2.37625 3.3323,-0.44247 20.1762,0.2786 20.1762,0.2786 l 0.2731,5.04748 3.8058,5.50638 -4.0789,3.22842 3.8786,6.60434 -8.9955,4.44114 4.3338,3.91673 c 0,0 2.4948,1.42576 -2.4947,3.85117 -4.9894,2.42541 -7.0289,4.03143 -5.8088,5.998 1.22,1.96654 -12.2368,2.31069 -18.0639,1.98292 -5.8271,-0.32774 -100.8082,-2.94981 -100.8082,-2.94981 l 5.1533,-6.73545 c 0,0 -4.7162,-1.2455 -5.3718,-2.7532 -0.6555,-1.50767 1.912,-0.80301 1.5478,-2.45819 -0.3642,-1.65518 -3.2048,-1.72072 -3.2231,-3.45784 -0.018,-1.73715 7.5934,-8.47259 7.5934,-8.47259 l -5.8817,-3.98227 8.6678,-3.94952 z" fill="#CECFAA" paint-order="fill markers stroke" transform="translate(26.241321,69.309968) translate(2085.985,875.69121)"/>
    <path d="m -2057.1585,-899.88876 c -0.1853,-0.1738 -9.5974,-0.7295 -20.9165,-1.2328 -25.325,-1.1261 -31.4759,-1.666 -31.4759,-2.7639 0,-0.4701 1.11,-1.9997 2.4666,-3.3994 2.6301,-2.8956 3.5635,-2.09014 0,-3.5664 -2.7126,-1.1235 -3.4892,-4.082 -1.0542,-4.0152 1.9295,0.053 6.877,2.5772 7.2385,3.6931 0.1624,0.499 -0.5953,1.9638 -1.6817,3.255 -2.7918,3.1091 -2.2091,2.3482 1.3996,2.3425 l 13.6996,-0.023 c 9.391,-0.023 27.4252,0.4226 40.076,0.9716 12.6509,0.5491 30.6796,1.162 40.0637,1.3622 l 12.9497,0.2761 c 3.8356,-0.041 4.1676,1.3358 3.9988,-2.4754 -0.1076,-2.4511 0.098,-2.6293 4.7288,-4.0861 5.7724,-1.8161 6.0513,-2.0167 4.2259,-3.0384 -0.7758,-0.434 -2.3392,-1.5882 -3.4746,-2.5648 -2.7769,-2.3884 -1.9481,-4.1699 2.7498,-5.9098 4.7636,-1.7641 4.6483,-1.6446 3.2077,-3.3213 -1.9139,-2.2281 -2.2743,-4.0411 -1.0114,-5.0891 1.5582,-1.2931 1.4701,-2.1041 -0.5351,-4.9201 -0.9336,-1.3113 -1.5362,-3.0015 -1.3388,-3.7563 0.334,-1.2772 -2.3852,-1.3763 -39.2612,-1.4326 -31.3041,-0.048 -41.9067,-0.336 -50.5153,-1.374 -11.4241,-1.3777 -33.897,-2.7266 -33.897,-2.0347 0,0.2219 1.816,1.5319 4.0353,2.9116 2.2196,1.3797 4.0354,3.0235 4.0354,3.6531 0,0.6296 -1.8158,1.9258 -4.0354,2.8805 -2.2193,0.9547 -4.0353,1.8934 -4.0353,2.086 0,0.1922 1.4527,0.7412 3.2282,1.2191 1.7758,0.4782 3.2285,1.1506 3.2285,1.4944 0,0.9217 -4.0601,4.5174 -6.9875,6.1888 -2.1521,1.2286 -2.4081,1.6799 -1.6447,2.9023 1.3159,2.1073 -7e-4,2.8773 -2.5108,1.4683 -3.2314,-1.8138 -2.6691,-3.3138 2.2253,-5.9368 4.7153,-2.5268 4.74,-2.4124 -0.9691,-4.47 -1.425,-0.5136 -2.2193,-1.3836 -2.2193,-2.4305 0,-1.3061 0.967,-1.8998 4.8573,-2.9812 6.0848,-1.31828 4.5947,-1.51661 0,-4.4218 -2.6716,-1.6893 -4.8573,-3.3941 -4.8573,-3.7887 0,-1.6896 10.3125,-2.9522 22.598,-2.7666 6.8802,0.1029 34.3731,0.2855 61.0951,0.4035 33.9352,0.1487 48.8528,0.4818 49.4719,1.1007 0.6433,0.6435 0.6211,1.4676 -0.082,3.0093 -0.8485,1.8627 -0.7046,2.5023 1.172,5.2104 2.6067,3.7615 2.6449,4.4776 0.3235,6.055 -1.3534,0.9197 -1.6104,1.5325 -1.0089,2.4065 0.4438,0.6449 1.4905,2.1409 2.3257,3.3241 1.4491,2.0528 1.4539,2.2235 0.1053,3.7146 -0.7781,0.8598 -2.7328,1.9876 -4.3436,2.5065 -4.3591,1.4042 -4.567,1.673 -2.2369,2.8938 1.1729,0.6147 2.1328,1.6243 2.1328,2.2438 0,1.2333 -3.7132,4.4643 -5.1531,4.484 -0.4949,0 -1.4054,0.3324 -2.0231,0.7236 -0.924,0.585 -0.8074,1.1549 0.6564,3.2105 0.9787,1.3744 1.5533,2.8649 1.2772,3.3117 -0.4756,0.7694 -71.4986,1.2555 -72.3035,0.4949 z" transform="translate(26.241321,69.309968) translate(2085.985,875.69121)" fill="#B99470"/>
</svg>